solid RemoteHolder
facet normal -2.231078651758092e-15 1.0 5.206340395950342e-17
  outer loop
    vertex 48.24514412111643 -36.50000000000013 41.14650269902857
    vertex 89.0 -36.50000000000004 162.9999999999998
    vertex 72.26097691370866 -36.50000000000012 41.146502699028545
  endloop
endfacet
facet normal -2.231078651758092e-15 1.0 5.206340395950342e-17
  outer loop
    vertex 89.0 -36.50000000000004 162.9999999999998
    vertex 48.24514412111643 -36.50000000000013 41.14650269902857
    vertex 65.0 -36.50000000000014 163.00000000000003
  endloop
endfacet
facet normal -0.7071067811864988 -0.7071067811865963 -1.180465969290457e-15
  outer loop
    vertex 1.9999999999999998 -192.00000000000014 163.00000000000003
    vertex 0.0 -190.00000000000014 0.0
    vertex 2.000000000000251 -191.99999999999986 0.0
  endloop
endfacet
facet normal -0.7071067811864988 -0.7071067811865963 -1.180465969290457e-15
  outer loop
    vertex 0.0 -190.00000000000014 0.0
    vertex 1.9999999999999998 -192.00000000000014 163.00000000000003
    vertex 0.0 -190.00000000000014 163.00000000000003
  endloop
endfacet
facet normal 6.551059958297103e-18 1.3841067155905664e-18 -1.0
  outer loop
    vertex 1.9999999999999998 2.2658948371882797e-32 2.6054510155970695e-17
    vertex 0.0 -190.00000000000014 0.0
    vertex 0.0 -1.9999999999999998 0.0
  endloop
endfacet
facet normal 6.551059958297103e-18 1.3841067155905664e-18 -1.0
  outer loop
    vertex 0.0 -190.00000000000014 0.0
    vertex 1.9999999999999998 2.2658948371882797e-32 2.6054510155970695e-17
    vertex 2.000000000000251 -191.99999999999986 0.0
  endloop
endfacet
facet normal 6.551059958297103e-18 1.3841067155905664e-18 -1.0
  outer loop
    vertex 2.000000000000251 -191.99999999999986 0.0
    vertex 1.9999999999999998 2.2658948371882797e-32 2.6054510155970695e-17
    vertex 38.58749999999999 4.371760851500136e-31 5.026892053217594e-16
  endloop
endfacet
facet normal 6.551059958297103e-18 1.3841067155905664e-18 -1.0
  outer loop
    vertex 2.000000000000251 -191.99999999999986 0.0
    vertex 38.58749999999999 4.371760851500136e-31 5.026892053217594e-16
    vertex 38.58749999999999 -191.9999999999998 0.0
  endloop
endfacet
facet normal 6.551059958297103e-18 1.3841067155905664e-18 -1.0
  outer loop
    vertex 38.58749999999999 -191.9999999999998 0.0
    vertex 38.58749999999999 4.371760851500136e-31 5.026892053217594e-16
    vertex 40.5875 -1.9999999999999998 5.287437154777301e-16
  endloop
endfacet
facet normal 6.551059958297103e-18 1.3841067155905664e-18 -1.0
  outer loop
    vertex 38.58749999999999 -191.9999999999998 0.0
    vertex 40.5875 -1.9999999999999998 5.287437154777301e-16
    vertex 40.5875 -189.9999999999998 5.50774703622634e-18
  endloop
endfacet
facet normal 3.425165806538276e-16 -1.0 -1.9611936961798554e-15
  outer loop
    vertex 61.0 -192.00000000000014 163.00000000000003
    vertex 2.000000000000251 -191.99999999999986 0.0
    vertex 38.58749999999999 -191.9999999999998 0.0
  endloop
endfacet
facet normal 3.425165806538276e-16 -1.0 -1.9611936961798554e-15
  outer loop
    vertex 2.000000000000251 -191.99999999999986 0.0
    vertex 61.0 -192.00000000000014 163.00000000000003
    vertex 1.9999999999999998 -192.00000000000014 163.00000000000003
  endloop
endfacet
facet normal 0.7037881072229051 -0.7037881072229507 -0.0967708647431509
  outer loop
    vertex 40.5875 -189.9999999999998 5.50774703622634e-18
    vertex 61.0 -192.00000000000014 163.00000000000003
    vertex 38.58749999999999 -191.9999999999998 0.0
  endloop
endfacet
facet normal 0.7037881072229051 -0.7037881072229507 -0.0967708647431509
  outer loop
    vertex 61.0 -192.00000000000014 163.00000000000003
    vertex 40.5875 -189.9999999999998 5.50774703622634e-18
    vertex 63.0 -190.00000000000014 163.00000000000003
  endloop
endfacet
facet normal 0.0 -1.0 3.7027631311495114e-16
  outer loop
    vertex 89.0 -155.50000000000014 163.00000000000003
    vertex 48.24514412111644 -155.5000000000002 41.146502699028595
    vertex 72.26097691370866 -155.5000000000002 41.146502699028595
  endloop
endfacet
facet normal 0.0 -1.0 3.7027631311495114e-16
  outer loop
    vertex 48.24514412111644 -155.5000000000002 41.146502699028595
    vertex 89.0 -155.50000000000014 163.00000000000003
    vertex 65.0 -155.50000000000014 163.00000000000003
  endloop
endfacet
facet normal 0.7037881072229222 -0.7037881072229334 -0.09677086474315146
  outer loop
    vertex 65.0 -155.50000000000014 163.00000000000003
    vertex 46.24514412111644 -157.5000000000002 41.146502699028595
    vertex 48.24514412111644 -155.5000000000002 41.146502699028595
  endloop
endfacet
facet normal 0.7037881072229222 -0.7037881072229334 -0.09677086474315146
  outer loop
    vertex 46.24514412111644 -157.5000000000002 41.146502699028595
    vertex 65.0 -155.50000000000014 163.00000000000003
    vertex 63.0 -157.50000000000014 163.00000000000003
  endloop
endfacet
facet normal 0.9906962029368357 -1.6250674135096238e-16 -0.13609200375678238
  outer loop
    vertex 74.26097691370866 -38.50000000000012 41.146502699028545
    vertex 91.0 -153.50000000000014 163.00000000000003
    vertex 74.26097691370866 -153.5000000000002 41.146502699028595
  endloop
endfacet
facet normal 0.9906962029368357 -1.6250674135096238e-16 -0.13609200375678238
  outer loop
    vertex 91.0 -153.50000000000014 163.00000000000003
    vertex 74.26097691370866 -38.50000000000012 41.146502699028545
    vertex 91.0 -38.500000000000036 162.9999999999998
  endloop
endfacet
facet normal 0.7037943323541435 -0.7037943323541472 -0.09668027457742125
  outer loop
    vertex 91.0 -153.50000000000014 163.00000000000003
    vertex 72.26097691370866 -155.5000000000002 41.146502699028595
    vertex 74.26097691370866 -153.5000000000002 41.146502699028595
  endloop
endfacet
facet normal 0.7037943323541435 -0.7037943323541472 -0.09668027457742125
  outer loop
    vertex 72.26097691370866 -155.5000000000002 41.146502699028595
    vertex 91.0 -153.50000000000014 163.00000000000003
    vertex 89.0 -155.50000000000014 163.00000000000003
  endloop
endfacet
facet normal 0.7037943323541433 0.7037943323541472 -0.09668027457742208
  outer loop
    vertex 89.0 -36.50000000000004 162.9999999999998
    vertex 74.26097691370866 -38.50000000000012 41.146502699028545
    vertex 72.26097691370866 -36.50000000000012 41.146502699028545
  endloop
endfacet
facet normal 0.7037943323541433 0.7037943323541472 -0.09668027457742208
  outer loop
    vertex 74.26097691370866 -38.50000000000012 41.146502699028545
    vertex 89.0 -36.50000000000004 162.9999999999998
    vertex 91.0 -38.500000000000036 162.9999999999998
  endloop
endfacet
facet normal 0.7037881072229283 0.7037881072229273 -0.09677086474315248
  outer loop
    vertex 48.24514412111643 -36.50000000000013 41.14650269902857
    vertex 63.0 -34.50000000000014 163.00000000000003
    vertex 65.0 -36.50000000000014 163.00000000000003
  endloop
endfacet
facet normal 0.7037881072229283 0.7037881072229273 -0.09677086474315248
  outer loop
    vertex 63.0 -34.50000000000014 163.00000000000003
    vertex 48.24514412111643 -36.50000000000013 41.14650269902857
    vertex 46.24514412111643 -34.50000000000012 41.14650269902857
  endloop
endfacet
facet normal 0.990678839845296 -4.290600256346975e-17 -0.13621834047872822
  outer loop
    vertex 40.5875 -1.9999999999999998 5.287437154777301e-16
    vertex 46.24514412111644 -157.5000000000002 41.146502699028595
    vertex 40.5875 -189.9999999999998 5.50774703622634e-18
  endloop
endfacet
facet normal 0.990678839845296 -4.290600256346975e-17 -0.13621834047872822
  outer loop
    vertex 46.24514412111644 -157.5000000000002 41.146502699028595
    vertex 40.5875 -1.9999999999999998 5.287437154777301e-16
    vertex 46.24514412111643 -36.50000000000013 41.14650269902857
  endloop
endfacet
facet normal 0.990678839845296 -4.290600256346975e-17 -0.13621834047872822
  outer loop
    vertex 46.24514412111643 -36.50000000000013 41.14650269902857
    vertex 40.5875 -1.9999999999999998 5.287437154777301e-16
    vertex 46.24514412111643 -34.50000000000012 41.14650269902857
  endloop
endfacet
facet normal 0.990678839845296 -4.290600256346975e-17 -0.13621834047872822
  outer loop
    vertex 46.24514412111643 -34.50000000000012 41.14650269902857
    vertex 63.0 -1.9999999999998814 162.9999999999998
    vertex 63.0 -34.50000000000014 163.00000000000003
  endloop
endfacet
facet normal 0.990678839845296 -4.290600256346975e-17 -0.13621834047872822
  outer loop
    vertex 63.0 -1.9999999999998814 162.9999999999998
    vertex 46.24514412111643 -34.50000000000012 41.14650269902857
    vertex 40.5875 -1.9999999999999998 5.287437154777301e-16
  endloop
endfacet
facet normal 0.990678839845296 -4.290600256346975e-17 -0.13621834047872822
  outer loop
    vertex 40.5875 -189.9999999999998 5.50774703622634e-18
    vertex 63.0 -157.50000000000014 163.00000000000003
    vertex 63.0 -190.00000000000014 163.00000000000003
  endloop
endfacet
facet normal 0.990678839845296 -4.290600256346975e-17 -0.13621834047872822
  outer loop
    vertex 63.0 -157.50000000000014 163.00000000000003
    vertex 40.5875 -189.9999999999998 5.50774703622634e-18
    vertex 46.24514412111644 -157.5000000000002 41.146502699028595
  endloop
endfacet
facet normal 0.7037881072229238 0.7037881072229318 -0.0967708647431527
  outer loop
    vertex 61.0 1.184385922670117e-13 162.99999999999977
    vertex 40.5875 -1.9999999999999998 5.287437154777301e-16
    vertex 38.58749999999999 4.371760851500136e-31 5.026892053217594e-16
  endloop
endfacet
facet normal 0.7037881072229238 0.7037881072229318 -0.0967708647431527
  outer loop
    vertex 40.5875 -1.9999999999999998 5.287437154777301e-16
    vertex 61.0 1.184385922670117e-13 162.99999999999977
    vertex 63.0 -1.9999999999998814 162.9999999999998
  endloop
endfacet
facet normal 8.205310214413426e-32 1.0 -7.266171304724653e-16
  outer loop
    vertex 1.9999999999999998 1.184385922670117e-13 162.99999999999977
    vertex 38.58749999999999 4.371760851500136e-31 5.026892053217594e-16
    vertex 1.9999999999999998 2.2658948371882797e-32 2.6054510155970695e-17
  endloop
endfacet
facet normal 8.205310214413426e-32 1.0 -7.266171304724653e-16
  outer loop
    vertex 38.58749999999999 4.371760851500136e-31 5.026892053217594e-16
    vertex 1.9999999999999998 1.184385922670117e-13 162.99999999999977
    vertex 61.0 1.184385922670117e-13 162.99999999999977
  endloop
endfacet
facet normal -1.0 0.0 0.0
  outer loop
    vertex 0.0 -1.9999999999998814 162.99999999999977
    vertex 0.0 -190.00000000000014 0.0
    vertex 0.0 -190.00000000000014 163.00000000000003
  endloop
endfacet
facet normal -1.0 0.0 0.0
  outer loop
    vertex 0.0 -190.00000000000014 0.0
    vertex 0.0 -1.9999999999998814 162.99999999999977
    vertex 0.0 -1.9999999999999998 0.0
  endloop
endfacet
facet normal -0.7071067811865476 0.7071067811865476 -5.137433649152642e-16
  outer loop
    vertex 0.0 -1.9999999999998814 162.99999999999977
    vertex 1.9999999999999998 2.2658948371882797e-32 2.6054510155970695e-17
    vertex 0.0 -1.9999999999999998 0.0
  endloop
endfacet
facet normal -0.7071067811865476 0.7071067811865476 -5.137433649152642e-16
  outer loop
    vertex 1.9999999999999998 2.2658948371882797e-32 2.6054510155970695e-17
    vertex 0.0 -1.9999999999998814 162.99999999999977
    vertex 1.9999999999999998 1.184385922670117e-13 162.99999999999977
  endloop
endfacet
facet normal -4.349325169970295e-16 1.1659503770660305e-15 1.0
  outer loop
    vertex 1.9999999999999998 -192.00000000000014 163.00000000000003
    vertex 0.0 -1.9999999999998814 162.99999999999977
    vertex 0.0 -190.00000000000014 163.00000000000003
  endloop
endfacet
facet normal -4.349325169970295e-16 1.1659503770660305e-15 1.0
  outer loop
    vertex 0.0 -1.9999999999998814 162.99999999999977
    vertex 1.9999999999999998 -192.00000000000014 163.00000000000003
    vertex 1.9999999999999998 1.184385922670117e-13 162.99999999999977
  endloop
endfacet
facet normal -4.349325169970295e-16 1.1659503770660305e-15 1.0
  outer loop
    vertex 1.9999999999999998 1.184385922670117e-13 162.99999999999977
    vertex 1.9999999999999998 -192.00000000000014 163.00000000000003
    vertex 25.0 -187.00000000000014 163.00000000000003
  endloop
endfacet
facet normal -4.349325169970295e-16 1.1659503770660305e-15 1.0
  outer loop
    vertex 25.0 -187.00000000000014 163.00000000000003
    vertex 1.9999999999999998 -192.00000000000014 163.00000000000003
    vertex 27.0 -189.00000000000014 163.00000000000003
  endloop
endfacet
facet normal -4.349325169970295e-16 1.1659503770660305e-15 1.0
  outer loop
    vertex 27.0 -189.00000000000014 163.00000000000003
    vertex 1.9999999999999998 -192.00000000000014 163.00000000000003
    vertex 61.0 -192.00000000000014 163.00000000000003
  endloop
endfacet
facet normal -4.349325169970295e-16 1.1659503770660305e-15 1.0
  outer loop
    vertex 27.0 -189.00000000000014 163.00000000000003
    vertex 61.0 -192.00000000000014 163.00000000000003
    vertex 58.00000000000001 -189.00000000000014 163.00000000000003
  endloop
endfacet
facet normal -4.349325169970295e-16 1.1659503770660305e-15 1.0
  outer loop
    vertex 58.00000000000001 -189.00000000000014 163.00000000000003
    vertex 61.0 -192.00000000000014 163.00000000000003
    vertex 60.0 -187.00000000000014 163.00000000000003
  endloop
endfacet
facet normal -4.349325169970295e-16 1.1659503770660305e-15 1.0
  outer loop
    vertex 60.0 -187.00000000000014 163.00000000000003
    vertex 61.0 -192.00000000000014 163.00000000000003
    vertex 60.0 -131.00000000000014 162.99999999999997
  endloop
endfacet
facet normal -4.349325169970295e-16 1.1659503770660305e-15 1.0
  outer loop
    vertex 60.0 -131.00000000000014 162.99999999999997
    vertex 61.0 -192.00000000000014 163.00000000000003
    vertex 60.0 -124.00000000000016 162.99999999999997
  endloop
endfacet
facet normal -4.349325169970295e-16 1.1659503770660305e-15 1.0
  outer loop
    vertex 60.0 -124.00000000000016 162.99999999999997
    vertex 61.0 -192.00000000000014 163.00000000000003
    vertex 60.0 -68.00000000000014 162.99999999999991
  endloop
endfacet
facet normal -4.349325169970295e-16 1.1659503770660305e-15 1.0
  outer loop
    vertex 60.0 -68.00000000000014 162.99999999999991
    vertex 61.0 -192.00000000000014 163.00000000000003
    vertex 60.0 -61.000000000000156 162.99999999999991
  endloop
endfacet
facet normal -4.349325169970295e-16 1.1659503770660305e-15 1.0
  outer loop
    vertex 60.0 -61.000000000000156 162.99999999999991
    vertex 61.0 -192.00000000000014 163.00000000000003
    vertex 60.0 -5.000000000000148 162.9999999999999
  endloop
endfacet
facet normal -4.349325169970295e-16 1.1659503770660305e-15 1.0
  outer loop
    vertex 65.0 -155.50000000000014 163.00000000000003
    vertex 63.0 -150.50000000000014 163.00000000000003
    vertex 63.0 -157.50000000000014 163.00000000000003
  endloop
endfacet
facet normal -4.349325169970295e-16 1.1659503770660305e-15 1.0
  outer loop
    vertex 63.0 -150.50000000000014 163.00000000000003
    vertex 65.0 -155.50000000000014 163.00000000000003
    vertex 65.0 -152.50000000000014 163.00000000000003
  endloop
endfacet
facet normal -4.349325169970295e-16 1.1659503770660305e-15 1.0
  outer loop
    vertex 65.0 -152.50000000000014 163.00000000000003
    vertex 65.0 -155.50000000000014 163.00000000000003
    vertex 89.0 -155.50000000000014 163.00000000000003
  endloop
endfacet
facet normal -4.349325169970295e-16 1.1659503770660305e-15 1.0
  outer loop
    vertex 65.0 -152.50000000000014 163.00000000000003
    vertex 89.0 -155.50000000000014 163.00000000000003
    vertex 86.0 -152.50000000000014 163.00000000000003
  endloop
endfacet
facet normal -4.349325169970295e-16 1.1659503770660305e-15 1.0
  outer loop
    vertex 86.0 -152.50000000000014 163.00000000000003
    vertex 89.0 -155.50000000000014 163.00000000000003
    vertex 88.0 -150.50000000000014 163.00000000000003
  endloop
endfacet
facet normal -4.349325169970295e-16 1.1659503770660305e-15 1.0
  outer loop
    vertex 88.0 -150.50000000000014 163.00000000000003
    vertex 89.0 -155.50000000000014 163.00000000000003
    vertex 88.0 -99.50000000000014 163.00000000000003
  endloop
endfacet
facet normal -4.349325169970295e-16 1.1659503770660305e-15 1.0
  outer loop
    vertex 88.0 -99.50000000000014 163.00000000000003
    vertex 89.0 -155.50000000000014 163.00000000000003
    vertex 88.0 -92.50000000000014 162.99999999999994
  endloop
endfacet
facet normal -4.349325169970295e-16 1.1659503770660305e-15 1.0
  outer loop
    vertex 88.0 -92.50000000000014 162.99999999999994
    vertex 89.0 -155.50000000000014 163.00000000000003
    vertex 88.0 -41.500000000000135 163.0
  endloop
endfacet
facet normal -4.349325169970295e-16 1.1659503770660305e-15 1.0
  outer loop
    vertex 65.0 -39.50000000000014 163.00000000000003
    vertex 63.0 -34.50000000000014 163.00000000000003
    vertex 63.0 -41.500000000000114 163.00000000000003
  endloop
endfacet
facet normal -4.349325169970295e-16 1.1659503770660305e-15 1.0
  outer loop
    vertex 63.0 -34.50000000000014 163.00000000000003
    vertex 65.0 -39.50000000000014 163.00000000000003
    vertex 65.0 -36.50000000000014 163.00000000000003
  endloop
endfacet
facet normal -4.349325169970295e-16 1.1659503770660305e-15 1.0
  outer loop
    vertex 65.0 -36.50000000000014 163.00000000000003
    vertex 65.0 -39.50000000000014 163.00000000000003
    vertex 86.0 -39.50000000000014 163.0
  endloop
endfacet
facet normal -4.349325169970295e-16 1.1659503770660305e-15 1.0
  outer loop
    vertex 65.0 -36.50000000000014 163.00000000000003
    vertex 86.0 -39.50000000000014 163.0
    vertex 89.0 -36.50000000000004 162.9999999999998
  endloop
endfacet
facet normal -4.349325169970295e-16 1.1659503770660305e-15 1.0
  outer loop
    vertex 89.0 -36.50000000000004 162.9999999999998
    vertex 86.0 -39.50000000000014 163.0
    vertex 88.0 -41.500000000000135 163.0
  endloop
endfacet
facet normal -4.349325169970295e-16 1.1659503770660305e-15 1.0
  outer loop
    vertex 89.0 -36.50000000000004 162.9999999999998
    vertex 88.0 -41.500000000000135 163.0
    vertex 89.0 -155.50000000000014 163.00000000000003
  endloop
endfacet
facet normal -4.349325169970295e-16 1.1659503770660305e-15 1.0
  outer loop
    vertex 89.0 -36.50000000000004 162.9999999999998
    vertex 89.0 -155.50000000000014 163.00000000000003
    vertex 91.0 -153.50000000000014 163.00000000000003
  endloop
endfacet
facet normal -4.349325169970295e-16 1.1659503770660305e-15 1.0
  outer loop
    vertex 89.0 -36.50000000000004 162.9999999999998
    vertex 91.0 -153.50000000000014 163.00000000000003
    vertex 91.0 -38.500000000000036 162.9999999999998
  endloop
endfacet
facet normal -4.349325169970295e-16 1.1659503770660305e-15 1.0
  outer loop
    vertex 65.0 -97.50000000000014 163.00000000000003
    vertex 63.0 -92.50000000000014 162.99999999999994
    vertex 63.0 -99.50000000000013 163.00000000000003
  endloop
endfacet
facet normal -4.349325169970295e-16 1.1659503770660305e-15 1.0
  outer loop
    vertex 63.0 -92.50000000000014 162.99999999999994
    vertex 65.0 -97.50000000000014 163.00000000000003
    vertex 65.0 -94.50000000000014 162.99999999999994
  endloop
endfacet
facet normal -4.349325169970295e-16 1.1659503770660305e-15 1.0
  outer loop
    vertex 65.0 -94.50000000000014 162.99999999999994
    vertex 65.0 -97.50000000000014 163.00000000000003
    vertex 86.0 -97.50000000000014 163.00000000000003
  endloop
endfacet
facet normal -4.349325169970295e-16 1.1659503770660305e-15 1.0
  outer loop
    vertex 65.0 -94.50000000000014 162.99999999999994
    vertex 86.0 -97.50000000000014 163.00000000000003
    vertex 86.0 -94.50000000000014 162.99999999999991
  endloop
endfacet
facet normal -4.349325169970295e-16 1.1659503770660305e-15 1.0
  outer loop
    vertex 86.0 -94.50000000000014 162.99999999999991
    vertex 86.0 -97.50000000000014 163.00000000000003
    vertex 88.0 -99.50000000000014 163.00000000000003
  endloop
endfacet
facet normal -4.349325169970295e-16 1.1659503770660305e-15 1.0
  outer loop
    vertex 86.0 -94.50000000000014 162.99999999999991
    vertex 88.0 -99.50000000000014 163.00000000000003
    vertex 88.0 -92.50000000000014 162.99999999999994
  endloop
endfacet
facet normal -4.349325169970295e-16 1.1659503770660305e-15 1.0
  outer loop
    vertex 1.9999999999999998 1.184385922670117e-13 162.99999999999977
    vertex 27.0 -3.0000000000001523 162.9999999999999
    vertex 61.0 1.184385922670117e-13 162.99999999999977
  endloop
endfacet
facet normal -4.349325169970295e-16 1.1659503770660305e-15 1.0
  outer loop
    vertex 27.0 -3.0000000000001523 162.9999999999999
    vertex 1.9999999999999998 1.184385922670117e-13 162.99999999999977
    vertex 25.0 -5.000000000000148 162.9999999999999
  endloop
endfacet
facet normal -4.349325169970295e-16 1.1659503770660305e-15 1.0
  outer loop
    vertex 25.0 -5.000000000000148 162.9999999999999
    vertex 1.9999999999999998 1.184385922670117e-13 162.99999999999977
    vertex 25.0 -187.00000000000014 163.00000000000003
  endloop
endfacet
facet normal -4.349325169970295e-16 1.1659503770660305e-15 1.0
  outer loop
    vertex 25.0 -5.000000000000148 162.9999999999999
    vertex 25.0 -187.00000000000014 163.00000000000003
    vertex 25.0 -131.00000000000014 162.99999999999997
  endloop
endfacet
facet normal -4.349325169970295e-16 1.1659503770660305e-15 1.0
  outer loop
    vertex 25.0 -5.000000000000148 162.9999999999999
    vertex 25.0 -131.00000000000014 162.99999999999997
    vertex 25.0 -124.00000000000016 162.99999999999997
  endloop
endfacet
facet normal -4.349325169970295e-16 1.1659503770660305e-15 1.0
  outer loop
    vertex 25.0 -5.000000000000148 162.9999999999999
    vertex 25.0 -124.00000000000016 162.99999999999997
    vertex 25.0 -68.00000000000014 162.99999999999991
  endloop
endfacet
facet normal -4.349325169970295e-16 1.1659503770660305e-15 1.0
  outer loop
    vertex 25.0 -5.000000000000148 162.9999999999999
    vertex 25.0 -68.00000000000014 162.99999999999991
    vertex 25.0 -61.000000000000156 162.99999999999991
  endloop
endfacet
facet normal -4.349325169970295e-16 1.1659503770660305e-15 1.0
  outer loop
    vertex 61.0 1.184385922670117e-13 162.99999999999977
    vertex 27.0 -3.0000000000001523 162.9999999999999
    vertex 58.00000000000001 -3.0000000000001523 162.9999999999999
  endloop
endfacet
facet normal -4.349325169970295e-16 1.1659503770660305e-15 1.0
  outer loop
    vertex 61.0 1.184385922670117e-13 162.99999999999977
    vertex 58.00000000000001 -3.0000000000001523 162.9999999999999
    vertex 60.0 -5.000000000000148 162.9999999999999
  endloop
endfacet
facet normal -4.349325169970295e-16 1.1659503770660305e-15 1.0
  outer loop
    vertex 61.0 1.184385922670117e-13 162.99999999999977
    vertex 60.0 -5.000000000000148 162.9999999999999
    vertex 61.0 -192.00000000000014 163.00000000000003
  endloop
endfacet
facet normal -4.349325169970295e-16 1.1659503770660305e-15 1.0
  outer loop
    vertex 61.0 1.184385922670117e-13 162.99999999999977
    vertex 61.0 -192.00000000000014 163.00000000000003
    vertex 63.0 -190.00000000000014 163.00000000000003
  endloop
endfacet
facet normal -4.349325169970295e-16 1.1659503770660305e-15 1.0
  outer loop
    vertex 61.0 1.184385922670117e-13 162.99999999999977
    vertex 63.0 -190.00000000000014 163.00000000000003
    vertex 63.0 -1.9999999999998814 162.9999999999998
  endloop
endfacet
facet normal -4.349325169970295e-16 1.1659503770660305e-15 1.0
  outer loop
    vertex 63.0 -1.9999999999998814 162.9999999999998
    vertex 63.0 -190.00000000000014 163.00000000000003
    vertex 63.0 -157.50000000000014 163.00000000000003
  endloop
endfacet
facet normal -4.349325169970295e-16 1.1659503770660305e-15 1.0
  outer loop
    vertex 63.0 -1.9999999999998814 162.9999999999998
    vertex 63.0 -157.50000000000014 163.00000000000003
    vertex 63.0 -150.50000000000014 163.00000000000003
  endloop
endfacet
facet normal -4.349325169970295e-16 1.1659503770660305e-15 1.0
  outer loop
    vertex 63.0 -1.9999999999998814 162.9999999999998
    vertex 63.0 -150.50000000000014 163.00000000000003
    vertex 63.0 -99.50000000000013 163.00000000000003
  endloop
endfacet
facet normal -4.349325169970295e-16 1.1659503770660305e-15 1.0
  outer loop
    vertex 63.0 -1.9999999999998814 162.9999999999998
    vertex 63.0 -99.50000000000013 163.00000000000003
    vertex 63.0 -92.50000000000014 162.99999999999994
  endloop
endfacet
facet normal -4.349325169970295e-16 1.1659503770660305e-15 1.0
  outer loop
    vertex 63.0 -1.9999999999998814 162.9999999999998
    vertex 63.0 -92.50000000000014 162.99999999999994
    vertex 63.0 -41.500000000000114 163.00000000000003
  endloop
endfacet
facet normal -4.349325169970295e-16 1.1659503770660305e-15 1.0
  outer loop
    vertex 63.0 -1.9999999999998814 162.9999999999998
    vertex 63.0 -41.500000000000114 163.00000000000003
    vertex 63.0 -34.50000000000014 163.00000000000003
  endloop
endfacet
facet normal -4.349325169970295e-16 1.1659503770660305e-15 1.0
  outer loop
    vertex 27.0 -66.00000000000016 162.99999999999991
    vertex 25.0 -61.000000000000156 162.99999999999991
    vertex 25.0 -68.00000000000014 162.99999999999991
  endloop
endfacet
facet normal -4.349325169970295e-16 1.1659503770660305e-15 1.0
  outer loop
    vertex 25.0 -61.000000000000156 162.99999999999991
    vertex 27.0 -66.00000000000016 162.99999999999991
    vertex 27.0 -63.000000000000156 162.99999999999991
  endloop
endfacet
facet normal -4.349325169970295e-16 1.1659503770660305e-15 1.0
  outer loop
    vertex 27.0 -63.000000000000156 162.99999999999991
    vertex 27.0 -66.00000000000016 162.99999999999991
    vertex 58.00000000000001 -66.00000000000016 162.99999999999991
  endloop
endfacet
facet normal -4.349325169970295e-16 1.1659503770660305e-15 1.0
  outer loop
    vertex 27.0 -63.000000000000156 162.99999999999991
    vertex 58.00000000000001 -66.00000000000016 162.99999999999991
    vertex 58.00000000000001 -63.000000000000156 162.99999999999991
  endloop
endfacet
facet normal -4.349325169970295e-16 1.1659503770660305e-15 1.0
  outer loop
    vertex 58.00000000000001 -63.000000000000156 162.99999999999991
    vertex 58.00000000000001 -66.00000000000016 162.99999999999991
    vertex 60.0 -68.00000000000014 162.99999999999991
  endloop
endfacet
facet normal -4.349325169970295e-16 1.1659503770660305e-15 1.0
  outer loop
    vertex 58.00000000000001 -63.000000000000156 162.99999999999991
    vertex 60.0 -68.00000000000014 162.99999999999991
    vertex 60.0 -61.000000000000156 162.99999999999991
  endloop
endfacet
facet normal -4.349325169970295e-16 1.1659503770660305e-15 1.0
  outer loop
    vertex 27.0 -129.00000000000014 162.99999999999997
    vertex 25.0 -124.00000000000016 162.99999999999997
    vertex 25.0 -131.00000000000014 162.99999999999997
  endloop
endfacet
facet normal -4.349325169970295e-16 1.1659503770660305e-15 1.0
  outer loop
    vertex 25.0 -124.00000000000016 162.99999999999997
    vertex 27.0 -129.00000000000014 162.99999999999997
    vertex 27.0 -126.00000000000016 162.99999999999997
  endloop
endfacet
facet normal -4.349325169970295e-16 1.1659503770660305e-15 1.0
  outer loop
    vertex 27.0 -126.00000000000016 162.99999999999997
    vertex 27.0 -129.00000000000014 162.99999999999997
    vertex 58.00000000000001 -129.00000000000014 162.99999999999997
  endloop
endfacet
facet normal -4.349325169970295e-16 1.1659503770660305e-15 1.0
  outer loop
    vertex 27.0 -126.00000000000016 162.99999999999997
    vertex 58.00000000000001 -129.00000000000014 162.99999999999997
    vertex 58.00000000000001 -126.00000000000016 162.99999999999997
  endloop
endfacet
facet normal -4.349325169970295e-16 1.1659503770660305e-15 1.0
  outer loop
    vertex 58.00000000000001 -126.00000000000016 162.99999999999997
    vertex 58.00000000000001 -129.00000000000014 162.99999999999997
    vertex 60.0 -131.00000000000014 162.99999999999997
  endloop
endfacet
facet normal -4.349325169970295e-16 1.1659503770660305e-15 1.0
  outer loop
    vertex 58.00000000000001 -126.00000000000016 162.99999999999997
    vertex 60.0 -131.00000000000014 162.99999999999997
    vertex 60.0 -124.00000000000016 162.99999999999997
  endloop
endfacet
facet normal -2.728343193970801e-33 8.741226270130656e-16 1.0
  outer loop
    vertex 5.000000000000002 -63.00000000000029 2.9999999999997202
    vertex 3.0 -5.000000000000284 2.9999999999996696
    vertex 3.0 -61.00000000000029 2.9999999999997202
  endloop
endfacet
facet normal -2.728343193970801e-33 8.741226270130656e-16 1.0
  outer loop
    vertex 3.0 -5.000000000000284 2.9999999999996696
    vertex 5.000000000000002 -63.00000000000029 2.9999999999997202
    vertex 5.000000000000002 -3.0000000000002878 2.9999999999996696
  endloop
endfacet
facet normal -2.728343193970801e-33 8.741226270130656e-16 1.0
  outer loop
    vertex 5.000000000000002 -3.0000000000002878 2.9999999999996696
    vertex 5.000000000000002 -63.00000000000029 2.9999999999997202
    vertex 36.0 -63.00000000000029 2.9999999999997202
  endloop
endfacet
facet normal -2.728343193970801e-33 8.741226270130656e-16 1.0
  outer loop
    vertex 5.000000000000002 -3.0000000000002878 2.9999999999996696
    vertex 36.0 -63.00000000000029 2.9999999999997202
    vertex 36.0 -3.0000000000002878 2.9999999999996696
  endloop
endfacet
facet normal -2.728343193970801e-33 8.741226270130656e-16 1.0
  outer loop
    vertex 36.0 -3.0000000000002878 2.9999999999996696
    vertex 36.0 -63.00000000000029 2.9999999999997202
    vertex 38.0 -61.00000000000029 2.9999999999997202
  endloop
endfacet
facet normal -2.728343193970801e-33 8.741226270130656e-16 1.0
  outer loop
    vertex 36.0 -3.0000000000002878 2.9999999999996696
    vertex 38.0 -61.00000000000029 2.9999999999997202
    vertex 38.0 -5.000000000000284 2.9999999999996696
  endloop
endfacet
facet normal -0.7037881072229277 -0.7037881072229278 0.09677086474315306
  outer loop
    vertex 60.0 -5.000000000000148 162.9999999999999
    vertex 36.0 -3.0000000000002878 2.9999999999996696
    vertex 38.0 -5.000000000000284 2.9999999999996696
  endloop
endfacet
facet normal -0.7037881072229277 -0.7037881072229278 0.09677086474315306
  outer loop
    vertex 36.0 -3.0000000000002878 2.9999999999996696
    vertex 60.0 -5.000000000000148 162.9999999999999
    vertex 58.00000000000001 -3.0000000000001523 162.9999999999999
  endloop
endfacet
facet normal 8.541849614470532e-31 -1.0 8.45989944764368e-16
  outer loop
    vertex 58.00000000000001 -3.0000000000001523 162.9999999999999
    vertex 5.000000000000002 -3.0000000000002878 2.9999999999996696
    vertex 36.0 -3.0000000000002878 2.9999999999996696
  endloop
endfacet
facet normal 8.541849614470532e-31 -1.0 8.45989944764368e-16
  outer loop
    vertex 5.000000000000002 -3.0000000000002878 2.9999999999996696
    vertex 58.00000000000001 -3.0000000000001523 162.9999999999999
    vertex 27.0 -3.0000000000001523 162.9999999999999
  endloop
endfacet
facet normal 0.7037881072229246 -0.7037881072229312 -0.09677086474315143
  outer loop
    vertex 27.0 -3.0000000000001523 162.9999999999999
    vertex 3.0 -5.000000000000284 2.9999999999996696
    vertex 5.000000000000002 -3.0000000000002878 2.9999999999996696
  endloop
endfacet
facet normal 0.7037881072229246 -0.7037881072229312 -0.09677086474315143
  outer loop
    vertex 3.0 -5.000000000000284 2.9999999999996696
    vertex 27.0 -3.0000000000001523 162.9999999999999
    vertex 25.0 -5.000000000000148 162.9999999999999
  endloop
endfacet
facet normal -0.990678839845296 1.414211984467932e-16 0.13621834047872805
  outer loop
    vertex 60.0 -61.000000000000156 162.99999999999991
    vertex 38.0 -5.000000000000284 2.9999999999996696
    vertex 38.0 -61.00000000000029 2.9999999999997202
  endloop
endfacet
facet normal -0.990678839845296 1.414211984467932e-16 0.13621834047872805
  outer loop
    vertex 38.0 -5.000000000000284 2.9999999999996696
    vertex 60.0 -61.000000000000156 162.99999999999991
    vertex 60.0 -5.000000000000148 162.9999999999999
  endloop
endfacet
facet normal -0.7037881072229278 0.7037881072229277 0.09677086474315189
  outer loop
    vertex 58.00000000000001 -63.000000000000156 162.99999999999991
    vertex 38.0 -61.00000000000029 2.9999999999997202
    vertex 36.0 -63.00000000000029 2.9999999999997202
  endloop
endfacet
facet normal -0.7037881072229278 0.7037881072229277 0.09677086474315189
  outer loop
    vertex 38.0 -61.00000000000029 2.9999999999997202
    vertex 58.00000000000001 -63.000000000000156 162.99999999999991
    vertex 60.0 -61.000000000000156 162.99999999999991
  endloop
endfacet
facet normal -1.2812774421705797e-30 1.0 -8.45989944764368e-16
  outer loop
    vertex 27.0 -63.000000000000156 162.99999999999991
    vertex 36.0 -63.00000000000029 2.9999999999997202
    vertex 5.000000000000002 -63.00000000000029 2.9999999999997202
  endloop
endfacet
facet normal -1.2812774421705797e-30 1.0 -8.45989944764368e-16
  outer loop
    vertex 36.0 -63.00000000000029 2.9999999999997202
    vertex 27.0 -63.000000000000156 162.99999999999991
    vertex 58.00000000000001 -63.000000000000156 162.99999999999991
  endloop
endfacet
facet normal 0.7037881072229246 0.703788107222931 -0.09677086474315258
  outer loop
    vertex 25.0 -61.000000000000156 162.99999999999991
    vertex 5.000000000000002 -63.00000000000029 2.9999999999997202
    vertex 3.0 -61.00000000000029 2.9999999999997202
  endloop
endfacet
facet normal 0.7037881072229246 0.703788107222931 -0.09677086474315258
  outer loop
    vertex 5.000000000000002 -63.00000000000029 2.9999999999997202
    vertex 25.0 -61.000000000000156 162.99999999999991
    vertex 27.0 -63.000000000000156 162.99999999999991
  endloop
endfacet
facet normal 0.990678839845296 -1.1879380669530662e-16 -0.13621834047872802
  outer loop
    vertex 3.0 -5.000000000000284 2.9999999999996696
    vertex 25.0 -61.000000000000156 162.99999999999991
    vertex 3.0 -61.00000000000029 2.9999999999997202
  endloop
endfacet
facet normal 0.990678839845296 -1.1879380669530662e-16 -0.13621834047872802
  outer loop
    vertex 25.0 -61.000000000000156 162.99999999999991
    vertex 3.0 -5.000000000000284 2.9999999999996696
    vertex 25.0 -5.000000000000148 162.9999999999999
  endloop
endfacet
facet normal -2.7283431939707248e-33 8.741226270130657e-16 1.0
  outer loop
    vertex 5.000000000000002 -126.00000000000028 2.9999999999997735
    vertex 3.0 -68.00000000000028 2.999999999999723
    vertex 3.0 -124.0000000000003 2.9999999999997735
  endloop
endfacet
facet normal -2.7283431939707248e-33 8.741226270130657e-16 1.0
  outer loop
    vertex 3.0 -68.00000000000028 2.999999999999723
    vertex 5.000000000000002 -126.00000000000028 2.9999999999997735
    vertex 5.000000000000002 -66.00000000000028 2.999999999999723
  endloop
endfacet
facet normal -2.7283431939707248e-33 8.741226270130657e-16 1.0
  outer loop
    vertex 5.000000000000002 -66.00000000000028 2.999999999999723
    vertex 5.000000000000002 -126.00000000000028 2.9999999999997735
    vertex 36.0 -126.00000000000028 2.9999999999997735
  endloop
endfacet
facet normal -2.7283431939707248e-33 8.741226270130657e-16 1.0
  outer loop
    vertex 5.000000000000002 -66.00000000000028 2.999999999999723
    vertex 36.0 -126.00000000000028 2.9999999999997735
    vertex 36.0 -66.00000000000028 2.999999999999723
  endloop
endfacet
facet normal -2.7283431939707248e-33 8.741226270130657e-16 1.0
  outer loop
    vertex 36.0 -66.00000000000028 2.999999999999723
    vertex 36.0 -126.00000000000028 2.9999999999997735
    vertex 38.0 -124.0000000000003 2.9999999999997735
  endloop
endfacet
facet normal -2.7283431939707248e-33 8.741226270130657e-16 1.0
  outer loop
    vertex 36.0 -66.00000000000028 2.999999999999723
    vertex 38.0 -124.0000000000003 2.9999999999997735
    vertex 38.0 -68.00000000000028 2.999999999999723
  endloop
endfacet
facet normal 0.7037881072229245 -0.7037881072229313 -0.09677086474315139
  outer loop
    vertex 27.0 -66.00000000000016 162.99999999999991
    vertex 3.0 -68.00000000000028 2.999999999999723
    vertex 5.000000000000002 -66.00000000000028 2.999999999999723
  endloop
endfacet
facet normal 0.7037881072229245 -0.7037881072229313 -0.09677086474315139
  outer loop
    vertex 3.0 -68.00000000000028 2.999999999999723
    vertex 27.0 -66.00000000000016 162.99999999999991
    vertex 25.0 -68.00000000000014 162.99999999999991
  endloop
endfacet
facet normal 0.7037881072229246 0.703788107222931 -0.09677086474315258
  outer loop
    vertex 25.0 -124.00000000000016 162.99999999999997
    vertex 5.000000000000002 -126.00000000000028 2.9999999999997735
    vertex 3.0 -124.0000000000003 2.9999999999997735
  endloop
endfacet
facet normal 0.7037881072229246 0.703788107222931 -0.09677086474315258
  outer loop
    vertex 5.000000000000002 -126.00000000000028 2.9999999999997735
    vertex 25.0 -124.00000000000016 162.99999999999997
    vertex 27.0 -126.00000000000016 162.99999999999997
  endloop
endfacet
facet normal -0.990678839845296 1.289761329834755e-16 0.13621834047872805
  outer loop
    vertex 60.0 -124.00000000000016 162.99999999999997
    vertex 38.0 -68.00000000000028 2.999999999999723
    vertex 38.0 -124.0000000000003 2.9999999999997735
  endloop
endfacet
facet normal -0.990678839845296 1.289761329834755e-16 0.13621834047872805
  outer loop
    vertex 38.0 -68.00000000000028 2.999999999999723
    vertex 60.0 -124.00000000000016 162.99999999999997
    vertex 60.0 -68.00000000000014 162.99999999999991
  endloop
endfacet
facet normal 1.28127744217058e-30 -1.0 8.45989944764368e-16
  outer loop
    vertex 58.00000000000001 -66.00000000000016 162.99999999999991
    vertex 5.000000000000002 -66.00000000000028 2.999999999999723
    vertex 36.0 -66.00000000000028 2.999999999999723
  endloop
endfacet
facet normal 1.28127744217058e-30 -1.0 8.45989944764368e-16
  outer loop
    vertex 5.000000000000002 -66.00000000000028 2.999999999999723
    vertex 58.00000000000001 -66.00000000000016 162.99999999999991
    vertex 27.0 -66.00000000000016 162.99999999999991
  endloop
endfacet
facet normal 0.990678839845296 -1.063487412319889e-16 -0.13621834047872802
  outer loop
    vertex 3.0 -68.00000000000028 2.999999999999723
    vertex 25.0 -124.00000000000016 162.99999999999997
    vertex 3.0 -124.0000000000003 2.9999999999997735
  endloop
endfacet
facet normal 0.990678839845296 -1.063487412319889e-16 -0.13621834047872802
  outer loop
    vertex 25.0 -124.00000000000016 162.99999999999997
    vertex 3.0 -68.00000000000028 2.999999999999723
    vertex 25.0 -68.00000000000014 162.99999999999991
  endloop
endfacet
facet normal -0.7037881072229278 0.7037881072229277 0.09677086474315189
  outer loop
    vertex 58.00000000000001 -126.00000000000016 162.99999999999997
    vertex 38.0 -124.0000000000003 2.9999999999997735
    vertex 36.0 -126.00000000000028 2.9999999999997735
  endloop
endfacet
facet normal -0.7037881072229278 0.7037881072229277 0.09677086474315189
  outer loop
    vertex 38.0 -124.0000000000003 2.9999999999997735
    vertex 58.00000000000001 -126.00000000000016 162.99999999999997
    vertex 60.0 -124.00000000000016 162.99999999999997
  endloop
endfacet
facet normal -1.2812774421705797e-30 1.0 -8.45989944764368e-16
  outer loop
    vertex 27.0 -126.00000000000016 162.99999999999997
    vertex 36.0 -126.00000000000028 2.9999999999997735
    vertex 5.000000000000002 -126.00000000000028 2.9999999999997735
  endloop
endfacet
facet normal -1.2812774421705797e-30 1.0 -8.45989944764368e-16
  outer loop
    vertex 36.0 -126.00000000000028 2.9999999999997735
    vertex 27.0 -126.00000000000016 162.99999999999997
    vertex 58.00000000000001 -126.00000000000016 162.99999999999997
  endloop
endfacet
facet normal -0.7037881072229275 -0.703788107222928 0.09677086474315302
  outer loop
    vertex 60.0 -68.00000000000014 162.99999999999991
    vertex 36.0 -66.00000000000028 2.999999999999723
    vertex 38.0 -68.00000000000028 2.999999999999723
  endloop
endfacet
facet normal -0.7037881072229275 -0.703788107222928 0.09677086474315302
  outer loop
    vertex 36.0 -66.00000000000028 2.999999999999723
    vertex 60.0 -68.00000000000014 162.99999999999991
    vertex 58.00000000000001 -66.00000000000016 162.99999999999991
  endloop
endfacet
facet normal 0.7037881072229268 -0.7037881072229288 -0.09677086474315172
  outer loop
    vertex 27.0 -129.00000000000014 162.99999999999997
    vertex 3.0 -131.00000000000028 2.999999999999775
    vertex 5.000000000000002 -129.00000000000028 2.999999999999775
  endloop
endfacet
facet normal 0.7037881072229268 -0.7037881072229288 -0.09677086474315172
  outer loop
    vertex 3.0 -131.00000000000028 2.999999999999775
    vertex 27.0 -129.00000000000014 162.99999999999997
    vertex 25.0 -131.00000000000014 162.99999999999997
  endloop
endfacet
facet normal -4.270924807235267e-31 1.0 -8.459899447643682e-16
  outer loop
    vertex 27.0 -189.00000000000014 163.00000000000003
    vertex 36.0 -189.00000000000028 2.9999999999998255
    vertex 5.000000000000002 -189.00000000000028 2.9999999999998255
  endloop
endfacet
facet normal -4.270924807235267e-31 1.0 -8.459899447643682e-16
  outer loop
    vertex 36.0 -189.00000000000028 2.9999999999998255
    vertex 27.0 -189.00000000000014 163.00000000000003
    vertex 58.00000000000001 -189.00000000000014 163.00000000000003
  endloop
endfacet
facet normal -0.7037881072229275 0.7037881072229282 0.09677086474315183
  outer loop
    vertex 58.00000000000001 -189.00000000000014 163.00000000000003
    vertex 38.0 -187.00000000000028 2.9999999999998255
    vertex 36.0 -189.00000000000028 2.9999999999998255
  endloop
endfacet
facet normal -0.7037881072229275 0.7037881072229282 0.09677086474315183
  outer loop
    vertex 38.0 -187.00000000000028 2.9999999999998255
    vertex 58.00000000000001 -189.00000000000014 163.00000000000003
    vertex 60.0 -187.00000000000014 163.00000000000003
  endloop
endfacet
facet normal -0.7037881072229235 -0.703788107222932 0.0967708647431525
  outer loop
    vertex 60.0 -131.00000000000014 162.99999999999997
    vertex 36.0 -129.00000000000028 2.999999999999775
    vertex 38.0 -131.00000000000028 2.999999999999775
  endloop
endfacet
facet normal -0.7037881072229235 -0.703788107222932 0.0967708647431525
  outer loop
    vertex 36.0 -129.00000000000028 2.999999999999775
    vertex 60.0 -131.00000000000014 162.99999999999997
    vertex 58.00000000000001 -129.00000000000014 162.99999999999997
  endloop
endfacet
facet normal -0.990678839845296 1.1766243710773211e-16 0.13621834047872805
  outer loop
    vertex 60.0 -187.00000000000014 163.00000000000003
    vertex 38.0 -131.00000000000028 2.999999999999775
    vertex 38.0 -187.00000000000028 2.9999999999998255
  endloop
endfacet
facet normal -0.990678839845296 1.1766243710773211e-16 0.13621834047872805
  outer loop
    vertex 38.0 -131.00000000000028 2.999999999999775
    vertex 60.0 -187.00000000000014 163.00000000000003
    vertex 60.0 -131.00000000000014 162.99999999999997
  endloop
endfacet
facet normal 4.270924807235268e-31 -1.0 8.459899447643682e-16
  outer loop
    vertex 58.00000000000001 -129.00000000000014 162.99999999999997
    vertex 5.000000000000002 -129.00000000000028 2.999999999999775
    vertex 36.0 -129.00000000000028 2.999999999999775
  endloop
endfacet
facet normal 4.270924807235268e-31 -1.0 8.459899447643682e-16
  outer loop
    vertex 5.000000000000002 -129.00000000000028 2.999999999999775
    vertex 58.00000000000001 -129.00000000000014 162.99999999999997
    vertex 27.0 -129.00000000000014 162.99999999999997
  endloop
endfacet
facet normal 0.7037881072229268 0.7037881072229287 -0.09677086474315291
  outer loop
    vertex 25.0 -187.00000000000014 163.00000000000003
    vertex 5.000000000000002 -189.00000000000028 2.9999999999998255
    vertex 3.0 -187.00000000000028 2.9999999999998255
  endloop
endfacet
facet normal 0.7037881072229268 0.7037881072229287 -0.09677086474315291
  outer loop
    vertex 5.000000000000002 -189.00000000000028 2.9999999999998255
    vertex 25.0 -187.00000000000014 163.00000000000003
    vertex 27.0 -189.00000000000014 163.00000000000003
  endloop
endfacet
facet normal 7.631700864342321e-47 8.741226270130657e-16 1.0
  outer loop
    vertex 5.000000000000002 -189.00000000000028 2.9999999999998255
    vertex 3.0 -131.00000000000028 2.999999999999775
    vertex 3.0 -187.00000000000028 2.9999999999998255
  endloop
endfacet
facet normal 7.631700864342321e-47 8.741226270130657e-16 1.0
  outer loop
    vertex 3.0 -131.00000000000028 2.999999999999775
    vertex 5.000000000000002 -189.00000000000028 2.9999999999998255
    vertex 5.000000000000002 -129.00000000000028 2.999999999999775
  endloop
endfacet
facet normal 7.631700864342321e-47 8.741226270130657e-16 1.0
  outer loop
    vertex 5.000000000000002 -129.00000000000028 2.999999999999775
    vertex 5.000000000000002 -189.00000000000028 2.9999999999998255
    vertex 36.0 -189.00000000000028 2.9999999999998255
  endloop
endfacet
facet normal 7.631700864342321e-47 8.741226270130657e-16 1.0
  outer loop
    vertex 5.000000000000002 -129.00000000000028 2.999999999999775
    vertex 36.0 -189.00000000000028 2.9999999999998255
    vertex 36.0 -129.00000000000028 2.999999999999775
  endloop
endfacet
facet normal 7.631700864342321e-47 8.741226270130657e-16 1.0
  outer loop
    vertex 36.0 -129.00000000000028 2.999999999999775
    vertex 36.0 -189.00000000000028 2.9999999999998255
    vertex 38.0 -187.00000000000028 2.9999999999998255
  endloop
endfacet
facet normal 7.631700864342321e-47 8.741226270130657e-16 1.0
  outer loop
    vertex 36.0 -129.00000000000028 2.999999999999775
    vertex 38.0 -187.00000000000028 2.9999999999998255
    vertex 38.0 -131.00000000000028 2.999999999999775
  endloop
endfacet
facet normal 0.990678839845296 -1.2897613298347553e-16 -0.13621834047872805
  outer loop
    vertex 3.0 -131.00000000000028 2.999999999999775
    vertex 25.0 -187.00000000000014 163.00000000000003
    vertex 3.0 -187.00000000000028 2.9999999999998255
  endloop
endfacet
facet normal 0.990678839845296 -1.2897613298347553e-16 -0.13621834047872805
  outer loop
    vertex 25.0 -187.00000000000014 163.00000000000003
    vertex 3.0 -131.00000000000028 2.999999999999775
    vertex 25.0 -131.00000000000014 162.99999999999997
  endloop
endfacet
facet normal -6.341627882756228e-47 -2.1252502463567512e-16 1.0
  outer loop
    vertex 48.653799142552614 -152.5000000000001 44.11853921856446
    vertex 46.653799142552614 -99.50000000000013 44.11853921856447
    vertex 46.653799142552614 -150.50000000000014 44.11853921856446
  endloop
endfacet
facet normal -6.341627882756228e-47 -2.1252502463567512e-16 1.0
  outer loop
    vertex 46.653799142552614 -99.50000000000013 44.11853921856447
    vertex 48.653799142552614 -152.5000000000001 44.11853921856446
    vertex 48.653799142552614 -97.50000000000013 44.11853921856447
  endloop
endfacet
facet normal -6.341627882756228e-47 -2.1252502463567512e-16 1.0
  outer loop
    vertex 48.653799142552614 -97.50000000000013 44.11853921856447
    vertex 48.653799142552614 -152.5000000000001 44.11853921856446
    vertex 69.65379914255261 -152.5000000000001 44.11853921856446
  endloop
endfacet
facet normal -6.341627882756228e-47 -2.1252502463567512e-16 1.0
  outer loop
    vertex 48.653799142552614 -97.50000000000013 44.11853921856447
    vertex 69.65379914255261 -152.5000000000001 44.11853921856446
    vertex 69.65379914255261 -97.50000000000013 44.11853921856447
  endloop
endfacet
facet normal -6.341627882756228e-47 -2.1252502463567512e-16 1.0
  outer loop
    vertex 69.65379914255261 -97.50000000000013 44.11853921856447
    vertex 69.65379914255261 -152.5000000000001 44.11853921856446
    vertex 71.65379914255261 -150.50000000000014 44.11853921856446
  endloop
endfacet
facet normal -6.341627882756228e-47 -2.1252502463567512e-16 1.0
  outer loop
    vertex 69.65379914255261 -97.50000000000013 44.11853921856447
    vertex 71.65379914255261 -150.50000000000014 44.11853921856446
    vertex 71.65379914255261 -99.50000000000013 44.11853921856447
  endloop
endfacet
facet normal 0.703788107222926 0.7037881072229296 -0.09677086474315214
  outer loop
    vertex 63.0 -150.50000000000014 163.00000000000003
    vertex 48.653799142552614 -152.5000000000001 44.11853921856446
    vertex 46.653799142552614 -150.50000000000014 44.11853921856446
  endloop
endfacet
facet normal 0.703788107222926 0.7037881072229296 -0.09677086474315214
  outer loop
    vertex 48.653799142552614 -152.5000000000001 44.11853921856446
    vertex 63.0 -150.50000000000014 163.00000000000003
    vertex 65.0 -152.50000000000014 163.00000000000003
  endloop
endfacet
facet normal 1.053655019444836e-31 1.0 1.897666104714125e-16
  outer loop
    vertex 65.0 -152.50000000000014 163.00000000000003
    vertex 69.65379914255261 -152.5000000000001 44.11853921856446
    vertex 48.653799142552614 -152.5000000000001 44.11853921856446
  endloop
endfacet
facet normal 1.053655019444836e-31 1.0 1.897666104714125e-16
  outer loop
    vertex 69.65379914255261 -152.5000000000001 44.11853921856446
    vertex 65.0 -152.50000000000014 163.00000000000003
    vertex 86.0 -152.50000000000014 163.00000000000003
  endloop
endfacet
facet normal -0.7037881072229277 0.7037881072229277 0.09677086474315265
  outer loop
    vertex 88.0 -150.50000000000014 163.00000000000003
    vertex 69.65379914255261 -152.5000000000001 44.11853921856446
    vertex 86.0 -152.50000000000014 163.00000000000003
  endloop
endfacet
facet normal -0.7037881072229277 0.7037881072229277 0.09677086474315265
  outer loop
    vertex 69.65379914255261 -152.5000000000001 44.11853921856446
    vertex 88.0 -150.50000000000014 163.00000000000003
    vertex 71.65379914255261 -150.50000000000014 44.11853921856446
  endloop
endfacet
facet normal 0.990678839845296 8.184486797308269e-18 -0.13621834047872816
  outer loop
    vertex 46.653799142552614 -150.50000000000014 44.11853921856446
    vertex 63.0 -99.50000000000013 163.00000000000003
    vertex 63.0 -150.50000000000014 163.00000000000003
  endloop
endfacet
facet normal 0.990678839845296 8.184486797308269e-18 -0.13621834047872816
  outer loop
    vertex 63.0 -99.50000000000013 163.00000000000003
    vertex 46.653799142552614 -150.50000000000014 44.11853921856446
    vertex 46.653799142552614 -99.50000000000013 44.11853921856447
  endloop
endfacet
facet normal 0.703788107222924 -0.7037881072229317 -0.09677086474315204
  outer loop
    vertex 65.0 -97.50000000000014 163.00000000000003
    vertex 46.653799142552614 -99.50000000000013 44.11853921856447
    vertex 48.653799142552614 -97.50000000000013 44.11853921856447
  endloop
endfacet
facet normal 0.703788107222924 -0.7037881072229317 -0.09677086474315204
  outer loop
    vertex 46.653799142552614 -99.50000000000013 44.11853921856447
    vertex 65.0 -97.50000000000014 163.00000000000003
    vertex 63.0 -99.50000000000013 163.00000000000003
  endloop
endfacet
facet normal -1.053655019444836e-31 -1.0 -1.897666104714125e-16
  outer loop
    vertex 86.0 -97.50000000000014 163.00000000000003
    vertex 48.653799142552614 -97.50000000000013 44.11853921856447
    vertex 69.65379914255261 -97.50000000000013 44.11853921856447
  endloop
endfacet
facet normal -1.053655019444836e-31 -1.0 -1.897666104714125e-16
  outer loop
    vertex 48.653799142552614 -97.50000000000013 44.11853921856447
    vertex 86.0 -97.50000000000014 163.00000000000003
    vertex 65.0 -97.50000000000014 163.00000000000003
  endloop
endfacet
facet normal -0.990678839845296 -1.364081132884736e-18 0.13621834047872816
  outer loop
    vertex 88.0 -99.50000000000014 163.00000000000003
    vertex 71.65379914255261 -150.50000000000014 44.11853921856446
    vertex 88.0 -150.50000000000014 163.00000000000003
  endloop
endfacet
facet normal -0.990678839845296 -1.364081132884736e-18 0.13621834047872816
  outer loop
    vertex 71.65379914255261 -150.50000000000014 44.11853921856446
    vertex 88.0 -99.50000000000014 163.00000000000003
    vertex 71.65379914255261 -99.50000000000013 44.11853921856447
  endloop
endfacet
facet normal -0.7037881072229278 -0.7037881072229278 0.09677086474315243
  outer loop
    vertex 86.0 -97.50000000000014 163.00000000000003
    vertex 71.65379914255261 -99.50000000000013 44.11853921856447
    vertex 88.0 -99.50000000000014 163.00000000000003
  endloop
endfacet
facet normal -0.7037881072229278 -0.7037881072229278 0.09677086474315243
  outer loop
    vertex 71.65379914255261 -99.50000000000013 44.11853921856447
    vertex 86.0 -97.50000000000014 163.00000000000003
    vertex 69.65379914255261 -97.50000000000013 44.11853921856447
  endloop
endfacet
facet normal 0.7037881072229284 -0.7037881072229272 -0.096770864743153
  outer loop
    vertex 48.653799142552565 -39.50000000000012 44.118539218564464
    vertex 63.0 -41.500000000000114 163.00000000000003
    vertex 46.653799142552565 -41.500000000000114 44.118539218564464
  endloop
endfacet
facet normal 0.7037881072229284 -0.7037881072229272 -0.096770864743153
  outer loop
    vertex 63.0 -41.500000000000114 163.00000000000003
    vertex 48.653799142552565 -39.50000000000012 44.118539218564464
    vertex 65.0 -39.50000000000014 163.00000000000003
  endloop
endfacet
facet normal -1.0536550194448354e-31 -1.0 -1.8976661047141247e-16
  outer loop
    vertex 86.0 -39.50000000000014 163.0
    vertex 48.653799142552565 -39.50000000000012 44.118539218564464
    vertex 69.65379914255257 -39.50000000000012 44.118539218564464
  endloop
endfacet
facet normal -1.0536550194448354e-31 -1.0 -1.8976661047141247e-16
  outer loop
    vertex 48.653799142552565 -39.50000000000012 44.118539218564464
    vertex 86.0 -39.50000000000014 163.0
    vertex 65.0 -39.50000000000014 163.00000000000003
  endloop
endfacet
facet normal -0.7037881072229252 0.7037881072229304 0.09677086474315257
  outer loop
    vertex 86.0 -94.50000000000014 162.99999999999991
    vertex 71.65379914255257 -92.50000000000013 44.11853921856437
    vertex 69.65379914255257 -94.50000000000011 44.11853921856437
  endloop
endfacet
facet normal -0.7037881072229252 0.7037881072229304 0.09677086474315257
  outer loop
    vertex 71.65379914255257 -92.50000000000013 44.11853921856437
    vertex 86.0 -94.50000000000014 162.99999999999991
    vertex 88.0 -92.50000000000014 162.99999999999994
  endloop
endfacet
facet normal 4.214620077779339e-31 1.0 1.8976661047141245e-16
  outer loop
    vertex 48.653799142552565 -94.50000000000011 44.11853921856439
    vertex 86.0 -94.50000000000014 162.99999999999991
    vertex 69.65379914255257 -94.50000000000011 44.11853921856437
  endloop
endfacet
facet normal 4.214620077779339e-31 1.0 1.8976661047141245e-16
  outer loop
    vertex 86.0 -94.50000000000014 162.99999999999991
    vertex 48.653799142552565 -94.50000000000011 44.11853921856439
    vertex 65.0 -94.50000000000014 162.99999999999994
  endloop
endfacet
facet normal -0.9906788398452958 -1.8142279067366622e-16 0.13621834047872852
  outer loop
    vertex 88.0 -41.500000000000135 163.0
    vertex 71.65379914255257 -92.50000000000013 44.11853921856437
    vertex 88.0 -92.50000000000014 162.99999999999994
  endloop
endfacet
facet normal -0.9906788398452958 -1.8142279067366622e-16 0.13621834047872852
  outer loop
    vertex 71.65379914255257 -92.50000000000013 44.11853921856437
    vertex 88.0 -41.500000000000135 163.0
    vertex 71.65379914255257 -41.500000000000114 44.118539218564464
  endloop
endfacet
facet normal 0.7037881072229272 0.7037881072229284 -0.09677086474315262
  outer loop
    vertex 63.0 -92.50000000000014 162.99999999999994
    vertex 48.653799142552565 -94.50000000000011 44.11853921856439
    vertex 46.653799142552565 -92.50000000000013 44.11853921856439
  endloop
endfacet
facet normal 0.7037881072229272 0.7037881072229284 -0.09677086474315262
  outer loop
    vertex 48.653799142552565 -94.50000000000011 44.11853921856439
    vertex 63.0 -92.50000000000014 162.99999999999994
    vertex 65.0 -94.50000000000014 162.99999999999994
  endloop
endfacet
facet normal -0.7037881072229205 -0.7037881072229352 0.09677086474315168
  outer loop
    vertex 88.0 -41.500000000000135 163.0
    vertex 69.65379914255257 -39.50000000000012 44.118539218564464
    vertex 71.65379914255257 -41.500000000000114 44.118539218564464
  endloop
endfacet
facet normal -0.7037881072229205 -0.7037881072229352 0.09677086474315168
  outer loop
    vertex 69.65379914255257 -39.50000000000012 44.118539218564464
    vertex 88.0 -41.500000000000135 163.0
    vertex 86.0 -39.50000000000014 163.0
  endloop
endfacet
facet normal 0.9906788398452958 1.8824319633808995e-16 -0.13621834047872855
  outer loop
    vertex 46.653799142552565 -92.50000000000013 44.11853921856439
    vertex 63.0 -41.500000000000114 163.00000000000003
    vertex 63.0 -92.50000000000014 162.99999999999994
  endloop
endfacet
facet normal 0.9906788398452958 1.8824319633808995e-16 -0.13621834047872855
  outer loop
    vertex 63.0 -41.500000000000114 163.00000000000003
    vertex 46.653799142552565 -92.50000000000013 44.11853921856439
    vertex 46.653799142552565 -41.500000000000114 44.118539218564464
  endloop
endfacet
facet normal 4.349325169970295e-16 -2.1252502463567512e-16 1.0
  outer loop
    vertex 48.653799142552565 -94.50000000000011 44.11853921856439
    vertex 46.653799142552565 -41.500000000000114 44.118539218564464
    vertex 46.653799142552565 -92.50000000000013 44.11853921856439
  endloop
endfacet
facet normal 4.349325169970295e-16 -2.1252502463567512e-16 1.0
  outer loop
    vertex 46.653799142552565 -41.500000000000114 44.118539218564464
    vertex 48.653799142552565 -94.50000000000011 44.11853921856439
    vertex 48.653799142552565 -39.50000000000012 44.118539218564464
  endloop
endfacet
facet normal 4.349325169970295e-16 -2.1252502463567512e-16 1.0
  outer loop
    vertex 48.653799142552565 -39.50000000000012 44.118539218564464
    vertex 48.653799142552565 -94.50000000000011 44.11853921856439
    vertex 69.65379914255257 -94.50000000000011 44.11853921856437
  endloop
endfacet
facet normal 4.349325169970295e-16 -2.1252502463567512e-16 1.0
  outer loop
    vertex 48.653799142552565 -39.50000000000012 44.118539218564464
    vertex 69.65379914255257 -94.50000000000011 44.11853921856437
    vertex 69.65379914255257 -39.50000000000012 44.118539218564464
  endloop
endfacet
facet normal 4.349325169970295e-16 -2.1252502463567512e-16 1.0
  outer loop
    vertex 69.65379914255257 -39.50000000000012 44.118539218564464
    vertex 69.65379914255257 -94.50000000000011 44.11853921856437
    vertex 71.65379914255257 -92.50000000000013 44.11853921856437
  endloop
endfacet
facet normal 4.349325169970295e-16 -2.1252502463567512e-16 1.0
  outer loop
    vertex 69.65379914255257 -39.50000000000012 44.118539218564464
    vertex 71.65379914255257 -92.50000000000013 44.11853921856437
    vertex 71.65379914255257 -41.500000000000114 44.118539218564464
  endloop
endfacet
facet normal -3.1928056476424333e-16 -2.927570833414349e-16 -1.0
  outer loop
    vertex 48.24514412111643 -36.50000000000013 41.14650269902857
    vertex 46.24514412111643 -36.50000000000013 41.14650269902857
    vertex 46.24514412111643 -34.50000000000012 41.14650269902857
  endloop
endfacet
facet normal -3.1928056476424333e-16 -2.927570833414349e-16 -1.0
  outer loop
    vertex 46.24514412111643 -36.50000000000013 41.14650269902857
    vertex 48.24514412111643 -36.50000000000013 41.14650269902857
    vertex 46.24514412111644 -157.5000000000002 41.146502699028595
  endloop
endfacet
facet normal -3.1928056476424333e-16 -2.927570833414349e-16 -1.0
  outer loop
    vertex 46.24514412111644 -157.5000000000002 41.146502699028595
    vertex 48.24514412111643 -36.50000000000013 41.14650269902857
    vertex 48.24514412111644 -155.5000000000002 41.146502699028595
  endloop
endfacet
facet normal -3.1928056476424333e-16 -2.927570833414349e-16 -1.0
  outer loop
    vertex 48.24514412111644 -155.5000000000002 41.146502699028595
    vertex 48.24514412111643 -36.50000000000013 41.14650269902857
    vertex 72.26097691370866 -36.50000000000012 41.146502699028545
  endloop
endfacet
facet normal -3.1928056476424333e-16 -2.927570833414349e-16 -1.0
  outer loop
    vertex 48.24514412111644 -155.5000000000002 41.146502699028595
    vertex 72.26097691370866 -36.50000000000012 41.146502699028545
    vertex 72.26097691370866 -155.5000000000002 41.146502699028595
  endloop
endfacet
facet normal -3.1928056476424333e-16 -2.927570833414349e-16 -1.0
  outer loop
    vertex 72.26097691370866 -155.5000000000002 41.146502699028595
    vertex 72.26097691370866 -36.50000000000012 41.146502699028545
    vertex 74.26097691370866 -38.50000000000012 41.146502699028545
  endloop
endfacet
facet normal -3.1928056476424333e-16 -2.927570833414349e-16 -1.0
  outer loop
    vertex 72.26097691370866 -155.5000000000002 41.146502699028595
    vertex 74.26097691370866 -38.50000000000012 41.146502699028545
    vertex 74.26097691370866 -153.5000000000002 41.146502699028595
  endloop
endfacet
endsolid RemoteHolder
