solid Endcap
facet normal -0.9238795325112868 0.38268343236508967 0.0
  outer loop
    vertex -39.744622425489325 166.3273202073294 0.0
    vertex -44.24014143819766 155.4741772369428 -10.0
    vertex -44.24014143819766 155.4741772369428 0.0
  endloop
endfacet
facet normal -0.9238795325112868 0.38268343236508967 0.0
  outer loop
    vertex -44.24014143819766 155.4741772369428 -10.0
    vertex -39.744622425489325 166.3273202073294 0.0
    vertex -39.744622425489325 166.3273202073294 -10.0
  endloop
endfacet
facet normal -0.923879532511287 -0.3826834323650896 -0.0
  outer loop
    vertex -44.24014143819767 132.18046317771595 0.0
    vertex -39.74462242548934 121.32732020732938 -10.0
    vertex -39.74462242548934 121.32732020732938 0.0
  endloop
endfacet
facet normal -0.923879532511287 -0.3826834323650896 -0.0
  outer loop
    vertex -39.74462242548934 121.32732020732938 -10.0
    vertex -44.24014143819767 132.18046317771595 0.0
    vertex -44.24014143819767 132.18046317771595 -10.0
  endloop
endfacet
facet normal 0.7933533402912348 0.6087614290087213 0.0
  outer loop
    vertex 31.046325898205055 175.647125360724 -10.0
    vertex 38.197663915110155 166.32732020732936 0.0
    vertex 38.197663915110155 166.32732020732936 -10.0
  endloop
endfacet
facet normal 0.7933533402912348 0.6087614290087213 0.0
  outer loop
    vertex 38.197663915110155 166.32732020732936 0.0
    vertex 31.046325898205055 175.647125360724 -10.0
    vertex 31.046325898205055 175.647125360724 0.0
  endloop
endfacet
facet normal -0.7933533402912358 -0.6087614290087201 -0.0
  outer loop
    vertex -39.74462242548934 121.32732020732938 0.0
    vertex -32.593284408584246 112.00751505393474 -10.0
    vertex -32.593284408584246 112.00751505393474 0.0
  endloop
endfacet
facet normal -0.7933533402912358 -0.6087614290087201 -0.0
  outer loop
    vertex -32.593284408584246 112.00751505393474 -10.0
    vertex -39.74462242548934 121.32732020732938 0.0
    vertex -39.74462242548934 121.32732020732938 -10.0
  endloop
endfacet
facet normal 0.13052619222005216 0.9914448613738105 0.0
  outer loop
    vertex -0.7734792551895882 188.82732020732936 0.0
    vertex 10.873377774423853 187.29398239033745 -10.0
    vertex -0.7734792551895882 188.82732020732936 -10.0
  endloop
endfacet
facet normal 0.13052619222005216 0.9914448613738105 0.0
  outer loop
    vertex 10.873377774423853 187.29398239033745 -10.0
    vertex -0.7734792551895882 188.82732020732936 0.0
    vertex 10.873377774423853 187.29398239033745 0.0
  endloop
endfacet
facet normal 0.3826834323650902 0.9238795325112866 0.0
  outer loop
    vertex 10.873377774423853 187.29398239033745 0.0
    vertex 21.726520744810415 182.7984633776291 -10.0
    vertex 10.873377774423853 187.29398239033745 -10.0
  endloop
endfacet
facet normal 0.3826834323650902 0.9238795325112866 0.0
  outer loop
    vertex 21.726520744810415 182.7984633776291 -10.0
    vertex 10.873377774423853 187.29398239033745 0.0
    vertex 21.726520744810415 182.7984633776291 0.0
  endloop
endfacet
facet normal -0.6087614290087207 0.7933533402912353 0.0
  outer loop
    vertex -32.59328440858423 175.647125360724 0.0
    vertex -23.27347925518958 182.79846337762913 -10.0
    vertex -32.59328440858423 175.647125360724 -10.0
  endloop
endfacet
facet normal -0.6087614290087207 0.7933533402912353 0.0
  outer loop
    vertex -23.27347925518958 182.79846337762913 -10.0
    vertex -32.59328440858423 175.647125360724 0.0
    vertex -23.27347925518958 182.79846337762913 0.0
  endloop
endfacet
facet normal -0.9914448613738105 0.13052619222005163 0.0
  outer loop
    vertex -44.24014143819766 155.4741772369428 0.0
    vertex -45.77347925518959 143.82732020732936 -10.0
    vertex -45.77347925518959 143.82732020732936 0.0
  endloop
endfacet
facet normal -0.9914448613738105 0.13052619222005163 0.0
  outer loop
    vertex -45.77347925518959 143.82732020732936 -10.0
    vertex -44.24014143819766 155.4741772369428 0.0
    vertex -44.24014143819766 155.4741772369428 -10.0
  endloop
endfacet
facet normal -0.9914448613738106 -0.1305261922200514 -0.0
  outer loop
    vertex -45.77347925518959 143.82732020732936 0.0
    vertex -44.24014143819767 132.18046317771595 -10.0
    vertex -44.24014143819767 132.18046317771595 0.0
  endloop
endfacet
facet normal -0.9914448613738106 -0.1305261922200514 -0.0
  outer loop
    vertex -44.24014143819767 132.18046317771595 -10.0
    vertex -45.77347925518959 143.82732020732936 0.0
    vertex -45.77347925518959 143.82732020732936 -10.0
  endloop
endfacet
facet normal -0.3826834323650887 0.9238795325112874 0.0
  outer loop
    vertex -23.27347925518958 182.79846337762913 0.0
    vertex -12.42033628480302 187.29398239033745 -10.0
    vertex -23.27347925518958 182.79846337762913 -10.0
  endloop
endfacet
facet normal -0.3826834323650887 0.9238795325112874 0.0
  outer loop
    vertex -12.42033628480302 187.29398239033745 -10.0
    vertex -23.27347925518958 182.79846337762913 0.0
    vertex -12.42033628480302 187.29398239033745 0.0
  endloop
endfacet
facet normal -0.13052619222005227 0.9914448613738105 0.0
  outer loop
    vertex -12.42033628480302 187.29398239033745 0.0
    vertex -0.7734792551895882 188.82732020732936 -10.0
    vertex -12.42033628480302 187.29398239033745 -10.0
  endloop
endfacet
facet normal -0.13052619222005227 0.9914448613738105 0.0
  outer loop
    vertex -0.7734792551895882 188.82732020732936 -10.0
    vertex -12.42033628480302 187.29398239033745 0.0
    vertex -0.7734792551895882 188.82732020732936 0.0
  endloop
endfacet
facet normal -0.793353340291235 0.608761429008721 0.0
  outer loop
    vertex -32.59328440858423 175.647125360724 0.0
    vertex -39.744622425489325 166.3273202073294 -10.0
    vertex -39.744622425489325 166.3273202073294 0.0
  endloop
endfacet
facet normal -0.793353340291235 0.608761429008721 0.0
  outer loop
    vertex -39.744622425489325 166.3273202073294 -10.0
    vertex -32.59328440858423 175.647125360724 0.0
    vertex -32.59328440858423 175.647125360724 -10.0
  endloop
endfacet
facet normal 0.6087614290087211 0.793353340291235 0.0
  outer loop
    vertex 21.726520744810415 182.7984633776291 0.0
    vertex 31.046325898205055 175.647125360724 -10.0
    vertex 21.726520744810415 182.7984633776291 -10.0
  endloop
endfacet
facet normal 0.6087614290087211 0.793353340291235 0.0
  outer loop
    vertex 31.046325898205055 175.647125360724 -10.0
    vertex 21.726520744810415 182.7984633776291 0.0
    vertex 31.046325898205055 175.647125360724 0.0
  endloop
endfacet
facet normal -0.6087614290087211 -0.7933533402912348 -0.0
  outer loop
    vertex -23.27347925518961 104.85617703702964 0.0
    vertex -32.593284408584246 112.00751505393474 -10.0
    vertex -23.27347925518961 104.85617703702964 -10.0
  endloop
endfacet
facet normal -0.6087614290087211 -0.7933533402912348 -0.0
  outer loop
    vertex -32.593284408584246 112.00751505393474 -10.0
    vertex -23.27347925518961 104.85617703702964 0.0
    vertex -32.593284408584246 112.00751505393474 0.0
  endloop
endfacet
facet normal 0.13052619222005238 -0.9914448613738105 0.0
  outer loop
    vertex 10.873377774423822 100.3606580243213 0.0
    vertex -0.7734792551895991 98.82732020732936 -10.0
    vertex 10.873377774423822 100.3606580243213 -10.0
  endloop
endfacet
facet normal 0.13052619222005238 -0.9914448613738105 0.0
  outer loop
    vertex -0.7734792551895991 98.82732020732936 -10.0
    vertex 10.873377774423822 100.3606580243213 0.0
    vertex -0.7734792551895991 98.82732020732936 0.0
  endloop
endfacet
facet normal -0.13052619222005196 -0.9914448613738105 -0.0
  outer loop
    vertex -0.7734792551895991 98.82732020732936 0.0
    vertex -12.420336284803058 100.3606580243213 -10.0
    vertex -0.7734792551895991 98.82732020732936 -10.0
  endloop
endfacet
facet normal -0.13052619222005196 -0.9914448613738105 -0.0
  outer loop
    vertex -12.420336284803058 100.3606580243213 -10.0
    vertex -0.7734792551895991 98.82732020732936 0.0
    vertex -12.420336284803058 100.3606580243213 0.0
  endloop
endfacet
facet normal -0.38268343236509056 -0.9238795325112866 -0.0
  outer loop
    vertex -12.420336284803058 100.3606580243213 0.0
    vertex -23.27347925518961 104.85617703702964 -10.0
    vertex -12.420336284803058 100.3606580243213 -10.0
  endloop
endfacet
facet normal -0.38268343236509056 -0.9238795325112866 -0.0
  outer loop
    vertex -23.27347925518961 104.85617703702964 -10.0
    vertex -12.420336284803058 100.3606580243213 0.0
    vertex -23.27347925518961 104.85617703702964 0.0
  endloop
endfacet
facet normal 0.3826834323650889 -0.9238795325112872 0.0
  outer loop
    vertex 21.726520744810376 104.85617703702961 0.0
    vertex 10.873377774423822 100.3606580243213 -10.0
    vertex 21.726520744810376 104.85617703702961 -10.0
  endloop
endfacet
facet normal 0.3826834323650889 -0.9238795325112872 0.0
  outer loop
    vertex 10.873377774423822 100.3606580243213 -10.0
    vertex 21.726520744810376 104.85617703702961 0.0
    vertex 10.873377774423822 100.3606580243213 0.0
  endloop
endfacet
facet normal 0.7933533402912352 -0.6087614290087207 0.0
  outer loop
    vertex 38.19766391511014 121.32732020732934 -10.0
    vertex 31.046325898205048 112.00751505393471 0.0
    vertex 31.046325898205048 112.00751505393471 -10.0
  endloop
endfacet
facet normal 0.7933533402912352 -0.6087614290087207 0.0
  outer loop
    vertex 31.046325898205048 112.00751505393471 0.0
    vertex 38.19766391511014 121.32732020732934 -10.0
    vertex 38.19766391511014 121.32732020732934 0.0
  endloop
endfacet
facet normal 0.9914448613738105 0.13052619222005113 0.0
  outer loop
    vertex 42.69318292781849 155.4741772369428 -10.0
    vertex 44.22652074481041 143.82732020732936 0.0
    vertex 44.22652074481041 143.82732020732936 -10.0
  endloop
endfacet
facet normal 0.9914448613738105 0.13052619222005113 0.0
  outer loop
    vertex 44.22652074481041 143.82732020732936 0.0
    vertex 42.69318292781849 155.4741772369428 -10.0
    vertex 42.69318292781849 155.4741772369428 0.0
  endloop
endfacet
facet normal 0.9238795325112866 -0.3826834323650904 0.0
  outer loop
    vertex 42.69318292781848 132.1804631777159 -10.0
    vertex 38.19766391511014 121.32732020732934 0.0
    vertex 38.19766391511014 121.32732020732934 -10.0
  endloop
endfacet
facet normal 0.9238795325112866 -0.3826834323650904 0.0
  outer loop
    vertex 38.19766391511014 121.32732020732934 0.0
    vertex 42.69318292781848 132.1804631777159 -10.0
    vertex 42.69318292781848 132.1804631777159 0.0
  endloop
endfacet
facet normal 0.6087614290087197 -0.7933533402912359 0.0
  outer loop
    vertex 31.046325898205048 112.00751505393471 0.0
    vertex 21.726520744810376 104.85617703702961 -10.0
    vertex 31.046325898205048 112.00751505393471 -10.0
  endloop
endfacet
facet normal 0.6087614290087197 -0.7933533402912359 0.0
  outer loop
    vertex 21.726520744810376 104.85617703702961 -10.0
    vertex 31.046325898205048 112.00751505393471 0.0
    vertex 21.726520744810376 104.85617703702961 0.0
  endloop
endfacet
facet normal 0.9238795325112868 0.38268343236509 0.0
  outer loop
    vertex 38.197663915110155 166.32732020732936 -10.0
    vertex 42.69318292781849 155.4741772369428 0.0
    vertex 42.69318292781849 155.4741772369428 -10.0
  endloop
endfacet
facet normal 0.9238795325112868 0.38268343236509 0.0
  outer loop
    vertex 42.69318292781849 155.4741772369428 0.0
    vertex 38.197663915110155 166.32732020732936 -10.0
    vertex 38.197663915110155 166.32732020732936 0.0
  endloop
endfacet
facet normal 0.0 0.0 -1.0
  outer loop
    vertex -44.24014143819766 155.4741772369428 -10.0
    vertex -44.24014143819767 132.18046317771595 -10.0
    vertex -45.77347925518959 143.82732020732936 -10.0
  endloop
endfacet
facet normal 0.0 0.0 -1.0
  outer loop
    vertex -44.24014143819767 132.18046317771595 -10.0
    vertex -44.24014143819766 155.4741772369428 -10.0
    vertex -39.74462242548934 121.32732020732938 -10.0
  endloop
endfacet
facet normal 0.0 0.0 -1.0
  outer loop
    vertex -39.74462242548934 121.32732020732938 -10.0
    vertex -44.24014143819766 155.4741772369428 -10.0
    vertex -39.744622425489325 166.3273202073294 -10.0
  endloop
endfacet
facet normal 0.0 0.0 -1.0
  outer loop
    vertex -39.74462242548934 121.32732020732938 -10.0
    vertex -39.744622425489325 166.3273202073294 -10.0
    vertex -32.593284408584246 112.00751505393474 -10.0
  endloop
endfacet
facet normal 0.0 0.0 -1.0
  outer loop
    vertex -32.593284408584246 112.00751505393474 -10.0
    vertex -39.744622425489325 166.3273202073294 -10.0
    vertex -32.59328440858423 175.647125360724 -10.0
  endloop
endfacet
facet normal 0.0 0.0 -1.0
  outer loop
    vertex -32.593284408584246 112.00751505393474 -10.0
    vertex -32.59328440858423 175.647125360724 -10.0
    vertex -23.27347925518961 104.85617703702964 -10.0
  endloop
endfacet
facet normal 0.0 0.0 -1.0
  outer loop
    vertex -23.27347925518961 104.85617703702964 -10.0
    vertex -32.59328440858423 175.647125360724 -10.0
    vertex -23.27347925518958 182.79846337762913 -10.0
  endloop
endfacet
facet normal 0.0 0.0 -1.0
  outer loop
    vertex -23.27347925518961 104.85617703702964 -10.0
    vertex -23.27347925518958 182.79846337762913 -10.0
    vertex -12.420336284803058 100.3606580243213 -10.0
  endloop
endfacet
facet normal 0.0 0.0 -1.0
  outer loop
    vertex -12.420336284803058 100.3606580243213 -10.0
    vertex -23.27347925518958 182.79846337762913 -10.0
    vertex -12.42033628480302 187.29398239033745 -10.0
  endloop
endfacet
facet normal 0.0 0.0 -1.0
  outer loop
    vertex -12.420336284803058 100.3606580243213 -10.0
    vertex -12.42033628480302 187.29398239033745 -10.0
    vertex -0.7734792551895991 98.82732020732936 -10.0
  endloop
endfacet
facet normal 0.0 0.0 -1.0
  outer loop
    vertex -0.7734792551895991 98.82732020732936 -10.0
    vertex -12.42033628480302 187.29398239033745 -10.0
    vertex -0.7734792551895882 188.82732020732936 -10.0
  endloop
endfacet
facet normal 0.0 0.0 -1.0
  outer loop
    vertex -0.7734792551895991 98.82732020732936 -10.0
    vertex -0.7734792551895882 188.82732020732936 -10.0
    vertex 10.873377774423822 100.3606580243213 -10.0
  endloop
endfacet
facet normal 0.0 0.0 -1.0
  outer loop
    vertex 10.873377774423822 100.3606580243213 -10.0
    vertex -0.7734792551895882 188.82732020732936 -10.0
    vertex 10.873377774423853 187.29398239033745 -10.0
  endloop
endfacet
facet normal 0.0 0.0 -1.0
  outer loop
    vertex 10.873377774423822 100.3606580243213 -10.0
    vertex 10.873377774423853 187.29398239033745 -10.0
    vertex 21.726520744810376 104.85617703702961 -10.0
  endloop
endfacet
facet normal 0.0 0.0 -1.0
  outer loop
    vertex 21.726520744810376 104.85617703702961 -10.0
    vertex 10.873377774423853 187.29398239033745 -10.0
    vertex 21.726520744810415 182.7984633776291 -10.0
  endloop
endfacet
facet normal 0.0 0.0 -1.0
  outer loop
    vertex 21.726520744810376 104.85617703702961 -10.0
    vertex 21.726520744810415 182.7984633776291 -10.0
    vertex 31.046325898205048 112.00751505393471 -10.0
  endloop
endfacet
facet normal 0.0 0.0 -1.0
  outer loop
    vertex 31.046325898205048 112.00751505393471 -10.0
    vertex 21.726520744810415 182.7984633776291 -10.0
    vertex 31.046325898205055 175.647125360724 -10.0
  endloop
endfacet
facet normal 0.0 0.0 -1.0
  outer loop
    vertex 31.046325898205048 112.00751505393471 -10.0
    vertex 31.046325898205055 175.647125360724 -10.0
    vertex 38.19766391511014 121.32732020732934 -10.0
  endloop
endfacet
facet normal 0.0 0.0 -1.0
  outer loop
    vertex 38.19766391511014 121.32732020732934 -10.0
    vertex 31.046325898205055 175.647125360724 -10.0
    vertex 38.197663915110155 166.32732020732936 -10.0
  endloop
endfacet
facet normal 0.0 0.0 -1.0
  outer loop
    vertex 38.19766391511014 121.32732020732934 -10.0
    vertex 38.197663915110155 166.32732020732936 -10.0
    vertex 42.69318292781848 132.1804631777159 -10.0
  endloop
endfacet
facet normal 0.0 0.0 -1.0
  outer loop
    vertex 42.69318292781848 132.1804631777159 -10.0
    vertex 38.197663915110155 166.32732020732936 -10.0
    vertex 42.69318292781849 155.4741772369428 -10.0
  endloop
endfacet
facet normal 0.0 0.0 -1.0
  outer loop
    vertex 42.69318292781848 132.1804631777159 -10.0
    vertex 42.69318292781849 155.4741772369428 -10.0
    vertex 44.22652074481041 143.82732020732936 -10.0
  endloop
endfacet
facet normal 0.9914448613738104 -0.13052619222005182 0.0
  outer loop
    vertex 44.22652074481041 143.82732020732936 -10.0
    vertex 42.69318292781848 132.1804631777159 0.0
    vertex 42.69318292781848 132.1804631777159 -10.0
  endloop
endfacet
facet normal 0.9914448613738104 -0.13052619222005182 0.0
  outer loop
    vertex 42.69318292781848 132.1804631777159 0.0
    vertex 44.22652074481041 143.82732020732936 -10.0
    vertex 44.22652074481041 143.82732020732936 0.0
  endloop
endfacet
facet normal -0.6087614290087205 -0.7933533402912353 -0.0
  outer loop
    vertex -19.27347925518958 111.78438026730512 10.0
    vertex -26.936430159091834 117.6643693034271 0.0
    vertex -19.27347925518958 111.78438026730512 0.0
  endloop
endfacet
facet normal -0.6087614290087205 -0.7933533402912353 -0.0
  outer loop
    vertex -26.936430159091834 117.6643693034271 0.0
    vertex -19.27347925518958 111.78438026730512 10.0
    vertex -26.936430159091834 117.6643693034271 10.0
  endloop
endfacet
facet normal -0.3826834323650897 -0.9238795325112867 -0.0
  outer loop
    vertex -10.349783923982846 108.08806463463382 10.0
    vertex -19.27347925518958 111.78438026730512 0.0
    vertex -10.349783923982846 108.08806463463382 0.0
  endloop
endfacet
facet normal -0.3826834323650897 -0.9238795325112867 -0.0
  outer loop
    vertex -19.27347925518958 111.78438026730512 0.0
    vertex -10.349783923982846 108.08806463463382 10.0
    vertex -19.27347925518958 111.78438026730512 10.0
  endloop
endfacet
facet normal -0.7933533402912354 -0.6087614290087205 -0.0
  outer loop
    vertex -32.81641919521381 125.32732020732935 10.0
    vertex -26.936430159091834 117.6643693034271 0.0
    vertex -26.936430159091834 117.6643693034271 10.0
  endloop
endfacet
facet normal -0.7933533402912354 -0.6087614290087205 -0.0
  outer loop
    vertex -26.936430159091834 117.6643693034271 0.0
    vertex -32.81641919521381 125.32732020732935 10.0
    vertex -32.81641919521381 125.32732020732935 0.0
  endloop
endfacet
facet normal -0.9238795325112867 -0.3826834323650902 -0.0
  outer loop
    vertex -36.51273482788511 134.25101553853608 10.0
    vertex -32.81641919521381 125.32732020732935 0.0
    vertex -32.81641919521381 125.32732020732935 10.0
  endloop
endfacet
facet normal -0.9238795325112867 -0.3826834323650902 -0.0
  outer loop
    vertex -32.81641919521381 125.32732020732935 0.0
    vertex -36.51273482788511 134.25101553853608 10.0
    vertex -36.51273482788511 134.25101553853608 0.0
  endloop
endfacet
facet normal -0.9914448613738105 -0.1305261922200521 -0.0
  outer loop
    vertex -37.77347925518959 143.82732020732936 10.0
    vertex -36.51273482788511 134.25101553853608 0.0
    vertex -36.51273482788511 134.25101553853608 10.0
  endloop
endfacet
facet normal -0.9914448613738105 -0.1305261922200521 -0.0
  outer loop
    vertex -36.51273482788511 134.25101553853608 0.0
    vertex -37.77347925518959 143.82732020732936 10.0
    vertex -37.77347925518959 143.82732020732936 0.0
  endloop
endfacet
facet normal -0.9914448613738106 0.13052619222005124 0.0
  outer loop
    vertex -36.51273482788512 153.40362487612262 10.0
    vertex -37.77347925518959 143.82732020732936 0.0
    vertex -37.77347925518959 143.82732020732936 10.0
  endloop
endfacet
facet normal -0.9914448613738106 0.13052619222005124 0.0
  outer loop
    vertex -37.77347925518959 143.82732020732936 0.0
    vertex -36.51273482788512 153.40362487612262 10.0
    vertex -36.51273482788512 153.40362487612262 0.0
  endloop
endfacet
facet normal -0.9238795325112867 0.38268343236509 0.0
  outer loop
    vertex -32.81641919521383 162.32732020732934 10.0
    vertex -36.51273482788512 153.40362487612262 0.0
    vertex -36.51273482788512 153.40362487612262 10.0
  endloop
endfacet
facet normal -0.9238795325112867 0.38268343236509 0.0
  outer loop
    vertex -36.51273482788512 153.40362487612262 0.0
    vertex -32.81641919521383 162.32732020732934 10.0
    vertex -32.81641919521383 162.32732020732934 0.0
  endloop
endfacet
facet normal -0.7933533402912359 0.6087614290087198 0.0
  outer loop
    vertex -26.936430159091852 169.99027111123164 10.0
    vertex -32.81641919521383 162.32732020732934 0.0
    vertex -32.81641919521383 162.32732020732934 10.0
  endloop
endfacet
facet normal -0.7933533402912359 0.6087614290087198 0.0
  outer loop
    vertex -32.81641919521383 162.32732020732934 0.0
    vertex -26.936430159091852 169.99027111123164 10.0
    vertex -26.936430159091852 169.99027111123164 0.0
  endloop
endfacet
facet normal -0.6087614290087209 0.7933533402912349 0.0
  outer loop
    vertex -26.936430159091852 169.99027111123164 10.0
    vertex -19.273479255189606 175.87026014735358 0.0
    vertex -26.936430159091852 169.99027111123164 0.0
  endloop
endfacet
facet normal -0.6087614290087209 0.7933533402912349 0.0
  outer loop
    vertex -19.273479255189606 175.87026014735358 0.0
    vertex -26.936430159091852 169.99027111123164 10.0
    vertex -19.273479255189606 175.87026014735358 10.0
  endloop
endfacet
facet normal -0.3826834323650903 0.9238795325112866 0.0
  outer loop
    vertex -19.273479255189606 175.87026014735358 10.0
    vertex -10.349783923982885 179.5665757800249 0.0
    vertex -19.273479255189606 175.87026014735358 0.0
  endloop
endfacet
facet normal -0.3826834323650903 0.9238795325112866 0.0
  outer loop
    vertex -10.349783923982885 179.5665757800249 0.0
    vertex -19.273479255189606 175.87026014735358 10.0
    vertex -10.349783923982885 179.5665757800249 10.0
  endloop
endfacet
facet normal -0.13052619222005196 0.9914448613738105 0.0
  outer loop
    vertex -10.349783923982885 179.5665757800249 10.0
    vertex -0.7734792551895899 180.82732020732936 0.0
    vertex -10.349783923982885 179.5665757800249 0.0
  endloop
endfacet
facet normal -0.13052619222005196 0.9914448613738105 0.0
  outer loop
    vertex -0.7734792551895899 180.82732020732936 0.0
    vertex -10.349783923982885 179.5665757800249 10.0
    vertex -0.7734792551895899 180.82732020732936 10.0
  endloop
endfacet
facet normal 0.13052619222005232 0.9914448613738104 0.0
  outer loop
    vertex -0.7734792551895899 180.82732020732936 10.0
    vertex 8.802825413603678 179.5665757800249 0.0
    vertex -0.7734792551895899 180.82732020732936 0.0
  endloop
endfacet
facet normal 0.13052619222005232 0.9914448613738104 0.0
  outer loop
    vertex 8.802825413603678 179.5665757800249 0.0
    vertex -0.7734792551895899 180.82732020732936 10.0
    vertex 8.802825413603678 179.5665757800249 10.0
  endloop
endfacet
facet normal 0.3826834323650901 0.9238795325112867 0.0
  outer loop
    vertex 8.802825413603678 179.5665757800249 10.0
    vertex 17.726520744810408 175.87026014735358 0.0
    vertex 8.802825413603678 179.5665757800249 0.0
  endloop
endfacet
facet normal 0.3826834323650901 0.9238795325112867 0.0
  outer loop
    vertex 17.726520744810408 175.87026014735358 0.0
    vertex 8.802825413603678 179.5665757800249 10.0
    vertex 17.726520744810408 175.87026014735358 10.0
  endloop
endfacet
facet normal 0.6087614290087202 0.7933533402912355 0.0
  outer loop
    vertex 17.726520744810408 175.87026014735358 10.0
    vertex 25.389471648712664 169.99027111123164 0.0
    vertex 17.726520744810408 175.87026014735358 0.0
  endloop
endfacet
facet normal 0.6087614290087202 0.7933533402912355 0.0
  outer loop
    vertex 25.389471648712664 169.99027111123164 0.0
    vertex 17.726520744810408 175.87026014735358 10.0
    vertex 25.389471648712664 169.99027111123164 10.0
  endloop
endfacet
facet normal 0.7933533402912347 0.6087614290087213 0.0
  outer loop
    vertex 25.389471648712664 169.99027111123164 0.0
    vertex 31.269460684834637 162.32732020732936 10.0
    vertex 31.269460684834637 162.32732020732936 0.0
  endloop
endfacet
facet normal 0.7933533402912347 0.6087614290087213 0.0
  outer loop
    vertex 31.269460684834637 162.32732020732936 10.0
    vertex 25.389471648712664 169.99027111123164 0.0
    vertex 25.389471648712664 169.99027111123164 10.0
  endloop
endfacet
facet normal 0.9238795325112871 0.38268343236508934 0.0
  outer loop
    vertex 31.269460684834637 162.32732020732936 0.0
    vertex 34.965776317505934 153.40362487612262 10.0
    vertex 34.965776317505934 153.40362487612262 0.0
  endloop
endfacet
facet normal 0.9238795325112871 0.38268343236508934 0.0
  outer loop
    vertex 34.965776317505934 153.40362487612262 10.0
    vertex 31.269460684834637 162.32732020732936 0.0
    vertex 31.269460684834637 162.32732020732936 10.0
  endloop
endfacet
facet normal 0.9914448613738104 0.13052619222005182 0.0
  outer loop
    vertex 34.965776317505934 153.40362487612262 0.0
    vertex 36.22652074481041 143.82732020732936 10.0
    vertex 36.22652074481041 143.82732020732936 0.0
  endloop
endfacet
facet normal 0.9914448613738104 0.13052619222005182 0.0
  outer loop
    vertex 36.22652074481041 143.82732020732936 10.0
    vertex 34.965776317505934 153.40362487612262 0.0
    vertex 34.965776317505934 153.40362487612262 10.0
  endloop
endfacet
facet normal 0.9914448613738104 -0.13052619222005182 0.0
  outer loop
    vertex 36.22652074481041 143.82732020732936 0.0
    vertex 34.965776317505934 134.2510155385361 10.0
    vertex 34.965776317505934 134.2510155385361 0.0
  endloop
endfacet
facet normal 0.9914448613738104 -0.13052619222005182 0.0
  outer loop
    vertex 34.965776317505934 134.2510155385361 10.0
    vertex 36.22652074481041 143.82732020732936 0.0
    vertex 36.22652074481041 143.82732020732936 10.0
  endloop
endfacet
facet normal 0.9238795325112871 -0.38268343236508917 0.0
  outer loop
    vertex 34.965776317505934 134.2510155385361 0.0
    vertex 31.269460684834648 125.32732020732938 10.0
    vertex 31.269460684834648 125.32732020732938 0.0
  endloop
endfacet
facet normal 0.9238795325112871 -0.38268343236508917 0.0
  outer loop
    vertex 31.269460684834648 125.32732020732938 10.0
    vertex 34.965776317505934 134.2510155385361 0.0
    vertex 34.965776317505934 134.2510155385361 10.0
  endloop
endfacet
facet normal 0.7933533402912354 -0.6087614290087205 0.0
  outer loop
    vertex 31.269460684834648 125.32732020732938 0.0
    vertex 25.38947164871267 117.66436930342711 10.0
    vertex 25.38947164871267 117.66436930342711 0.0
  endloop
endfacet
facet normal 0.7933533402912354 -0.6087614290087205 0.0
  outer loop
    vertex 25.38947164871267 117.66436930342711 10.0
    vertex 31.269460684834648 125.32732020732938 0.0
    vertex 31.269460684834648 125.32732020732938 10.0
  endloop
endfacet
facet normal 0.6087614290087207 -0.7933533402912352 0.0
  outer loop
    vertex 25.38947164871267 117.66436930342711 10.0
    vertex 17.726520744810422 111.78438026730514 0.0
    vertex 25.38947164871267 117.66436930342711 0.0
  endloop
endfacet
facet normal 0.6087614290087207 -0.7933533402912352 0.0
  outer loop
    vertex 17.726520744810422 111.78438026730514 0.0
    vertex 25.38947164871267 117.66436930342711 10.0
    vertex 17.726520744810422 111.78438026730514 10.0
  endloop
endfacet
facet normal 0.38268343236508984 -0.9238795325112868 0.0
  outer loop
    vertex 17.726520744810422 111.78438026730514 10.0
    vertex 8.802825413603685 108.08806463463385 0.0
    vertex 17.726520744810422 111.78438026730514 0.0
  endloop
endfacet
facet normal 0.38268343236508984 -0.9238795325112868 0.0
  outer loop
    vertex 8.802825413603685 108.08806463463385 0.0
    vertex 17.726520744810422 111.78438026730514 10.0
    vertex 8.802825413603685 108.08806463463385 10.0
  endloop
endfacet
facet normal 0.1305261922200523 -0.9914448613738105 0.0
  outer loop
    vertex 8.802825413603685 108.08806463463385 10.0
    vertex -0.7734792551895874 106.82732020732936 0.0
    vertex 8.802825413603685 108.08806463463385 0.0
  endloop
endfacet
facet normal 0.1305261922200523 -0.9914448613738105 0.0
  outer loop
    vertex -0.7734792551895874 106.82732020732936 0.0
    vertex 8.802825413603685 108.08806463463385 10.0
    vertex -0.7734792551895874 106.82732020732936 10.0
  endloop
endfacet
facet normal 0.0 0.0 1.0
  outer loop
    vertex -36.51273482788511 134.25101553853608 10.0
    vertex -36.51273482788512 153.40362487612262 10.0
    vertex -37.77347925518959 143.82732020732936 10.0
  endloop
endfacet
facet normal 0.0 0.0 1.0
  outer loop
    vertex -36.51273482788512 153.40362487612262 10.0
    vertex -36.51273482788511 134.25101553853608 10.0
    vertex -32.81641919521383 162.32732020732934 10.0
  endloop
endfacet
facet normal 0.0 0.0 1.0
  outer loop
    vertex -32.81641919521383 162.32732020732934 10.0
    vertex -36.51273482788511 134.25101553853608 10.0
    vertex -32.81641919521381 125.32732020732935 10.0
  endloop
endfacet
facet normal 0.0 0.0 1.0
  outer loop
    vertex -32.81641919521383 162.32732020732934 10.0
    vertex -32.81641919521381 125.32732020732935 10.0
    vertex -26.936430159091852 169.99027111123164 10.0
  endloop
endfacet
facet normal 0.0 0.0 1.0
  outer loop
    vertex -26.936430159091852 169.99027111123164 10.0
    vertex -32.81641919521381 125.32732020732935 10.0
    vertex -26.936430159091834 117.6643693034271 10.0
  endloop
endfacet
facet normal 0.0 0.0 1.0
  outer loop
    vertex -26.936430159091852 169.99027111123164 10.0
    vertex -26.936430159091834 117.6643693034271 10.0
    vertex -19.273479255189606 175.87026014735358 10.0
  endloop
endfacet
facet normal 0.0 0.0 1.0
  outer loop
    vertex -19.273479255189606 175.87026014735358 10.0
    vertex -26.936430159091834 117.6643693034271 10.0
    vertex -19.27347925518958 111.78438026730512 10.0
  endloop
endfacet
facet normal 0.0 0.0 1.0
  outer loop
    vertex -19.273479255189606 175.87026014735358 10.0
    vertex -19.27347925518958 111.78438026730512 10.0
    vertex -10.349783923982885 179.5665757800249 10.0
  endloop
endfacet
facet normal 0.0 0.0 1.0
  outer loop
    vertex -10.349783923982885 179.5665757800249 10.0
    vertex -19.27347925518958 111.78438026730512 10.0
    vertex -10.349783923982846 108.08806463463382 10.0
  endloop
endfacet
facet normal 0.0 0.0 1.0
  outer loop
    vertex -10.349783923982885 179.5665757800249 10.0
    vertex -10.349783923982846 108.08806463463382 10.0
    vertex -0.7734792551895899 180.82732020732936 10.0
  endloop
endfacet
facet normal 0.0 0.0 1.0
  outer loop
    vertex -0.7734792551895899 180.82732020732936 10.0
    vertex -10.349783923982846 108.08806463463382 10.0
    vertex -0.7734792551895874 106.82732020732936 10.0
  endloop
endfacet
facet normal 0.0 0.0 1.0
  outer loop
    vertex -0.7734792551895899 180.82732020732936 10.0
    vertex -0.7734792551895874 106.82732020732936 10.0
    vertex 8.802825413603678 179.5665757800249 10.0
  endloop
endfacet
facet normal 0.0 0.0 1.0
  outer loop
    vertex 8.802825413603678 179.5665757800249 10.0
    vertex -0.7734792551895874 106.82732020732936 10.0
    vertex 8.802825413603685 108.08806463463385 10.0
  endloop
endfacet
facet normal 0.0 0.0 1.0
  outer loop
    vertex 8.802825413603678 179.5665757800249 10.0
    vertex 8.802825413603685 108.08806463463385 10.0
    vertex 17.726520744810408 175.87026014735358 10.0
  endloop
endfacet
facet normal 0.0 0.0 1.0
  outer loop
    vertex 17.726520744810408 175.87026014735358 10.0
    vertex 8.802825413603685 108.08806463463385 10.0
    vertex 17.726520744810422 111.78438026730514 10.0
  endloop
endfacet
facet normal 0.0 0.0 1.0
  outer loop
    vertex 17.726520744810408 175.87026014735358 10.0
    vertex 17.726520744810422 111.78438026730514 10.0
    vertex 25.389471648712664 169.99027111123164 10.0
  endloop
endfacet
facet normal 0.0 0.0 1.0
  outer loop
    vertex 25.389471648712664 169.99027111123164 10.0
    vertex 17.726520744810422 111.78438026730514 10.0
    vertex 25.38947164871267 117.66436930342711 10.0
  endloop
endfacet
facet normal 0.0 0.0 1.0
  outer loop
    vertex 25.389471648712664 169.99027111123164 10.0
    vertex 25.38947164871267 117.66436930342711 10.0
    vertex 31.269460684834637 162.32732020732936 10.0
  endloop
endfacet
facet normal 0.0 0.0 1.0
  outer loop
    vertex 31.269460684834637 162.32732020732936 10.0
    vertex 25.38947164871267 117.66436930342711 10.0
    vertex 31.269460684834648 125.32732020732938 10.0
  endloop
endfacet
facet normal 0.0 0.0 1.0
  outer loop
    vertex 31.269460684834637 162.32732020732936 10.0
    vertex 31.269460684834648 125.32732020732938 10.0
    vertex 34.965776317505934 153.40362487612262 10.0
  endloop
endfacet
facet normal 0.0 0.0 1.0
  outer loop
    vertex 34.965776317505934 153.40362487612262 10.0
    vertex 31.269460684834648 125.32732020732938 10.0
    vertex 34.965776317505934 134.2510155385361 10.0
  endloop
endfacet
facet normal 0.0 0.0 1.0
  outer loop
    vertex 34.965776317505934 153.40362487612262 10.0
    vertex 34.965776317505934 134.2510155385361 10.0
    vertex 36.22652074481041 143.82732020732936 10.0
  endloop
endfacet
facet normal -0.0 -0.0 1.0
  outer loop
    vertex -44.24014143819767 132.18046317771595 0.0
    vertex -44.24014143819766 155.4741772369428 0.0
    vertex -45.77347925518959 143.82732020732936 0.0
  endloop
endfacet
facet normal -0.0 -0.0 1.0
  outer loop
    vertex -44.24014143819766 155.4741772369428 0.0
    vertex -44.24014143819767 132.18046317771595 0.0
    vertex -39.74462242548934 121.32732020732938 0.0
  endloop
endfacet
facet normal -0.0 -0.0 1.0
  outer loop
    vertex -44.24014143819766 155.4741772369428 0.0
    vertex -39.74462242548934 121.32732020732938 0.0
    vertex -39.744622425489325 166.3273202073294 0.0
  endloop
endfacet
facet normal -0.0 -0.0 1.0
  outer loop
    vertex -39.744622425489325 166.3273202073294 0.0
    vertex -39.74462242548934 121.32732020732938 0.0
    vertex -37.77347925518959 143.82732020732936 0.0
  endloop
endfacet
facet normal -0.0 -0.0 1.0
  outer loop
    vertex -37.77347925518959 143.82732020732936 0.0
    vertex -39.74462242548934 121.32732020732938 0.0
    vertex -36.51273482788511 134.25101553853608 0.0
  endloop
endfacet
facet normal -0.0 -0.0 1.0
  outer loop
    vertex -36.51273482788511 134.25101553853608 0.0
    vertex -39.74462242548934 121.32732020732938 0.0
    vertex -32.593284408584246 112.00751505393474 0.0
  endloop
endfacet
facet normal -0.0 -0.0 1.0
  outer loop
    vertex -36.51273482788511 134.25101553853608 0.0
    vertex -32.593284408584246 112.00751505393474 0.0
    vertex -32.81641919521381 125.32732020732935 0.0
  endloop
endfacet
facet normal -0.0 -0.0 1.0
  outer loop
    vertex -32.81641919521381 125.32732020732935 0.0
    vertex -32.593284408584246 112.00751505393474 0.0
    vertex -26.936430159091834 117.6643693034271 0.0
  endloop
endfacet
facet normal -0.0 -0.0 1.0
  outer loop
    vertex -26.936430159091834 117.6643693034271 0.0
    vertex -32.593284408584246 112.00751505393474 0.0
    vertex -23.27347925518961 104.85617703702964 0.0
  endloop
endfacet
facet normal -0.0 -0.0 1.0
  outer loop
    vertex -26.936430159091834 117.6643693034271 0.0
    vertex -23.27347925518961 104.85617703702964 0.0
    vertex -19.27347925518958 111.78438026730512 0.0
  endloop
endfacet
facet normal -0.0 -0.0 1.0
  outer loop
    vertex -19.27347925518958 111.78438026730512 0.0
    vertex -23.27347925518961 104.85617703702964 0.0
    vertex -12.420336284803058 100.3606580243213 0.0
  endloop
endfacet
facet normal -0.0 -0.0 1.0
  outer loop
    vertex -19.27347925518958 111.78438026730512 0.0
    vertex -12.420336284803058 100.3606580243213 0.0
    vertex -10.349783923982846 108.08806463463382 0.0
  endloop
endfacet
facet normal -0.0 -0.0 1.0
  outer loop
    vertex -10.349783923982846 108.08806463463382 0.0
    vertex -12.420336284803058 100.3606580243213 0.0
    vertex -0.7734792551895991 98.82732020732936 0.0
  endloop
endfacet
facet normal -0.0 -0.0 1.0
  outer loop
    vertex -10.349783923982846 108.08806463463382 0.0
    vertex -0.7734792551895991 98.82732020732936 0.0
    vertex -0.7734792551895874 106.82732020732936 0.0
  endloop
endfacet
facet normal -0.0 -0.0 1.0
  outer loop
    vertex -0.7734792551895874 106.82732020732936 0.0
    vertex -0.7734792551895991 98.82732020732936 0.0
    vertex 10.873377774423822 100.3606580243213 0.0
  endloop
endfacet
facet normal -0.0 -0.0 1.0
  outer loop
    vertex -0.7734792551895874 106.82732020732936 0.0
    vertex 10.873377774423822 100.3606580243213 0.0
    vertex 8.802825413603685 108.08806463463385 0.0
  endloop
endfacet
facet normal -0.0 -0.0 1.0
  outer loop
    vertex 8.802825413603685 108.08806463463385 0.0
    vertex 10.873377774423822 100.3606580243213 0.0
    vertex 17.726520744810422 111.78438026730514 0.0
  endloop
endfacet
facet normal -0.0 -0.0 1.0
  outer loop
    vertex 17.726520744810422 111.78438026730514 0.0
    vertex 10.873377774423822 100.3606580243213 0.0
    vertex 21.726520744810376 104.85617703702961 0.0
  endloop
endfacet
facet normal -0.0 -0.0 1.0
  outer loop
    vertex 17.726520744810422 111.78438026730514 0.0
    vertex 21.726520744810376 104.85617703702961 0.0
    vertex 25.38947164871267 117.66436930342711 0.0
  endloop
endfacet
facet normal -0.0 -0.0 1.0
  outer loop
    vertex 25.38947164871267 117.66436930342711 0.0
    vertex 21.726520744810376 104.85617703702961 0.0
    vertex 31.046325898205048 112.00751505393471 0.0
  endloop
endfacet
facet normal -0.0 -0.0 1.0
  outer loop
    vertex 25.38947164871267 117.66436930342711 0.0
    vertex 31.046325898205048 112.00751505393471 0.0
    vertex 31.269460684834648 125.32732020732938 0.0
  endloop
endfacet
facet normal -0.0 -0.0 1.0
  outer loop
    vertex 31.269460684834648 125.32732020732938 0.0
    vertex 31.046325898205048 112.00751505393471 0.0
    vertex 38.19766391511014 121.32732020732934 0.0
  endloop
endfacet
facet normal -0.0 -0.0 1.0
  outer loop
    vertex 31.269460684834648 125.32732020732938 0.0
    vertex 38.19766391511014 121.32732020732934 0.0
    vertex 34.965776317505934 134.2510155385361 0.0
  endloop
endfacet
facet normal -0.0 -0.0 1.0
  outer loop
    vertex 34.965776317505934 134.2510155385361 0.0
    vertex 38.19766391511014 121.32732020732934 0.0
    vertex 36.22652074481041 143.82732020732936 0.0
  endloop
endfacet
facet normal -0.0 -0.0 1.0
  outer loop
    vertex -39.744622425489325 166.3273202073294 0.0
    vertex -36.51273482788512 153.40362487612262 0.0
    vertex -32.59328440858423 175.647125360724 0.0
  endloop
endfacet
facet normal -0.0 -0.0 1.0
  outer loop
    vertex -36.51273482788512 153.40362487612262 0.0
    vertex -39.744622425489325 166.3273202073294 0.0
    vertex -37.77347925518959 143.82732020732936 0.0
  endloop
endfacet
facet normal -0.0 -0.0 1.0
  outer loop
    vertex -32.59328440858423 175.647125360724 0.0
    vertex -36.51273482788512 153.40362487612262 0.0
    vertex -32.81641919521383 162.32732020732934 0.0
  endloop
endfacet
facet normal -0.0 -0.0 1.0
  outer loop
    vertex -32.59328440858423 175.647125360724 0.0
    vertex -32.81641919521383 162.32732020732934 0.0
    vertex -26.936430159091852 169.99027111123164 0.0
  endloop
endfacet
facet normal -0.0 -0.0 1.0
  outer loop
    vertex -32.59328440858423 175.647125360724 0.0
    vertex -26.936430159091852 169.99027111123164 0.0
    vertex -23.27347925518958 182.79846337762913 0.0
  endloop
endfacet
facet normal -0.0 -0.0 1.0
  outer loop
    vertex -23.27347925518958 182.79846337762913 0.0
    vertex -26.936430159091852 169.99027111123164 0.0
    vertex -19.273479255189606 175.87026014735358 0.0
  endloop
endfacet
facet normal -0.0 -0.0 1.0
  outer loop
    vertex -23.27347925518958 182.79846337762913 0.0
    vertex -19.273479255189606 175.87026014735358 0.0
    vertex -12.42033628480302 187.29398239033745 0.0
  endloop
endfacet
facet normal -0.0 -0.0 1.0
  outer loop
    vertex -12.42033628480302 187.29398239033745 0.0
    vertex -19.273479255189606 175.87026014735358 0.0
    vertex -10.349783923982885 179.5665757800249 0.0
  endloop
endfacet
facet normal -0.0 -0.0 1.0
  outer loop
    vertex -12.42033628480302 187.29398239033745 0.0
    vertex -10.349783923982885 179.5665757800249 0.0
    vertex -0.7734792551895882 188.82732020732936 0.0
  endloop
endfacet
facet normal -0.0 -0.0 1.0
  outer loop
    vertex -0.7734792551895882 188.82732020732936 0.0
    vertex -10.349783923982885 179.5665757800249 0.0
    vertex -0.7734792551895899 180.82732020732936 0.0
  endloop
endfacet
facet normal -0.0 -0.0 1.0
  outer loop
    vertex -0.7734792551895882 188.82732020732936 0.0
    vertex -0.7734792551895899 180.82732020732936 0.0
    vertex 8.802825413603678 179.5665757800249 0.0
  endloop
endfacet
facet normal -0.0 -0.0 1.0
  outer loop
    vertex -0.7734792551895882 188.82732020732936 0.0
    vertex 8.802825413603678 179.5665757800249 0.0
    vertex 10.873377774423853 187.29398239033745 0.0
  endloop
endfacet
facet normal -0.0 -0.0 1.0
  outer loop
    vertex 10.873377774423853 187.29398239033745 0.0
    vertex 8.802825413603678 179.5665757800249 0.0
    vertex 17.726520744810408 175.87026014735358 0.0
  endloop
endfacet
facet normal -0.0 -0.0 1.0
  outer loop
    vertex 10.873377774423853 187.29398239033745 0.0
    vertex 17.726520744810408 175.87026014735358 0.0
    vertex 21.726520744810415 182.7984633776291 0.0
  endloop
endfacet
facet normal -0.0 -0.0 1.0
  outer loop
    vertex 21.726520744810415 182.7984633776291 0.0
    vertex 17.726520744810408 175.87026014735358 0.0
    vertex 25.389471648712664 169.99027111123164 0.0
  endloop
endfacet
facet normal -0.0 -0.0 1.0
  outer loop
    vertex 21.726520744810415 182.7984633776291 0.0
    vertex 25.389471648712664 169.99027111123164 0.0
    vertex 31.046325898205055 175.647125360724 0.0
  endloop
endfacet
facet normal -0.0 -0.0 1.0
  outer loop
    vertex 31.046325898205055 175.647125360724 0.0
    vertex 25.389471648712664 169.99027111123164 0.0
    vertex 31.269460684834637 162.32732020732936 0.0
  endloop
endfacet
facet normal -0.0 -0.0 1.0
  outer loop
    vertex 31.046325898205055 175.647125360724 0.0
    vertex 31.269460684834637 162.32732020732936 0.0
    vertex 38.197663915110155 166.32732020732936 0.0
  endloop
endfacet
facet normal -0.0 -0.0 1.0
  outer loop
    vertex 38.197663915110155 166.32732020732936 0.0
    vertex 31.269460684834637 162.32732020732936 0.0
    vertex 34.965776317505934 153.40362487612262 0.0
  endloop
endfacet
facet normal -0.0 -0.0 1.0
  outer loop
    vertex 38.197663915110155 166.32732020732936 0.0
    vertex 34.965776317505934 153.40362487612262 0.0
    vertex 36.22652074481041 143.82732020732936 0.0
  endloop
endfacet
facet normal -0.0 -0.0 1.0
  outer loop
    vertex 38.197663915110155 166.32732020732936 0.0
    vertex 36.22652074481041 143.82732020732936 0.0
    vertex 38.19766391511014 121.32732020732934 0.0
  endloop
endfacet
facet normal -0.0 -0.0 1.0
  outer loop
    vertex 38.197663915110155 166.32732020732936 0.0
    vertex 38.19766391511014 121.32732020732934 0.0
    vertex 42.69318292781848 132.1804631777159 0.0
  endloop
endfacet
facet normal -0.0 -0.0 1.0
  outer loop
    vertex 38.197663915110155 166.32732020732936 0.0
    vertex 42.69318292781848 132.1804631777159 0.0
    vertex 42.69318292781849 155.4741772369428 0.0
  endloop
endfacet
facet normal -0.0 -0.0 1.0
  outer loop
    vertex 42.69318292781849 155.4741772369428 0.0
    vertex 42.69318292781848 132.1804631777159 0.0
    vertex 44.22652074481041 143.82732020732936 0.0
  endloop
endfacet
facet normal -0.13052619222005019 -0.9914448613738107 -0.0
  outer loop
    vertex -0.7734792551895874 106.82732020732936 10.0
    vertex -10.349783923982846 108.08806463463382 0.0
    vertex -0.7734792551895874 106.82732020732936 0.0
  endloop
endfacet
facet normal -0.13052619222005019 -0.9914448613738107 -0.0
  outer loop
    vertex -10.349783923982846 108.08806463463382 0.0
    vertex -0.7734792551895874 106.82732020732936 10.0
    vertex -10.349783923982846 108.08806463463382 10.0
  endloop
endfacet
endsolid Endcap
