solid Radial Fan
facet normal 1.8799776550319404e-15 1.0 -5.107649250799804e-16
  outer loop
    vertex 272.56313340893365 31.820248568074355 0.8787840674609771
    vertex 273.56313340893354 31.820248568074337 3.120914582222604
    vertex 278.56313340893365 31.82024856807434 0.8787840674610446
  endloop
endfacet
facet normal 1.8799776550319404e-15 1.0 -5.107649250799804e-16
  outer loop
    vertex 273.56313340893354 31.820248568074337 3.120914582222604
    vertex 272.56313340893365 31.820248568074355 0.8787840674609771
    vertex 272.5631334089334 31.820248568074366 22.96304509698422
  endloop
endfacet
facet normal 1.8799776550319404e-15 1.0 -5.107649250799804e-16
  outer loop
    vertex 273.56313340893354 31.820248568074337 3.120914582222604
    vertex 272.5631334089334 31.820248568074366 22.96304509698422
    vertex 273.5631334089335 31.820248568074366 20.72091458222264
  endloop
endfacet
facet normal 1.8799776550319404e-15 1.0 -5.107649250799804e-16
  outer loop
    vertex 273.5631334089335 31.820248568074366 20.72091458222264
    vertex 272.5631334089334 31.820248568074366 22.96304509698422
    vertex 277.5631334089335 31.820248568074366 20.720914582222683
  endloop
endfacet
facet normal 1.8799776550319404e-15 1.0 -5.107649250799804e-16
  outer loop
    vertex 278.56313340893365 31.82024856807434 0.8787840674610446
    vertex 277.56313340893354 31.82024856807434 3.1209145822226403
    vertex 278.5631334089334 31.820248568074355 22.96304509698428
  endloop
endfacet
facet normal 1.8799776550319404e-15 1.0 -5.107649250799804e-16
  outer loop
    vertex 277.56313340893354 31.82024856807434 3.1209145822226403
    vertex 278.56313340893365 31.82024856807434 0.8787840674610446
    vertex 273.56313340893354 31.820248568074337 3.120914582222604
  endloop
endfacet
facet normal 1.8799776550319404e-15 1.0 -5.107649250799804e-16
  outer loop
    vertex 278.5631334089334 31.820248568074355 22.96304509698428
    vertex 277.56313340893354 31.82024856807434 3.1209145822226403
    vertex 277.5631334089335 31.820248568074366 20.720914582222683
  endloop
endfacet
facet normal 1.8799776550319404e-15 1.0 -5.107649250799804e-16
  outer loop
    vertex 278.5631334089334 31.820248568074355 22.96304509698428
    vertex 277.5631334089335 31.820248568074366 20.720914582222683
    vertex 272.5631334089334 31.820248568074366 22.96304509698422
  endloop
endfacet
facet normal -1.0 -5.100298864718669e-30 -8.172238801279989e-15
  outer loop
    vertex 262.5631334089334 7.420248568074365 22.963045096984132
    vertex 262.56313340893365 21.420248568074356 0.878784067460881
    vertex 262.56313340893365 7.420248568074355 0.8787840674608899
  endloop
endfacet
facet normal -1.0 -5.100298864718669e-30 -8.172238801279989e-15
  outer loop
    vertex 262.56313340893365 21.420248568074356 0.878784067460881
    vertex 262.5631334089334 7.420248568074365 22.963045096984132
    vertex 262.5631334089334 21.420248568074367 22.963045096984125
  endloop
endfacet
facet normal -7.216449660063516e-16 -1.0 6.531025310140654e-16
  outer loop
    vertex 279.56313340893365 7.420248568074339 0.8787840674610707
    vertex 278.56313340893365 7.420248568074333 1.8787840674610599
    vertex 263.56313340893365 7.420248568074344 1.8787840674609053
  endloop
endfacet
facet normal -7.216449660063516e-16 -1.0 6.531025310140654e-16
  outer loop
    vertex 278.56313340893365 7.420248568074333 1.8787840674610599
    vertex 279.56313340893365 7.420248568074339 0.8787840674610707
    vertex 279.5631334089334 7.42024856807435 22.963045096984303
  endloop
endfacet
facet normal -7.216449660063516e-16 -1.0 6.531025310140654e-16
  outer loop
    vertex 278.56313340893365 7.420248568074333 1.8787840674610599
    vertex 279.5631334089334 7.42024856807435 22.963045096984303
    vertex 278.5631334089334 7.42024856807435 22.963045096984292
  endloop
endfacet
facet normal -7.216449660063516e-16 -1.0 6.531025310140654e-16
  outer loop
    vertex 262.56313340893365 7.420248568074355 0.8787840674608899
    vertex 263.56313340893365 7.420248568074344 1.8787840674609053
    vertex 262.5631334089334 7.420248568074365 22.963045096984132
  endloop
endfacet
facet normal -7.216449660063516e-16 -1.0 6.531025310140654e-16
  outer loop
    vertex 263.56313340893365 7.420248568074344 1.8787840674609053
    vertex 262.56313340893365 7.420248568074355 0.8787840674608899
    vertex 279.56313340893365 7.420248568074339 0.8787840674610707
  endloop
endfacet
facet normal -7.216449660063516e-16 -1.0 6.531025310140654e-16
  outer loop
    vertex 262.5631334089334 7.420248568074365 22.963045096984132
    vertex 263.56313340893365 7.420248568074344 1.8787840674609053
    vertex 263.5631334089334 7.420248568074363 22.963045096984146
  endloop
endfacet
facet normal -1.0 -7.280916358019214e-30 -1.069979727000814e-14
  outer loop
    vertex 278.5631334089334 7.42024856807435 22.963045096984292
    vertex 278.56313340893365 20.420248568074335 1.8787840674610499
    vertex 278.56313340893365 7.420248568074333 1.8787840674610599
  endloop
endfacet
facet normal -1.0 -7.280916358019214e-30 -1.069979727000814e-14
  outer loop
    vertex 278.56313340893365 20.420248568074335 1.8787840674610499
    vertex 278.5631334089334 7.42024856807435 22.963045096984292
    vertex 278.5631334089334 20.420248568074353 22.963045096984285
  endloop
endfacet
facet normal -1.020010219707144e-14 -5.670511871807256e-16 1.0
  outer loop
    vertex 269.56313340893365 20.42024856807434 1.8787840674609575
    vertex 263.56313340893365 20.420248568074346 1.8787840674608955
    vertex 269.56313340893365 8.92024856807435 1.8787840674609184
  endloop
endfacet
facet normal -1.020010219707144e-14 -5.670511871807256e-16 1.0
  outer loop
    vertex 263.56313340893365 7.420248568074344 1.8787840674609053
    vertex 269.56313340893365 8.92024856807435 1.8787840674609184
    vertex 263.56313340893365 20.420248568074346 1.8787840674608955
  endloop
endfacet
facet normal -1.020010219707144e-14 -5.670511871807256e-16 1.0
  outer loop
    vertex 269.56313340893365 8.92024856807435 1.8787840674609184
    vertex 263.56313340893365 7.420248568074344 1.8787840674609053
    vertex 278.56313340893365 7.420248568074333 1.8787840674610599
  endloop
endfacet
facet normal -1.020010219707144e-14 -5.670511871807256e-16 1.0
  outer loop
    vertex 269.56313340893365 8.92024856807435 1.8787840674609184
    vertex 278.56313340893365 7.420248568074333 1.8787840674610599
    vertex 272.56313340893365 8.920248568074339 1.8787840674609495
  endloop
endfacet
facet normal -1.020010219707144e-14 -5.670511871807256e-16 1.0
  outer loop
    vertex 272.56313340893365 8.920248568074339 1.8787840674609495
    vertex 278.56313340893365 7.420248568074333 1.8787840674610599
    vertex 272.56313340893365 20.42024856807434 1.8787840674609881
  endloop
endfacet
facet normal -1.020010219707144e-14 -5.670511871807256e-16 1.0
  outer loop
    vertex 272.56313340893365 20.42024856807434 1.8787840674609881
    vertex 278.56313340893365 7.420248568074333 1.8787840674610599
    vertex 278.56313340893365 20.420248568074335 1.8787840674610499
  endloop
endfacet
facet normal 1.0 -8.326672684688672e-16 8.470001771555915e-15
  outer loop
    vertex 269.56313340893365 20.42024856807434 0.8787840674609578
    vertex 269.56313340893365 8.92024856807435 1.8787840674609184
    vertex 269.56313340893365 8.920248568074348 0.8787840674609668
  endloop
endfacet
facet normal 1.0 -8.326672684688672e-16 8.470001771555915e-15
  outer loop
    vertex 269.56313340893365 8.92024856807435 1.8787840674609184
    vertex 269.56313340893365 20.42024856807434 0.8787840674609578
    vertex 269.56313340893365 20.42024856807434 1.8787840674609575
  endloop
endfacet
facet normal -1.0 -1.1102230246251563e-16 -7.698256021125106e-15
  outer loop
    vertex 272.56313340893365 8.920248568074339 1.8787840674609495
    vertex 272.56313340893365 20.42024856807434 0.8787840674609886
    vertex 272.56313340893365 8.920248568074337 0.8787840674609964
  endloop
endfacet
facet normal -1.0 -1.1102230246251563e-16 -7.698256021125106e-15
  outer loop
    vertex 272.56313340893365 20.42024856807434 0.8787840674609886
    vertex 272.56313340893365 8.920248568074339 1.8787840674609495
    vertex 272.56313340893365 20.42024856807434 1.8787840674609881
  endloop
endfacet
facet normal 3.885780586188047e-15 1.0 -2.068984203124635e-15
  outer loop
    vertex 269.56313340893365 8.92024856807435 1.8787840674609184
    vertex 272.56313340893365 8.920248568074337 0.8787840674609964
    vertex 269.56313340893365 8.920248568074348 0.8787840674609668
  endloop
endfacet
facet normal 3.885780586188047e-15 1.0 -2.068984203124635e-15
  outer loop
    vertex 272.56313340893365 8.920248568074337 0.8787840674609964
    vertex 269.56313340893365 8.92024856807435 1.8787840674609184
    vertex 272.56313340893365 8.920248568074339 1.8787840674609495
  endloop
endfacet
facet normal -6.869149124155223e-16 -1.0 8.33634645519329e-16
  outer loop
    vertex 272.56313340893365 20.42024856807434 0.8787840674609886
    vertex 269.56313340893365 20.42024856807434 1.8787840674609575
    vertex 269.56313340893365 20.42024856807434 0.8787840674609578
  endloop
endfacet
facet normal -6.869149124155223e-16 -1.0 8.33634645519329e-16
  outer loop
    vertex 269.56313340893365 20.42024856807434 1.8787840674609575
    vertex 272.56313340893365 20.42024856807434 0.8787840674609886
    vertex 272.56313340893365 20.42024856807434 1.8787840674609881
  endloop
endfacet
facet normal -6.869149124155223e-16 -1.0 8.33634645519329e-16
  outer loop
    vertex 278.56313340893365 20.420248568074335 1.8787840674610499
    vertex 277.1631334089336 20.420248568074335 3.1209145822226327
    vertex 264.96313340893363 20.420248568074346 3.1209145822225364
  endloop
endfacet
facet normal -6.869149124155223e-16 -1.0 8.33634645519329e-16
  outer loop
    vertex 277.1631334089336 20.420248568074335 3.1209145822226327
    vertex 278.56313340893365 20.420248568074335 1.8787840674610499
    vertex 278.5631334089334 20.420248568074353 22.963045096984285
  endloop
endfacet
facet normal -6.869149124155223e-16 -1.0 8.33634645519329e-16
  outer loop
    vertex 277.1631334089336 20.420248568074335 3.1209145822226327
    vertex 278.5631334089334 20.420248568074353 22.963045096984285
    vertex 277.16313340893345 20.420248568074353 20.720914582222665
  endloop
endfacet
facet normal -6.869149124155223e-16 -1.0 8.33634645519329e-16
  outer loop
    vertex 277.16313340893345 20.420248568074353 20.720914582222665
    vertex 278.5631334089334 20.420248568074353 22.963045096984285
    vertex 263.5631334089334 20.420248568074364 22.96304509698414
  endloop
endfacet
facet normal -6.869149124155223e-16 -1.0 8.33634645519329e-16
  outer loop
    vertex 263.56313340893365 20.420248568074346 1.8787840674608955
    vertex 264.96313340893363 20.420248568074346 3.1209145822225364
    vertex 263.5631334089334 20.420248568074364 22.96304509698414
  endloop
endfacet
facet normal -6.869149124155223e-16 -1.0 8.33634645519329e-16
  outer loop
    vertex 264.96313340893363 20.420248568074346 3.1209145822225364
    vertex 263.56313340893365 20.420248568074346 1.8787840674608955
    vertex 269.56313340893365 20.42024856807434 1.8787840674609575
  endloop
endfacet
facet normal -6.869149124155223e-16 -1.0 8.33634645519329e-16
  outer loop
    vertex 264.96313340893363 20.420248568074346 3.1209145822225364
    vertex 269.56313340893365 20.42024856807434 1.8787840674609575
    vertex 272.56313340893365 20.42024856807434 1.8787840674609881
  endloop
endfacet
facet normal -6.869149124155223e-16 -1.0 8.33634645519329e-16
  outer loop
    vertex 264.96313340893363 20.420248568074346 3.1209145822225364
    vertex 272.56313340893365 20.42024856807434 1.8787840674609881
    vertex 278.56313340893365 20.420248568074335 1.8787840674610499
  endloop
endfacet
facet normal -6.869149124155223e-16 -1.0 8.33634645519329e-16
  outer loop
    vertex 263.5631334089334 20.420248568074364 22.96304509698414
    vertex 264.96313340893363 20.420248568074346 3.1209145822225364
    vertex 264.96313340893346 20.420248568074364 20.720914582222537
  endloop
endfacet
facet normal -6.869149124155223e-16 -1.0 8.33634645519329e-16
  outer loop
    vertex 263.5631334089334 20.420248568074364 22.96304509698414
    vertex 264.96313340893346 20.420248568074364 20.720914582222537
    vertex 277.16313340893345 20.420248568074353 20.720914582222665
  endloop
endfacet
facet normal 1.0 -1.7353639892602377e-15 9.629817543007327e-15
  outer loop
    vertex 263.56313340893365 20.420248568074346 1.8787840674608955
    vertex 263.5631334089334 7.420248568074363 22.963045096984146
    vertex 263.56313340893365 7.420248568074344 1.8787840674609053
  endloop
endfacet
facet normal 1.0 -1.7353639892602377e-15 9.629817543007327e-15
  outer loop
    vertex 263.5631334089334 7.420248568074363 22.963045096984146
    vertex 263.56313340893365 20.420248568074346 1.8787840674608955
    vertex 263.5631334089334 20.420248568074364 22.96304509698414
  endloop
endfacet
facet normal 1.0 1.2634987094204564e-29 7.18381560175768e-15
  outer loop
    vertex 273.56313340893354 31.820248568074337 3.120914582222604
    vertex 273.5631334089335 29.82024856807436 20.72091458222264
    vertex 273.56313340893354 29.820248568074334 3.120914582222609
  endloop
endfacet
facet normal 1.0 1.2634987094204564e-29 7.18381560175768e-15
  outer loop
    vertex 273.5631334089335 29.82024856807436 20.72091458222264
    vertex 273.56313340893354 31.820248568074337 3.120914582222604
    vertex 273.5631334089335 31.820248568074366 20.72091458222264
  endloop
endfacet
facet normal -0.6431920864232733 0.7657048647896113 -6.303586007459235e-15
  outer loop
    vertex 262.5631334089334 21.420248568074367 22.963045096984125
    vertex 272.56313340893365 29.82024856807436 0.8787840674609783
    vertex 262.56313340893365 21.420248568074356 0.878784067460881
  endloop
endfacet
facet normal -0.6431920864232733 0.7657048647896113 -6.303586007459235e-15
  outer loop
    vertex 272.56313340893365 29.82024856807436 0.8787840674609783
    vertex 262.5631334089334 21.420248568074367 22.963045096984125
    vertex 272.5631334089334 29.82024856807437 22.963045096984224
  endloop
endfacet
facet normal 1.0657008890986214e-14 1.0625360934075056e-15 -1.0
  outer loop
    vertex 277.5631334089335 31.820248568074366 20.720914582222683
    vertex 273.5631334089335 29.82024856807436 20.72091458222264
    vertex 273.5631334089335 31.820248568074366 20.72091458222264
  endloop
endfacet
facet normal 1.0657008890986214e-14 1.0625360934075056e-15 -1.0
  outer loop
    vertex 273.5631334089335 29.82024856807436 20.72091458222264
    vertex 277.5631334089335 31.820248568074366 20.720914582222683
    vertex 277.16313340893345 20.420248568074353 20.720914582222665
  endloop
endfacet
facet normal 1.0657008890986214e-14 1.0625360934075056e-15 -1.0
  outer loop
    vertex 277.16313340893345 20.420248568074353 20.720914582222665
    vertex 264.96313340893346 20.420248568074364 20.720914582222537
    vertex 273.5631334089335 29.82024856807436 20.72091458222264
  endloop
endfacet
facet normal -1.0 -7.378459217422275e-30 -1.0215298501599985e-14
  outer loop
    vertex 272.5631334089334 29.82024856807437 22.963045096984224
    vertex 272.56313340893365 31.820248568074355 0.8787840674609771
    vertex 272.56313340893365 29.82024856807436 0.8787840674609783
  endloop
endfacet
facet normal -1.0 -7.378459217422275e-30 -1.0215298501599985e-14
  outer loop
    vertex 272.56313340893365 31.820248568074355 0.8787840674609771
    vertex 272.5631334089334 29.82024856807437 22.963045096984224
    vertex 272.5631334089334 31.820248568074366 22.96304509698422
  endloop
endfacet
facet normal -7.973323681127327e-15 -2.2022137941890255e-16 1.0
  outer loop
    vertex 277.1631334089336 20.420248568074335 3.1209145822226327
    vertex 273.56313340893354 29.820248568074334 3.120914582222609
    vertex 264.96313340893363 20.420248568074346 3.1209145822225364
  endloop
endfacet
facet normal -7.973323681127327e-15 -2.2022137941890255e-16 1.0
  outer loop
    vertex 273.56313340893354 29.820248568074334 3.120914582222609
    vertex 277.1631334089336 20.420248568074335 3.1209145822226327
    vertex 273.56313340893354 31.820248568074337 3.120914582222604
  endloop
endfacet
facet normal -7.973323681127327e-15 -2.2022137941890255e-16 1.0
  outer loop
    vertex 273.56313340893354 31.820248568074337 3.120914582222604
    vertex 277.1631334089336 20.420248568074335 3.1209145822226327
    vertex 277.56313340893354 31.82024856807434 3.1209145822226403
  endloop
endfacet
facet normal 1.0 5.497102359303715e-30 1.0215298501599992e-14
  outer loop
    vertex 279.56313340893365 29.820248568074344 0.878784067461056
    vertex 279.5631334089334 7.42024856807435 22.963045096984303
    vertex 279.56313340893365 7.420248568074339 0.8787840674610707
  endloop
endfacet
facet normal 1.0 5.497102359303715e-30 1.0215298501599992e-14
  outer loop
    vertex 279.5631334089334 7.42024856807435 22.963045096984303
    vertex 279.56313340893365 29.820248568074344 0.878784067461056
    vertex 279.5631334089334 29.82024856807436 22.963045096984295
  endloop
endfacet
facet normal -9.975009035232467e-15 4.0798730523060824e-16 1.0
  outer loop
    vertex 279.5631334089334 7.42024856807435 22.963045096984303
    vertex 278.5631334089334 20.420248568074353 22.963045096984285
    vertex 278.5631334089334 7.42024856807435 22.963045096984292
  endloop
endfacet
facet normal -9.975009035232467e-15 4.0798730523060824e-16 1.0
  outer loop
    vertex 278.5631334089334 20.420248568074353 22.963045096984285
    vertex 279.5631334089334 7.42024856807435 22.963045096984303
    vertex 278.5631334089334 31.820248568074355 22.96304509698428
  endloop
endfacet
facet normal -9.975009035232467e-15 4.0798730523060824e-16 1.0
  outer loop
    vertex 278.5631334089334 31.820248568074355 22.96304509698428
    vertex 279.5631334089334 7.42024856807435 22.963045096984303
    vertex 279.5631334089334 29.82024856807436 22.963045096984295
  endloop
endfacet
facet normal -9.975009035232467e-15 4.0798730523060824e-16 1.0
  outer loop
    vertex 263.5631334089334 7.420248568074363 22.963045096984146
    vertex 262.5631334089334 21.420248568074367 22.963045096984125
    vertex 262.5631334089334 7.420248568074365 22.963045096984132
  endloop
endfacet
facet normal -9.975009035232467e-15 4.0798730523060824e-16 1.0
  outer loop
    vertex 262.5631334089334 21.420248568074367 22.963045096984125
    vertex 263.5631334089334 7.420248568074363 22.963045096984146
    vertex 263.5631334089334 20.420248568074364 22.96304509698414
  endloop
endfacet
facet normal -9.975009035232467e-15 4.0798730523060824e-16 1.0
  outer loop
    vertex 262.5631334089334 21.420248568074367 22.963045096984125
    vertex 263.5631334089334 20.420248568074364 22.96304509698414
    vertex 272.5631334089334 29.82024856807437 22.963045096984224
  endloop
endfacet
facet normal -9.975009035232467e-15 4.0798730523060824e-16 1.0
  outer loop
    vertex 272.5631334089334 29.82024856807437 22.963045096984224
    vertex 263.5631334089334 20.420248568074364 22.96304509698414
    vertex 278.5631334089334 20.420248568074353 22.963045096984285
  endloop
endfacet
facet normal -9.975009035232467e-15 4.0798730523060824e-16 1.0
  outer loop
    vertex 272.5631334089334 29.82024856807437 22.963045096984224
    vertex 278.5631334089334 20.420248568074353 22.963045096984285
    vertex 272.5631334089334 31.820248568074366 22.96304509698422
  endloop
endfacet
facet normal -9.975009035232467e-15 4.0798730523060824e-16 1.0
  outer loop
    vertex 272.5631334089334 31.820248568074366 22.96304509698422
    vertex 278.5631334089334 20.420248568074353 22.963045096984285
    vertex 278.5631334089334 31.820248568074355 22.96304509698428
  endloop
endfacet
facet normal 0.8944271909999161 0.44721359549995804 8.907722284648169e-15
  outer loop
    vertex 278.56313340893365 31.82024856807434 0.8787840674610446
    vertex 279.5631334089334 29.82024856807436 22.963045096984295
    vertex 279.56313340893365 29.820248568074344 0.878784067461056
  endloop
endfacet
facet normal 0.8944271909999161 0.44721359549995804 8.907722284648169e-15
  outer loop
    vertex 279.5631334089334 29.82024856807436 22.963045096984295
    vertex 278.56313340893365 31.82024856807434 0.8787840674610446
    vertex 278.5631334089334 31.820248568074355 22.96304509698428
  endloop
endfacet
facet normal 1.0651212863219037e-14 -7.866450316114596e-16 -1.0
  outer loop
    vertex 278.56313340893365 31.82024856807434 0.8787840674610446
    vertex 272.56313340893365 29.82024856807436 0.8787840674609783
    vertex 272.56313340893365 31.820248568074355 0.8787840674609771
  endloop
endfacet
facet normal 1.0651212863219037e-14 -7.866450316114596e-16 -1.0
  outer loop
    vertex 272.56313340893365 29.82024856807436 0.8787840674609783
    vertex 278.56313340893365 31.82024856807434 0.8787840674610446
    vertex 272.56313340893365 20.42024856807434 0.8787840674609886
  endloop
endfacet
facet normal 1.0651212863219037e-14 -7.866450316114596e-16 -1.0
  outer loop
    vertex 272.56313340893365 20.42024856807434 0.8787840674609886
    vertex 278.56313340893365 31.82024856807434 0.8787840674610446
    vertex 272.56313340893365 8.920248568074337 0.8787840674609964
  endloop
endfacet
facet normal 1.0651212863219037e-14 -7.866450316114596e-16 -1.0
  outer loop
    vertex 262.56313340893365 7.420248568074355 0.8787840674608899
    vertex 269.56313340893365 8.920248568074348 0.8787840674609668
    vertex 279.56313340893365 7.420248568074339 0.8787840674610707
  endloop
endfacet
facet normal 1.0651212863219037e-14 -7.866450316114596e-16 -1.0
  outer loop
    vertex 269.56313340893365 8.920248568074348 0.8787840674609668
    vertex 262.56313340893365 7.420248568074355 0.8787840674608899
    vertex 269.56313340893365 20.42024856807434 0.8787840674609578
  endloop
endfacet
facet normal 1.0651212863219037e-14 -7.866450316114596e-16 -1.0
  outer loop
    vertex 279.56313340893365 7.420248568074339 0.8787840674610707
    vertex 269.56313340893365 8.920248568074348 0.8787840674609668
    vertex 272.56313340893365 8.920248568074337 0.8787840674609964
  endloop
endfacet
facet normal 1.0651212863219037e-14 -7.866450316114596e-16 -1.0
  outer loop
    vertex 279.56313340893365 7.420248568074339 0.8787840674610707
    vertex 272.56313340893365 8.920248568074337 0.8787840674609964
    vertex 278.56313340893365 31.82024856807434 0.8787840674610446
  endloop
endfacet
facet normal 1.0651212863219037e-14 -7.866450316114596e-16 -1.0
  outer loop
    vertex 279.56313340893365 7.420248568074339 0.8787840674610707
    vertex 278.56313340893365 31.82024856807434 0.8787840674610446
    vertex 279.56313340893365 29.820248568074344 0.878784067461056
  endloop
endfacet
facet normal 1.0651212863219037e-14 -7.866450316114596e-16 -1.0
  outer loop
    vertex 272.56313340893365 29.82024856807436 0.8787840674609783
    vertex 262.56313340893365 7.420248568074355 0.8787840674608899
    vertex 262.56313340893365 21.420248568074356 0.878784067460881
  endloop
endfacet
facet normal 1.0651212863219037e-14 -7.866450316114596e-16 -1.0
  outer loop
    vertex 262.56313340893365 7.420248568074355 0.8787840674608899
    vertex 272.56313340893365 29.82024856807436 0.8787840674609783
    vertex 269.56313340893365 20.42024856807434 0.8787840674609578
  endloop
endfacet
facet normal 1.0651212863219037e-14 -7.866450316114596e-16 -1.0
  outer loop
    vertex 269.56313340893365 20.42024856807434 0.8787840674609578
    vertex 272.56313340893365 29.82024856807436 0.8787840674609783
    vertex 272.56313340893365 20.42024856807434 0.8787840674609886
  endloop
endfacet
facet normal 0.7378054120312969 -0.675013462071186 6.435383341588701e-15
  outer loop
    vertex 273.56313340893354 29.820248568074334 3.120914582222609
    vertex 264.96313340893346 20.420248568074364 20.720914582222537
    vertex 264.96313340893363 20.420248568074346 3.1209145822225364
  endloop
endfacet
facet normal 0.7378054120312969 -0.675013462071186 6.435383341588701e-15
  outer loop
    vertex 264.96313340893346 20.420248568074364 20.720914582222537
    vertex 273.56313340893354 29.820248568074334 3.120914582222609
    vertex 273.5631334089335 29.82024856807436 20.72091458222264
  endloop
endfacet
facet normal -0.9993849937917668 0.03506614013304238 -6.444971302648484e-15
  outer loop
    vertex 277.16313340893345 20.420248568074353 20.720914582222665
    vertex 277.56313340893354 31.82024856807434 3.1209145822226403
    vertex 277.1631334089336 20.420248568074335 3.1209145822226327
  endloop
endfacet
facet normal -0.9993849937917668 0.03506614013304238 -6.444971302648484e-15
  outer loop
    vertex 277.56313340893354 31.82024856807434 3.1209145822226403
    vertex 277.16313340893345 20.420248568074353 20.720914582222665
    vertex 277.5631334089335 31.820248568074366 20.720914582222683
  endloop
endfacet
endsolid Radial Fan
