solid Radial Fan
facet normal -1.0 -5.100298864718669e-30 -8.172238801279989e-15
  outer loop
    vertex 262.5631334089334 7.420248568074365 22.963045096984132
    vertex 262.56313340893365 21.420248568074356 0.878784067460881
    vertex 262.56313340893365 7.420248568074355 0.8787840674608899
  endloop
endfacet
facet normal -1.0 -5.100298864718669e-30 -8.172238801279989e-15
  outer loop
    vertex 262.56313340893365 21.420248568074356 0.878784067460881
    vertex 262.5631334089334 7.420248568074365 22.963045096984132
    vertex 262.5631334089334 21.420248568074367 22.963045096984125
  endloop
endfacet
facet normal -7.216449660063516e-16 -1.0 6.531025310140654e-16
  outer loop
    vertex 279.56313340893365 7.420248568074339 0.8787840674610707
    vertex 278.56313340893365 7.420248568074333 1.8787840674610599
    vertex 263.56313340893365 7.420248568074344 1.8787840674609053
  endloop
endfacet
facet normal -7.216449660063516e-16 -1.0 6.531025310140654e-16
  outer loop
    vertex 278.56313340893365 7.420248568074333 1.8787840674610599
    vertex 279.56313340893365 7.420248568074339 0.8787840674610707
    vertex 279.5631334089334 7.42024856807435 22.963045096984303
  endloop
endfacet
facet normal -7.216449660063516e-16 -1.0 6.531025310140654e-16
  outer loop
    vertex 278.56313340893365 7.420248568074333 1.8787840674610599
    vertex 279.5631334089334 7.42024856807435 22.963045096984303
    vertex 278.5631334089334 7.42024856807435 22.963045096984292
  endloop
endfacet
facet normal -7.216449660063516e-16 -1.0 6.531025310140654e-16
  outer loop
    vertex 262.56313340893365 7.420248568074355 0.8787840674608899
    vertex 263.56313340893365 7.420248568074344 1.8787840674609053
    vertex 262.5631334089334 7.420248568074365 22.963045096984132
  endloop
endfacet
facet normal -7.216449660063516e-16 -1.0 6.531025310140654e-16
  outer loop
    vertex 263.56313340893365 7.420248568074344 1.8787840674609053
    vertex 262.56313340893365 7.420248568074355 0.8787840674608899
    vertex 279.56313340893365 7.420248568074339 0.8787840674610707
  endloop
endfacet
facet normal -7.216449660063516e-16 -1.0 6.531025310140654e-16
  outer loop
    vertex 262.5631334089334 7.420248568074365 22.963045096984132
    vertex 263.56313340893365 7.420248568074344 1.8787840674609053
    vertex 263.5631334089334 7.420248568074363 22.963045096984146
  endloop
endfacet
facet normal -1.0 -7.280916358019214e-30 -1.069979727000814e-14
  outer loop
    vertex 278.5631334089334 7.42024856807435 22.963045096984292
    vertex 278.56313340893365 20.420248568074335 1.8787840674610499
    vertex 278.56313340893365 7.420248568074333 1.8787840674610599
  endloop
endfacet
facet normal -1.0 -7.280916358019214e-30 -1.069979727000814e-14
  outer loop
    vertex 278.56313340893365 20.420248568074335 1.8787840674610499
    vertex 278.5631334089334 7.42024856807435 22.963045096984292
    vertex 278.5631334089334 20.420248568074353 22.963045096984285
  endloop
endfacet
facet normal -1.020010219707144e-14 -5.670511871807256e-16 1.0
  outer loop
    vertex 269.56313340893365 20.42024856807434 1.8787840674609575
    vertex 263.56313340893365 20.420248568074346 1.8787840674608955
    vertex 269.56313340893365 8.92024856807435 1.8787840674609184
  endloop
endfacet
facet normal -1.020010219707144e-14 -5.670511871807256e-16 1.0
  outer loop
    vertex 263.56313340893365 7.420248568074344 1.8787840674609053
    vertex 269.56313340893365 8.92024856807435 1.8787840674609184
    vertex 263.56313340893365 20.420248568074346 1.8787840674608955
  endloop
endfacet
facet normal -1.020010219707144e-14 -5.670511871807256e-16 1.0
  outer loop
    vertex 269.56313340893365 8.92024856807435 1.8787840674609184
    vertex 263.56313340893365 7.420248568074344 1.8787840674609053
    vertex 278.56313340893365 7.420248568074333 1.8787840674610599
  endloop
endfacet
facet normal -1.020010219707144e-14 -5.670511871807256e-16 1.0
  outer loop
    vertex 269.56313340893365 8.92024856807435 1.8787840674609184
    vertex 278.56313340893365 7.420248568074333 1.8787840674610599
    vertex 272.56313340893365 8.920248568074339 1.8787840674609495
  endloop
endfacet
facet normal -1.020010219707144e-14 -5.670511871807256e-16 1.0
  outer loop
    vertex 272.56313340893365 8.920248568074339 1.8787840674609495
    vertex 278.56313340893365 7.420248568074333 1.8787840674610599
    vertex 272.56313340893365 20.42024856807434 1.8787840674609881
  endloop
endfacet
facet normal -1.020010219707144e-14 -5.670511871807256e-16 1.0
  outer loop
    vertex 272.56313340893365 20.42024856807434 1.8787840674609881
    vertex 278.56313340893365 7.420248568074333 1.8787840674610599
    vertex 278.56313340893365 20.420248568074335 1.8787840674610499
  endloop
endfacet
facet normal 1.0 -8.326672684688672e-16 8.470001771555915e-15
  outer loop
    vertex 269.56313340893365 20.42024856807434 0.8787840674609578
    vertex 269.56313340893365 8.92024856807435 1.8787840674609184
    vertex 269.56313340893365 8.920248568074348 0.8787840674609668
  endloop
endfacet
facet normal 1.0 -8.326672684688672e-16 8.470001771555915e-15
  outer loop
    vertex 269.56313340893365 8.92024856807435 1.8787840674609184
    vertex 269.56313340893365 20.42024856807434 0.8787840674609578
    vertex 269.56313340893365 20.42024856807434 1.8787840674609575
  endloop
endfacet
facet normal -1.0 -1.1102230246251563e-16 -7.698256021125106e-15
  outer loop
    vertex 272.56313340893365 8.920248568074339 1.8787840674609495
    vertex 272.56313340893365 20.42024856807434 0.8787840674609886
    vertex 272.56313340893365 8.920248568074337 0.8787840674609964
  endloop
endfacet
facet normal -1.0 -1.1102230246251563e-16 -7.698256021125106e-15
  outer loop
    vertex 272.56313340893365 20.42024856807434 0.8787840674609886
    vertex 272.56313340893365 8.920248568074339 1.8787840674609495
    vertex 272.56313340893365 20.42024856807434 1.8787840674609881
  endloop
endfacet
facet normal 3.885780586188047e-15 1.0 -2.068984203124635e-15
  outer loop
    vertex 269.56313340893365 8.92024856807435 1.8787840674609184
    vertex 272.56313340893365 8.920248568074337 0.8787840674609964
    vertex 269.56313340893365 8.920248568074348 0.8787840674609668
  endloop
endfacet
facet normal 3.885780586188047e-15 1.0 -2.068984203124635e-15
  outer loop
    vertex 272.56313340893365 8.920248568074337 0.8787840674609964
    vertex 269.56313340893365 8.92024856807435 1.8787840674609184
    vertex 272.56313340893365 8.920248568074339 1.8787840674609495
  endloop
endfacet
facet normal -6.869149124155223e-16 -1.0 8.33634645519329e-16
  outer loop
    vertex 272.56313340893365 20.42024856807434 0.8787840674609886
    vertex 269.56313340893365 20.42024856807434 1.8787840674609575
    vertex 269.56313340893365 20.42024856807434 0.8787840674609578
  endloop
endfacet
facet normal -6.869149124155223e-16 -1.0 8.33634645519329e-16
  outer loop
    vertex 269.56313340893365 20.42024856807434 1.8787840674609575
    vertex 272.56313340893365 20.42024856807434 0.8787840674609886
    vertex 272.56313340893365 20.42024856807434 1.8787840674609881
  endloop
endfacet
facet normal -6.869149124155223e-16 -1.0 8.33634645519329e-16
  outer loop
    vertex 278.56313340893365 20.420248568074335 1.8787840674610499
    vertex 277.1631334089336 20.420248568074335 3.1209145822226327
    vertex 264.96313340893363 20.420248568074346 3.1209145822225364
  endloop
endfacet
facet normal -6.869149124155223e-16 -1.0 8.33634645519329e-16
  outer loop
    vertex 277.1631334089336 20.420248568074335 3.1209145822226327
    vertex 278.56313340893365 20.420248568074335 1.8787840674610499
    vertex 278.5631334089334 20.420248568074353 22.963045096984285
  endloop
endfacet
facet normal -6.869149124155223e-16 -1.0 8.33634645519329e-16
  outer loop
    vertex 277.1631334089336 20.420248568074335 3.1209145822226327
    vertex 278.5631334089334 20.420248568074353 22.963045096984285
    vertex 277.16313340893345 20.420248568074353 20.720914582222665
  endloop
endfacet
facet normal -6.869149124155223e-16 -1.0 8.33634645519329e-16
  outer loop
    vertex 277.16313340893345 20.420248568074353 20.720914582222665
    vertex 278.5631334089334 20.420248568074353 22.963045096984285
    vertex 263.5631334089334 20.420248568074364 22.96304509698414
  endloop
endfacet
facet normal -6.869149124155223e-16 -1.0 8.33634645519329e-16
  outer loop
    vertex 263.56313340893365 20.420248568074346 1.8787840674608955
    vertex 264.96313340893363 20.420248568074346 3.1209145822225364
    vertex 263.5631334089334 20.420248568074364 22.96304509698414
  endloop
endfacet
facet normal -6.869149124155223e-16 -1.0 8.33634645519329e-16
  outer loop
    vertex 264.96313340893363 20.420248568074346 3.1209145822225364
    vertex 263.56313340893365 20.420248568074346 1.8787840674608955
    vertex 269.56313340893365 20.42024856807434 1.8787840674609575
  endloop
endfacet
facet normal -6.869149124155223e-16 -1.0 8.33634645519329e-16
  outer loop
    vertex 264.96313340893363 20.420248568074346 3.1209145822225364
    vertex 269.56313340893365 20.42024856807434 1.8787840674609575
    vertex 272.56313340893365 20.42024856807434 1.8787840674609881
  endloop
endfacet
facet normal -6.869149124155223e-16 -1.0 8.33634645519329e-16
  outer loop
    vertex 264.96313340893363 20.420248568074346 3.1209145822225364
    vertex 272.56313340893365 20.42024856807434 1.8787840674609881
    vertex 278.56313340893365 20.420248568074335 1.8787840674610499
  endloop
endfacet
facet normal -6.869149124155223e-16 -1.0 8.33634645519329e-16
  outer loop
    vertex 263.5631334089334 20.420248568074364 22.96304509698414
    vertex 264.96313340893363 20.420248568074346 3.1209145822225364
    vertex 264.96313340893346 20.420248568074364 20.720914582222537
  endloop
endfacet
facet normal -6.869149124155223e-16 -1.0 8.33634645519329e-16
  outer loop
    vertex 263.5631334089334 20.420248568074364 22.96304509698414
    vertex 264.96313340893346 20.420248568074364 20.720914582222537
    vertex 277.16313340893345 20.420248568074353 20.720914582222665
  endloop
endfacet
facet normal 1.0 -1.7353639892602377e-15 9.629817543007327e-15
  outer loop
    vertex 263.56313340893365 20.420248568074346 1.8787840674608955
    vertex 263.5631334089334 7.420248568074363 22.963045096984146
    vertex 263.56313340893365 7.420248568074344 1.8787840674609053
  endloop
endfacet
facet normal 1.0 -1.7353639892602377e-15 9.629817543007327e-15
  outer loop
    vertex 263.5631334089334 7.420248568074363 22.963045096984146
    vertex 263.56313340893365 20.420248568074346 1.8787840674608955
    vertex 263.5631334089334 20.420248568074364 22.96304509698414
  endloop
endfacet
facet normal -7.926369112919367e-15 -1.5642618921575118e-16 1.0
  outer loop
    vertex 277.1631334089336 20.420248568074335 3.1209145822226327
    vertex 273.56313340893354 28.820248568074337 3.120914582222609
    vertex 264.96313340893363 20.420248568074346 3.1209145822225364
  endloop
endfacet
facet normal -7.926369112919367e-15 -1.5642618921575118e-16 1.0
  outer loop
    vertex 273.56313340893354 28.820248568074337 3.120914582222609
    vertex 277.1631334089336 20.420248568074335 3.1209145822226327
    vertex 273.56313340893354 30.820248568074337 3.1209145822226034
  endloop
endfacet
facet normal -7.926369112919367e-15 -1.5642618921575118e-16 1.0
  outer loop
    vertex 273.56313340893354 30.820248568074337 3.1209145822226034
    vertex 277.1631334089336 20.420248568074335 3.1209145822226327
    vertex 277.06313340893354 30.820248568074348 3.1209145822226345
  endloop
endfacet
facet normal 1.0 7.839253420611131e-30 5.127211786450713e-15
  outer loop
    vertex 273.56313340893354 30.820248568074337 3.1209145822226034
    vertex 273.5631334089335 28.82024856807436 20.72091458222264
    vertex 273.56313340893354 28.820248568074337 3.120914582222609
  endloop
endfacet
facet normal 1.0 7.839253420611131e-30 5.127211786450713e-15
  outer loop
    vertex 273.5631334089335 28.82024856807436 20.72091458222264
    vertex 273.56313340893354 30.820248568074337 3.1209145822226034
    vertex 273.5631334089335 30.820248568074373 20.72091458222264
  endloop
endfacet
facet normal 0.9897582589218775 0.14275359503681104 1.0040582866241936e-14
  outer loop
    vertex 278.0631334089336 30.820248568074348 0.8787840674610383
    vertex 279.5631334089334 20.420248568074353 22.963045096984295
    vertex 279.56313340893365 20.42024856807434 0.8787840674610553
  endloop
endfacet
facet normal 0.9897582589218775 0.14275359503681104 1.0040582866241936e-14
  outer loop
    vertex 279.5631334089334 20.420248568074353 22.963045096984295
    vertex 278.0631334089336 30.820248568074348 0.8787840674610383
    vertex 278.06313340893337 30.820248568074362 22.96304509698428
  endloop
endfacet
facet normal 1.0672743062618312e-14 1.0848914865931534e-15 -1.0
  outer loop
    vertex 277.0631334089334 30.820248568074373 20.72091458222268
    vertex 273.5631334089335 28.82024856807436 20.72091458222264
    vertex 273.5631334089335 30.820248568074373 20.72091458222264
  endloop
endfacet
facet normal 1.0672743062618312e-14 1.0848914865931534e-15 -1.0
  outer loop
    vertex 273.5631334089335 28.82024856807436 20.72091458222264
    vertex 277.16313340893345 20.420248568074353 20.720914582222665
    vertex 264.96313340893346 20.420248568074364 20.720914582222537
  endloop
endfacet
facet normal 1.0672743062618312e-14 1.0848914865931534e-15 -1.0
  outer loop
    vertex 277.16313340893345 20.420248568074353 20.720914582222665
    vertex 273.5631334089335 28.82024856807436 20.72091458222264
    vertex 277.0631334089334 30.820248568074373 20.72091458222268
  endloop
endfacet
facet normal -1.0 -2.4527506975551047e-29 -1.0215298501599989e-14
  outer loop
    vertex 272.5631334089334 28.82024856807437 22.963045096984224
    vertex 272.56313340893365 30.820248568074362 0.8787840674609763
    vertex 272.56313340893365 28.82024856807436 0.8787840674609791
  endloop
endfacet
facet normal -1.0 -2.4527506975551047e-29 -1.0215298501599989e-14
  outer loop
    vertex 272.56313340893365 30.820248568074362 0.8787840674609763
    vertex 272.5631334089334 28.82024856807437 22.963045096984224
    vertex 272.5631334089334 30.820248568074373 22.963045096984217
  endloop
endfacet
facet normal -0.5948430054102947 0.8038418992031009 -5.8820656371784825e-15
  outer loop
    vertex 262.5631334089334 21.420248568074367 22.963045096984125
    vertex 272.56313340893365 28.82024856807436 0.8787840674609791
    vertex 262.56313340893365 21.420248568074356 0.878784067460881
  endloop
endfacet
facet normal -0.5948430054102947 0.8038418992031009 -5.8820656371784825e-15
  outer loop
    vertex 272.56313340893365 28.82024856807436 0.8787840674609791
    vertex 262.5631334089334 21.420248568074367 22.963045096984125
    vertex 272.5631334089334 28.82024856807437 22.963045096984224
  endloop
endfacet
facet normal 2.0508847145803073e-15 1.0 -5.107649250799785e-16
  outer loop
    vertex 272.56313340893365 30.820248568074362 0.8787840674609763
    vertex 273.56313340893354 30.820248568074337 3.1209145822226034
    vertex 278.0631334089336 30.820248568074348 0.8787840674610383
  endloop
endfacet
facet normal 2.0508847145803073e-15 1.0 -5.107649250799785e-16
  outer loop
    vertex 273.56313340893354 30.820248568074337 3.1209145822226034
    vertex 272.56313340893365 30.820248568074362 0.8787840674609763
    vertex 272.5631334089334 30.820248568074373 22.963045096984217
  endloop
endfacet
facet normal 2.0508847145803073e-15 1.0 -5.107649250799785e-16
  outer loop
    vertex 273.56313340893354 30.820248568074337 3.1209145822226034
    vertex 272.5631334089334 30.820248568074373 22.963045096984217
    vertex 273.5631334089335 30.820248568074373 20.72091458222264
  endloop
endfacet
facet normal 2.0508847145803073e-15 1.0 -5.107649250799785e-16
  outer loop
    vertex 273.5631334089335 30.820248568074373 20.72091458222264
    vertex 272.5631334089334 30.820248568074373 22.963045096984217
    vertex 277.0631334089334 30.820248568074373 20.72091458222268
  endloop
endfacet
facet normal 2.0508847145803073e-15 1.0 -5.107649250799785e-16
  outer loop
    vertex 278.0631334089336 30.820248568074348 0.8787840674610383
    vertex 277.06313340893354 30.820248568074348 3.1209145822226345
    vertex 278.06313340893337 30.820248568074362 22.96304509698428
  endloop
endfacet
facet normal 2.0508847145803073e-15 1.0 -5.107649250799785e-16
  outer loop
    vertex 277.06313340893354 30.820248568074348 3.1209145822226345
    vertex 278.0631334089336 30.820248568074348 0.8787840674610383
    vertex 273.56313340893354 30.820248568074337 3.1209145822226034
  endloop
endfacet
facet normal 2.0508847145803073e-15 1.0 -5.107649250799785e-16
  outer loop
    vertex 278.06313340893337 30.820248568074362 22.96304509698428
    vertex 277.06313340893354 30.820248568074348 3.1209145822226345
    vertex 277.0631334089334 30.820248568074373 20.72091458222268
  endloop
endfacet
facet normal 2.0508847145803073e-15 1.0 -5.107649250799785e-16
  outer loop
    vertex 278.06313340893337 30.820248568074362 22.96304509698428
    vertex 277.0631334089334 30.820248568074373 20.72091458222268
    vertex 272.5631334089334 30.820248568074373 22.963045096984217
  endloop
endfacet
facet normal 1.0487031001528309e-14 -7.586688951519003e-16 -1.0
  outer loop
    vertex 278.0631334089336 30.820248568074348 0.8787840674610383
    vertex 272.56313340893365 28.82024856807436 0.8787840674609791
    vertex 272.56313340893365 30.820248568074362 0.8787840674609763
  endloop
endfacet
facet normal 1.0487031001528309e-14 -7.586688951519003e-16 -1.0
  outer loop
    vertex 272.56313340893365 28.82024856807436 0.8787840674609791
    vertex 278.0631334089336 30.820248568074348 0.8787840674610383
    vertex 272.56313340893365 20.42024856807434 0.8787840674609886
  endloop
endfacet
facet normal 1.0487031001528309e-14 -7.586688951519003e-16 -1.0
  outer loop
    vertex 272.56313340893365 20.42024856807434 0.8787840674609886
    vertex 278.0631334089336 30.820248568074348 0.8787840674610383
    vertex 272.56313340893365 8.920248568074337 0.8787840674609964
  endloop
endfacet
facet normal 1.0487031001528309e-14 -7.586688951519003e-16 -1.0
  outer loop
    vertex 262.56313340893365 7.420248568074355 0.8787840674608899
    vertex 269.56313340893365 8.920248568074348 0.8787840674609668
    vertex 279.56313340893365 7.420248568074339 0.8787840674610707
  endloop
endfacet
facet normal 1.0487031001528309e-14 -7.586688951519003e-16 -1.0
  outer loop
    vertex 269.56313340893365 8.920248568074348 0.8787840674609668
    vertex 262.56313340893365 7.420248568074355 0.8787840674608899
    vertex 269.56313340893365 20.42024856807434 0.8787840674609578
  endloop
endfacet
facet normal 1.0487031001528309e-14 -7.586688951519003e-16 -1.0
  outer loop
    vertex 279.56313340893365 7.420248568074339 0.8787840674610707
    vertex 269.56313340893365 8.920248568074348 0.8787840674609668
    vertex 272.56313340893365 8.920248568074337 0.8787840674609964
  endloop
endfacet
facet normal 1.0487031001528309e-14 -7.586688951519003e-16 -1.0
  outer loop
    vertex 279.56313340893365 7.420248568074339 0.8787840674610707
    vertex 272.56313340893365 8.920248568074337 0.8787840674609964
    vertex 278.0631334089336 30.820248568074348 0.8787840674610383
  endloop
endfacet
facet normal 1.0487031001528309e-14 -7.586688951519003e-16 -1.0
  outer loop
    vertex 279.56313340893365 7.420248568074339 0.8787840674610707
    vertex 278.0631334089336 30.820248568074348 0.8787840674610383
    vertex 279.56313340893365 20.42024856807434 0.8787840674610553
  endloop
endfacet
facet normal 1.0487031001528309e-14 -7.586688951519003e-16 -1.0
  outer loop
    vertex 272.56313340893365 28.82024856807436 0.8787840674609791
    vertex 262.56313340893365 7.420248568074355 0.8787840674608899
    vertex 262.56313340893365 21.420248568074356 0.878784067460881
  endloop
endfacet
facet normal 1.0487031001528309e-14 -7.586688951519003e-16 -1.0
  outer loop
    vertex 262.56313340893365 7.420248568074355 0.8787840674608899
    vertex 272.56313340893365 28.82024856807436 0.8787840674609791
    vertex 269.56313340893365 20.42024856807434 0.8787840674609578
  endloop
endfacet
facet normal 1.0487031001528309e-14 -7.586688951519003e-16 -1.0
  outer loop
    vertex 269.56313340893365 20.42024856807434 0.8787840674609578
    vertex 272.56313340893365 28.82024856807436 0.8787840674609791
    vertex 272.56313340893365 20.42024856807434 0.8787840674609886
  endloop
endfacet
facet normal 0.6987395238751691 -0.7153761792055296 6.177506070892725e-15
  outer loop
    vertex 273.56313340893354 28.820248568074337 3.120914582222609
    vertex 264.96313340893346 20.420248568074364 20.720914582222537
    vertex 264.96313340893363 20.420248568074346 3.1209145822225364
  endloop
endfacet
facet normal 0.6987395238751691 -0.7153761792055296 6.177506070892725e-15
  outer loop
    vertex 264.96313340893346 20.420248568074364 20.720914582222537
    vertex 273.56313340893354 28.820248568074337 3.120914582222609
    vertex 273.5631334089335 28.82024856807436 20.72091458222264
  endloop
endfacet
facet normal -0.9999537753946179 -0.009614940148029478 -6.3978013653452265e-15
  outer loop
    vertex 277.16313340893345 20.420248568074353 20.720914582222665
    vertex 277.06313340893354 30.820248568074348 3.1209145822226345
    vertex 277.1631334089336 20.420248568074335 3.1209145822226327
  endloop
endfacet
facet normal -0.9999537753946179 -0.009614940148029478 -6.3978013653452265e-15
  outer loop
    vertex 277.06313340893354 30.820248568074348 3.1209145822226345
    vertex 277.16313340893345 20.420248568074353 20.720914582222665
    vertex 277.0631334089334 30.820248568074373 20.72091458222268
  endloop
endfacet
facet normal 1.0 8.563126932199314e-30 1.0215298501599992e-14
  outer loop
    vertex 279.56313340893365 20.42024856807434 0.8787840674610553
    vertex 279.5631334089334 7.42024856807435 22.963045096984303
    vertex 279.56313340893365 7.420248568074339 0.8787840674610707
  endloop
endfacet
facet normal 1.0 8.563126932199314e-30 1.0215298501599992e-14
  outer loop
    vertex 279.5631334089334 7.42024856807435 22.963045096984303
    vertex 279.56313340893365 20.42024856807434 0.8787840674610553
    vertex 279.5631334089334 20.420248568074353 22.963045096984295
  endloop
endfacet
facet normal -9.951819861882236e-15 4.718438996899341e-16 1.0
  outer loop
    vertex 279.5631334089334 7.42024856807435 22.963045096984303
    vertex 278.5631334089334 20.420248568074353 22.963045096984285
    vertex 278.5631334089334 7.42024856807435 22.963045096984292
  endloop
endfacet
facet normal -9.951819861882236e-15 4.718438996899341e-16 1.0
  outer loop
    vertex 263.5631334089334 7.420248568074363 22.963045096984146
    vertex 262.5631334089334 21.420248568074367 22.963045096984125
    vertex 262.5631334089334 7.420248568074365 22.963045096984132
  endloop
endfacet
facet normal -9.951819861882236e-15 4.718438996899341e-16 1.0
  outer loop
    vertex 262.5631334089334 21.420248568074367 22.963045096984125
    vertex 263.5631334089334 7.420248568074363 22.963045096984146
    vertex 263.5631334089334 20.420248568074364 22.96304509698414
  endloop
endfacet
facet normal -9.951819861882236e-15 4.718438996899341e-16 1.0
  outer loop
    vertex 262.5631334089334 21.420248568074367 22.963045096984125
    vertex 263.5631334089334 20.420248568074364 22.96304509698414
    vertex 272.5631334089334 28.82024856807437 22.963045096984224
  endloop
endfacet
facet normal -9.951819861882236e-15 4.718438996899341e-16 1.0
  outer loop
    vertex 272.5631334089334 28.82024856807437 22.963045096984224
    vertex 263.5631334089334 20.420248568074364 22.96304509698414
    vertex 278.5631334089334 20.420248568074353 22.963045096984285
  endloop
endfacet
facet normal -9.951819861882236e-15 4.718438996899341e-16 1.0
  outer loop
    vertex 272.5631334089334 28.82024856807437 22.963045096984224
    vertex 278.5631334089334 20.420248568074353 22.963045096984285
    vertex 272.5631334089334 30.820248568074373 22.963045096984217
  endloop
endfacet
facet normal -9.951819861882236e-15 4.718438996899341e-16 1.0
  outer loop
    vertex 272.5631334089334 30.820248568074373 22.963045096984217
    vertex 278.5631334089334 20.420248568074353 22.963045096984285
    vertex 278.06313340893337 30.820248568074362 22.96304509698428
  endloop
endfacet
facet normal -9.951819861882236e-15 4.718438996899341e-16 1.0
  outer loop
    vertex 278.06313340893337 30.820248568074362 22.96304509698428
    vertex 278.5631334089334 20.420248568074353 22.963045096984285
    vertex 279.5631334089334 20.420248568074353 22.963045096984295
  endloop
endfacet
facet normal -9.951819861882236e-15 4.718438996899341e-16 1.0
  outer loop
    vertex 279.5631334089334 20.420248568074353 22.963045096984295
    vertex 278.5631334089334 20.420248568074353 22.963045096984285
    vertex 279.5631334089334 7.42024856807435 22.963045096984303
  endloop
endfacet
endsolid Radial Fan
