solid Radial Fan Mount:Duct
facet normal -1.0 4.996003610813203e-16 -1.0245592966191598e-14
  outer loop
    vertex 262.56313340893365 7.420248568074355 0.8787840674608899
    vertex 262.5631334089334 21.420248568074367 22.963045096984125
    vertex 262.56313340893365 21.420248568074356 0.878784067460881
  endloop
endfacet
facet normal -1.0 4.996003610813203e-16 -1.0245592966191598e-14
  outer loop
    vertex 262.5631334089334 21.420248568074367 22.963045096984125
    vertex 262.56313340893365 7.420248568074355 0.8787840674608899
    vertex 262.5631334089334 20.420248568074364 21.96304509698413
  endloop
endfacet
facet normal -1.0 4.996003610813203e-16 -1.0245592966191598e-14
  outer loop
    vertex 262.5631334089334 20.420248568074364 21.96304509698413
    vertex 262.56313340893365 7.420248568074355 0.8787840674608899
    vertex 262.5631334089334 7.420248568074365 21.963045096984136
  endloop
endfacet
facet normal -1.0 4.996003610813203e-16 -1.0245592966191598e-14
  outer loop
    vertex 262.5631334089334 21.420248568074367 22.963045096984125
    vertex 262.5631334089334 20.420248568074364 21.96304509698413
    vertex 262.5631334089334 20.420248568074364 22.96304509698413
  endloop
endfacet
facet normal -7.216449660063516e-16 -1.0 6.531025310140654e-16
  outer loop
    vertex 262.5631334089334 7.420248568074365 21.963045096984136
    vertex 263.56313340893365 7.420248568074344 1.8787840674609053
    vertex 263.5631334089334 7.420248568074363 21.963045096984146
  endloop
endfacet
facet normal -7.216449660063516e-16 -1.0 6.531025310140654e-16
  outer loop
    vertex 278.5631334089334 7.42024856807435 21.963045096984306
    vertex 279.56313340893365 7.420248568074339 0.8787840674610707
    vertex 279.5631334089334 7.42024856807435 21.963045096984317
  endloop
endfacet
facet normal -7.216449660063516e-16 -1.0 6.531025310140654e-16
  outer loop
    vertex 279.56313340893365 7.420248568074339 0.8787840674610707
    vertex 278.5631334089334 7.42024856807435 21.963045096984306
    vertex 278.56313340893365 7.420248568074333 1.8787840674610599
  endloop
endfacet
facet normal -7.216449660063516e-16 -1.0 6.531025310140654e-16
  outer loop
    vertex 279.56313340893365 7.420248568074339 0.8787840674610707
    vertex 278.56313340893365 7.420248568074333 1.8787840674610599
    vertex 262.56313340893365 7.420248568074355 0.8787840674608899
  endloop
endfacet
facet normal -7.216449660063516e-16 -1.0 6.531025310140654e-16
  outer loop
    vertex 262.56313340893365 7.420248568074355 0.8787840674608899
    vertex 278.56313340893365 7.420248568074333 1.8787840674610599
    vertex 263.56313340893365 7.420248568074344 1.8787840674609053
  endloop
endfacet
facet normal -7.216449660063516e-16 -1.0 6.531025310140654e-16
  outer loop
    vertex 262.56313340893365 7.420248568074355 0.8787840674608899
    vertex 263.56313340893365 7.420248568074344 1.8787840674609053
    vertex 262.5631334089334 7.420248568074365 21.963045096984136
  endloop
endfacet
facet normal 1.0302996280578058e-14 -9.915127639056418e-16 -1.0
  outer loop
    vertex 265.96313340893346 18.42024856807436 19.72091458222255
    vertex 276.16313340893345 21.42024856807435 19.720914582222655
    vertex 276.16313340893345 18.420248568074353 19.720914582222658
  endloop
endfacet
facet normal 1.0302996280578058e-14 -9.915127639056418e-16 -1.0
  outer loop
    vertex 276.16313340893345 21.42024856807435 19.720914582222655
    vertex 265.96313340893346 18.42024856807436 19.72091458222255
    vertex 265.96313340893346 21.420248568074356 19.72091458222255
  endloop
endfacet
facet normal 6.10622663543836e-16 1.0 -8.899493680541414e-16
  outer loop
    vertex 278.56313340893365 21.42024856807433 1.8787840674610496
    vertex 276.1631334089336 21.42024856807433 4.120914582222651
    vertex 276.16313340893345 21.42024856807435 19.720914582222655
  endloop
endfacet
facet normal 6.10622663543836e-16 1.0 -8.899493680541414e-16
  outer loop
    vertex 276.1631334089336 21.42024856807433 4.120914582222651
    vertex 278.56313340893365 21.42024856807433 1.8787840674610496
    vertex 263.56313340893365 21.42024856807435 1.8787840674608949
  endloop
endfacet
facet normal 6.10622663543836e-16 1.0 -8.899493680541414e-16
  outer loop
    vertex 276.1631334089336 21.42024856807433 4.120914582222651
    vertex 263.56313340893365 21.42024856807435 1.8787840674608949
    vertex 265.96313340893363 21.420248568074346 4.120914582222547
  endloop
endfacet
facet normal 6.10622663543836e-16 1.0 -8.899493680541414e-16
  outer loop
    vertex 265.96313340893363 21.420248568074346 4.120914582222547
    vertex 263.56313340893365 21.42024856807435 1.8787840674608949
    vertex 263.5631334089334 21.420248568074367 21.96304509698414
  endloop
endfacet
facet normal 6.10622663543836e-16 1.0 -8.899493680541414e-16
  outer loop
    vertex 278.5631334089334 21.420248568074353 21.9630450969843
    vertex 276.16313340893345 21.42024856807435 19.720914582222655
    vertex 263.5631334089334 21.420248568074367 21.96304509698414
  endloop
endfacet
facet normal 6.10622663543836e-16 1.0 -8.899493680541414e-16
  outer loop
    vertex 276.16313340893345 21.42024856807435 19.720914582222655
    vertex 278.5631334089334 21.420248568074353 21.9630450969843
    vertex 278.56313340893365 21.42024856807433 1.8787840674610496
  endloop
endfacet
facet normal 6.10622663543836e-16 1.0 -8.899493680541414e-16
  outer loop
    vertex 263.5631334089334 21.420248568074367 21.96304509698414
    vertex 276.16313340893345 21.42024856807435 19.720914582222655
    vertex 265.96313340893346 21.420248568074356 19.72091458222255
  endloop
endfacet
facet normal 6.10622663543836e-16 1.0 -8.899493680541414e-16
  outer loop
    vertex 263.5631334089334 21.420248568074367 21.96304509698414
    vertex 265.96313340893346 21.420248568074356 19.72091458222255
    vertex 265.96313340893363 21.420248568074346 4.120914582222547
  endloop
endfacet
facet normal -0.720833064901856 0.6931087162517847 -7.783288487190442e-15
  outer loop
    vertex 262.56313340893365 21.420248568074356 0.878784067460881
    vertex 272.5631334089334 31.82024856807437 22.963045096984224
    vertex 272.56313340893365 31.82024856807436 0.8787840674609783
  endloop
endfacet
facet normal -0.720833064901856 0.6931087162517847 -7.783288487190442e-15
  outer loop
    vertex 272.5631334089334 31.82024856807437 22.963045096984224
    vertex 262.56313340893365 21.420248568074356 0.878784067460881
    vertex 262.5631334089334 21.420248568074367 22.963045096984125
  endloop
endfacet
facet normal -4.996003610813203e-16 -1.0 9.915127639056372e-16
  outer loop
    vertex 277.16313340893345 18.420248568074356 20.720914582222665
    vertex 276.16313340893345 18.420248568074353 19.720914582222658
    vertex 277.1631334089336 18.420248568074335 3.1209145822226625
  endloop
endfacet
facet normal -4.996003610813203e-16 -1.0 9.915127639056372e-16
  outer loop
    vertex 276.16313340893345 18.420248568074353 19.720914582222658
    vertex 277.16313340893345 18.420248568074356 20.720914582222665
    vertex 264.96313340893346 18.420248568074364 20.720914582222537
  endloop
endfacet
facet normal -4.996003610813203e-16 -1.0 9.915127639056372e-16
  outer loop
    vertex 276.16313340893345 18.420248568074353 19.720914582222658
    vertex 264.96313340893346 18.420248568074364 20.720914582222537
    vertex 265.96313340893346 18.42024856807436 19.72091458222255
  endloop
endfacet
facet normal -4.996003610813203e-16 -1.0 9.915127639056372e-16
  outer loop
    vertex 265.96313340893346 18.42024856807436 19.72091458222255
    vertex 264.96313340893346 18.420248568074364 20.720914582222537
    vertex 265.96313340893363 18.42024856807435 4.120914582222548
  endloop
endfacet
facet normal -4.996003610813203e-16 -1.0 9.915127639056372e-16
  outer loop
    vertex 277.1631334089336 18.420248568074335 3.1209145822226625
    vertex 276.1631334089336 18.42024856807434 4.120914582222653
    vertex 264.96313340893363 18.420248568074342 3.1209145822225373
  endloop
endfacet
facet normal -4.996003610813203e-16 -1.0 9.915127639056372e-16
  outer loop
    vertex 276.1631334089336 18.42024856807434 4.120914582222653
    vertex 277.1631334089336 18.420248568074335 3.1209145822226625
    vertex 276.16313340893345 18.420248568074353 19.720914582222658
  endloop
endfacet
facet normal -4.996003610813203e-16 -1.0 9.915127639056372e-16
  outer loop
    vertex 264.96313340893363 18.420248568074342 3.1209145822225373
    vertex 276.1631334089336 18.42024856807434 4.120914582222653
    vertex 265.96313340893363 18.42024856807435 4.120914582222548
  endloop
endfacet
facet normal -4.996003610813203e-16 -1.0 9.915127639056372e-16
  outer loop
    vertex 264.96313340893363 18.420248568074342 3.1209145822225373
    vertex 265.96313340893363 18.42024856807435 4.120914582222548
    vertex 264.96313340893346 18.420248568074364 20.720914582222537
  endloop
endfacet
facet normal -1.0 4.996003610813203e-16 -1.0543334333073698e-14
  outer loop
    vertex 264.96313340893346 18.420248568074364 20.720914582222537
    vertex 264.96313340893363 20.420248568074346 3.1209145822225364
    vertex 264.96313340893363 18.420248568074342 3.1209145822225373
  endloop
endfacet
facet normal -1.0 4.996003610813203e-16 -1.0543334333073698e-14
  outer loop
    vertex 264.96313340893363 20.420248568074346 3.1209145822225364
    vertex 264.96313340893346 18.420248568074364 20.720914582222537
    vertex 264.96313340893346 20.420248568074364 20.720914582222537
  endloop
endfacet
facet normal 1.0 -4.996003610813203e-16 1.0282022706877676e-14
  outer loop
    vertex 265.96313340893346 21.420248568074356 19.72091458222255
    vertex 265.96313340893363 18.42024856807435 4.120914582222548
    vertex 265.96313340893363 21.420248568074346 4.120914582222547
  endloop
endfacet
facet normal 1.0 -4.996003610813203e-16 1.0282022706877676e-14
  outer loop
    vertex 265.96313340893363 18.42024856807435 4.120914582222548
    vertex 265.96313340893346 21.420248568074356 19.72091458222255
    vertex 265.96313340893346 18.42024856807436 19.72091458222255
  endloop
endfacet
facet normal 1.0 -1.221245327087672e-15 1.0200211381610395e-14
  outer loop
    vertex 273.5631334089334 33.82024856807437 21.963045096984235
    vertex 273.56313340893365 31.82024856807434 1.878784067460995
    vertex 273.56313340893365 33.82024856807434 1.8787840674609941
  endloop
endfacet
facet normal 1.0 -1.221245327087672e-15 1.0200211381610395e-14
  outer loop
    vertex 273.56313340893365 31.82024856807434 1.878784067460995
    vertex 273.5631334089334 33.82024856807437 21.963045096984235
    vertex 273.5631334089334 31.82024856807436 21.963045096984235
  endloop
endfacet
facet normal -1.0302996280578058e-14 9.91512763905642e-16 1.0
  outer loop
    vertex 276.1631334089336 21.42024856807433 4.120914582222651
    vertex 265.96313340893363 18.42024856807435 4.120914582222548
    vertex 276.1631334089336 18.42024856807434 4.120914582222653
  endloop
endfacet
facet normal -1.0302996280578058e-14 9.91512763905642e-16 1.0
  outer loop
    vertex 265.96313340893363 18.42024856807435 4.120914582222548
    vertex 276.1631334089336 21.42024856807433 4.120914582222651
    vertex 265.96313340893363 21.420248568074346 4.120914582222547
  endloop
endfacet
facet normal 1.2767564783189294e-15 1.0 -5.325313218302058e-16
  outer loop
    vertex 278.56313340893365 33.82024856807434 0.8787840674610446
    vertex 277.56313340893365 33.82024856807434 1.8787840674610323
    vertex 278.5631334089334 33.820248568074355 22.96304509698428
  endloop
endfacet
facet normal 1.2767564783189294e-15 1.0 -5.325313218302058e-16
  outer loop
    vertex 277.56313340893365 33.82024856807434 1.8787840674610323
    vertex 278.56313340893365 33.82024856807434 0.8787840674610446
    vertex 272.56313340893365 33.820248568074355 0.8787840674609771
  endloop
endfacet
facet normal 1.2767564783189294e-15 1.0 -5.325313218302058e-16
  outer loop
    vertex 278.5631334089334 33.820248568074355 22.96304509698428
    vertex 277.56313340893365 33.82024856807434 1.8787840674610323
    vertex 277.5631334089334 33.82024856807437 21.963045096984278
  endloop
endfacet
facet normal 1.2767564783189294e-15 1.0 -5.325313218302058e-16
  outer loop
    vertex 277.56313340893365 33.82024856807434 1.8787840674610323
    vertex 272.56313340893365 33.820248568074355 0.8787840674609771
    vertex 273.56313340893365 33.82024856807434 1.8787840674609941
  endloop
endfacet
facet normal 1.2767564783189294e-15 1.0 -5.325313218302058e-16
  outer loop
    vertex 277.5631334089334 33.82024856807437 21.963045096984278
    vertex 272.5631334089334 33.82024856807437 22.96304509698422
    vertex 278.5631334089334 33.820248568074355 22.96304509698428
  endloop
endfacet
facet normal 1.2767564783189294e-15 1.0 -5.325313218302058e-16
  outer loop
    vertex 272.5631334089334 33.82024856807437 22.96304509698422
    vertex 277.5631334089334 33.82024856807437 21.963045096984278
    vertex 273.5631334089334 33.82024856807437 21.963045096984235
  endloop
endfacet
facet normal 1.2767564783189294e-15 1.0 -5.325313218302058e-16
  outer loop
    vertex 272.5631334089334 33.82024856807437 22.96304509698422
    vertex 273.5631334089334 33.82024856807437 21.963045096984235
    vertex 273.56313340893365 33.82024856807434 1.8787840674609941
  endloop
endfacet
facet normal 1.2767564783189294e-15 1.0 -5.325313218302058e-16
  outer loop
    vertex 272.5631334089334 33.82024856807437 22.96304509698422
    vertex 273.56313340893365 33.82024856807434 1.8787840674609941
    vertex 272.56313340893365 33.820248568074355 0.8787840674609771
  endloop
endfacet
facet normal -0.8944271909999163 -0.4472135954999571 -8.84882988086738e-15
  outer loop
    vertex 278.5631334089334 31.82024856807436 21.963045096984292
    vertex 277.56313340893365 33.82024856807434 1.8787840674610323
    vertex 278.56313340893365 31.82024856807434 1.8787840674610439
  endloop
endfacet
facet normal -0.8944271909999163 -0.4472135954999571 -8.84882988086738e-15
  outer loop
    vertex 277.56313340893365 33.82024856807434 1.8787840674610323
    vertex 278.5631334089334 31.82024856807436 21.963045096984292
    vertex 277.5631334089334 33.82024856807437 21.963045096984278
  endloop
endfacet
facet normal -1.02465969509271e-14 3.811498528066505e-16 1.0
  outer loop
    vertex 278.56313340893365 31.82024856807434 1.8787840674610439
    vertex 263.56313340893365 21.42024856807435 1.8787840674608949
    vertex 278.56313340893365 21.42024856807433 1.8787840674610496
  endloop
endfacet
facet normal -1.02465969509271e-14 3.811498528066505e-16 1.0
  outer loop
    vertex 263.56313340893365 21.42024856807435 1.8787840674608949
    vertex 278.56313340893365 31.82024856807434 1.8787840674610439
    vertex 273.56313340893365 31.82024856807434 1.878784067460995
  endloop
endfacet
facet normal -1.0302996280578058e-14 5.438402267997984e-16 1.0
  outer loop
    vertex 279.5631334089334 20.420248568074353 21.96304509698431
    vertex 278.5631334089334 7.42024856807435 21.963045096984306
    vertex 279.5631334089334 7.42024856807435 21.963045096984317
  endloop
endfacet
facet normal -1.0302996280578058e-14 5.438402267997984e-16 1.0
  outer loop
    vertex 278.5631334089334 7.42024856807435 21.963045096984306
    vertex 279.5631334089334 20.420248568074353 21.96304509698431
    vertex 278.5631334089334 20.420248568074353 21.9630450969843
  endloop
endfacet
facet normal -1.0 4.996003610813203e-16 -1.0450680690669443e-14
  outer loop
    vertex 276.16313340893345 18.420248568074353 19.720914582222658
    vertex 276.1631334089336 21.42024856807433 4.120914582222651
    vertex 276.1631334089336 18.42024856807434 4.120914582222653
  endloop
endfacet
facet normal -1.0 4.996003610813203e-16 -1.0450680690669443e-14
  outer loop
    vertex 276.1631334089336 21.42024856807433 4.120914582222651
    vertex 276.16313340893345 18.420248568074353 19.720914582222658
    vertex 276.16313340893345 21.42024856807435 19.720914582222655
  endloop
endfacet
facet normal 1.075419091778572e-14 -7.607607254573289e-16 -1.0
  outer loop
    vertex 263.5631334089334 21.420248568074367 21.96304509698414
    vertex 278.5631334089334 31.82024856807436 21.963045096984292
    vertex 278.5631334089334 21.420248568074353 21.9630450969843
  endloop
endfacet
facet normal 1.075419091778572e-14 -7.607607254573289e-16 -1.0
  outer loop
    vertex 278.5631334089334 31.82024856807436 21.963045096984292
    vertex 263.5631334089334 21.420248568074367 21.96304509698414
    vertex 273.5631334089334 31.82024856807436 21.963045096984235
  endloop
endfacet
facet normal -1.0302996280578058e-14 9.91512763905642e-16 1.0
  outer loop
    vertex 277.16313340893345 20.420248568074353 20.720914582222665
    vertex 264.96313340893346 18.420248568074364 20.720914582222537
    vertex 277.16313340893345 18.420248568074356 20.720914582222665
  endloop
endfacet
facet normal -1.0302996280578058e-14 9.91512763905642e-16 1.0
  outer loop
    vertex 264.96313340893346 18.420248568074364 20.720914582222537
    vertex 277.16313340893345 20.420248568074353 20.720914582222665
    vertex 264.96313340893346 20.420248568074364 20.720914582222537
  endloop
endfacet
facet normal -1.0 1.221245327087672e-15 -1.0302996280578058e-14
  outer loop
    vertex 272.5631334089334 31.82024856807437 22.963045096984224
    vertex 272.56313340893365 33.820248568074355 0.8787840674609771
    vertex 272.56313340893365 31.82024856807436 0.8787840674609783
  endloop
endfacet
facet normal -1.0 1.221245327087672e-15 -1.0302996280578058e-14
  outer loop
    vertex 272.56313340893365 33.820248568074355 0.8787840674609771
    vertex 272.5631334089334 31.82024856807437 22.963045096984224
    vertex 272.5631334089334 33.82024856807437 22.96304509698422
  endloop
endfacet
facet normal 1.154103034608689e-14 -2.343317104225925e-16 -1.0
  outer loop
    vertex 273.5631334089334 31.82024856807436 21.963045096984235
    vertex 277.5631334089334 33.82024856807437 21.963045096984278
    vertex 278.5631334089334 31.82024856807436 21.963045096984292
  endloop
endfacet
facet normal 1.154103034608689e-14 -2.343317104225925e-16 -1.0
  outer loop
    vertex 277.5631334089334 33.82024856807437 21.963045096984278
    vertex 273.5631334089334 31.82024856807436 21.963045096984235
    vertex 273.5631334089334 33.82024856807437 21.963045096984235
  endloop
endfacet
facet normal -1.0 8.326672684688672e-16 -1.0328962855746116e-14
  outer loop
    vertex 278.56313340893365 7.420248568074333 1.8787840674610599
    vertex 278.5631334089334 20.420248568074353 21.9630450969843
    vertex 278.56313340893365 20.420248568074335 1.8787840674610499
  endloop
endfacet
facet normal -1.0 8.326672684688672e-16 -1.0328962855746116e-14
  outer loop
    vertex 278.5631334089334 20.420248568074353 21.9630450969843
    vertex 278.56313340893365 7.420248568074333 1.8787840674610599
    vertex 278.5631334089334 7.42024856807435 21.963045096984306
  endloop
endfacet
facet normal 1.0302996280578058e-14 -9.91512763905642e-16 -1.0
  outer loop
    vertex 264.96313340893363 18.420248568074342 3.1209145822225373
    vertex 277.1631334089336 20.420248568074335 3.120914582222662
    vertex 277.1631334089336 18.420248568074335 3.1209145822226625
  endloop
endfacet
facet normal 1.0302996280578058e-14 -9.91512763905642e-16 -1.0
  outer loop
    vertex 277.1631334089336 20.420248568074335 3.120914582222662
    vertex 264.96313340893363 18.420248568074342 3.1209145822225373
    vertex 264.96313340893363 20.420248568074346 3.1209145822225364
  endloop
endfacet
facet normal -1.020010219707144e-14 -5.670511871807256e-16 1.0
  outer loop
    vertex 278.56313340893365 20.420248568074335 1.8787840674610499
    vertex 272.56313340893365 8.920248568074339 1.8787840674609495
    vertex 278.56313340893365 7.420248568074333 1.8787840674610599
  endloop
endfacet
facet normal -1.020010219707144e-14 -5.670511871807256e-16 1.0
  outer loop
    vertex 272.56313340893365 8.920248568074339 1.8787840674609495
    vertex 278.56313340893365 20.420248568074335 1.8787840674610499
    vertex 272.56313340893365 20.42024856807434 1.8787840674609881
  endloop
endfacet
facet normal -1.020010219707144e-14 -5.670511871807256e-16 1.0
  outer loop
    vertex 272.56313340893365 8.920248568074339 1.8787840674609495
    vertex 263.56313340893365 7.420248568074344 1.8787840674609053
    vertex 278.56313340893365 7.420248568074333 1.8787840674610599
  endloop
endfacet
facet normal -1.020010219707144e-14 -5.670511871807256e-16 1.0
  outer loop
    vertex 263.56313340893365 7.420248568074344 1.8787840674609053
    vertex 272.56313340893365 8.920248568074339 1.8787840674609495
    vertex 269.56313340893365 8.92024856807435 1.8787840674609184
  endloop
endfacet
facet normal -1.020010219707144e-14 -5.670511871807256e-16 1.0
  outer loop
    vertex 263.56313340893365 7.420248568074344 1.8787840674609053
    vertex 269.56313340893365 8.92024856807435 1.8787840674609184
    vertex 269.56313340893365 20.42024856807434 1.8787840674609575
  endloop
endfacet
facet normal -1.020010219707144e-14 -5.670511871807256e-16 1.0
  outer loop
    vertex 263.56313340893365 7.420248568074344 1.8787840674609053
    vertex 269.56313340893365 20.42024856807434 1.8787840674609575
    vertex 263.56313340893365 20.420248568074346 1.8787840674608955
  endloop
endfacet
facet normal -9.683979247823641e-15 6.985944849884017e-16 1.0
  outer loop
    vertex 277.56313340893365 33.82024856807434 1.8787840674610323
    vertex 273.56313340893365 31.82024856807434 1.878784067460995
    vertex 278.56313340893365 31.82024856807434 1.8787840674610439
  endloop
endfacet
facet normal -9.683979247823641e-15 6.985944849884017e-16 1.0
  outer loop
    vertex 273.56313340893365 31.82024856807434 1.878784067460995
    vertex 277.56313340893365 33.82024856807434 1.8787840674610323
    vertex 273.56313340893365 33.82024856807434 1.8787840674609941
  endloop
endfacet
facet normal 1.0 -4.996003610813203e-16 1.0473954713423482e-14
  outer loop
    vertex 277.16313340893345 20.420248568074353 20.720914582222665
    vertex 277.1631334089336 18.420248568074335 3.1209145822226625
    vertex 277.1631334089336 20.420248568074335 3.120914582222662
  endloop
endfacet
facet normal 1.0 -4.996003610813203e-16 1.0473954713423482e-14
  outer loop
    vertex 277.1631334089336 18.420248568074335 3.1209145822226625
    vertex 277.16313340893345 20.420248568074353 20.720914582222665
    vertex 277.16313340893345 18.420248568074356 20.720914582222665
  endloop
endfacet
facet normal -1.0302996280578058e-14 5.438402267997984e-16 1.0
  outer loop
    vertex 263.5631334089334 20.420248568074364 21.96304509698414
    vertex 262.5631334089334 7.420248568074365 21.963045096984136
    vertex 263.5631334089334 7.420248568074363 21.963045096984146
  endloop
endfacet
facet normal -1.0302996280578058e-14 5.438402267997984e-16 1.0
  outer loop
    vertex 262.5631334089334 7.420248568074365 21.963045096984136
    vertex 263.5631334089334 20.420248568074364 21.96304509698414
    vertex 262.5631334089334 20.420248568074364 21.96304509698413
  endloop
endfacet
facet normal 1.0 -8.326672684688672e-16 1.0302996280578058e-14
  outer loop
    vertex 279.5631334089334 31.82024856807436 22.963045096984295
    vertex 279.56313340893365 7.420248568074339 0.8787840674610707
    vertex 279.56313340893365 31.820248568074348 0.878784067461056
  endloop
endfacet
facet normal 1.0 -8.326672684688672e-16 1.0302996280578058e-14
  outer loop
    vertex 279.56313340893365 7.420248568074339 0.8787840674610707
    vertex 279.5631334089334 31.82024856807436 22.963045096984295
    vertex 279.5631334089334 20.420248568074353 21.96304509698431
  endloop
endfacet
facet normal 1.0 -8.326672684688672e-16 1.0302996280578058e-14
  outer loop
    vertex 279.5631334089334 20.420248568074353 21.96304509698431
    vertex 279.5631334089334 31.82024856807436 22.963045096984295
    vertex 279.5631334089334 20.420248568074353 22.963045096984303
  endloop
endfacet
facet normal 1.0 -8.326672684688672e-16 1.0302996280578058e-14
  outer loop
    vertex 279.5631334089334 7.42024856807435 21.963045096984317
    vertex 279.56313340893365 7.420248568074339 0.8787840674610707
    vertex 279.5631334089334 20.420248568074353 21.96304509698431
  endloop
endfacet
facet normal -1.0302996280578058e-14 5.438402267997984e-16 1.0
  outer loop
    vertex 279.5631334089334 31.82024856807436 22.963045096984295
    vertex 262.5631334089334 20.420248568074364 22.96304509698413
    vertex 279.5631334089334 20.420248568074353 22.963045096984303
  endloop
endfacet
facet normal -1.0302996280578058e-14 5.438402267997984e-16 1.0
  outer loop
    vertex 262.5631334089334 20.420248568074364 22.96304509698413
    vertex 279.5631334089334 31.82024856807436 22.963045096984295
    vertex 262.5631334089334 21.420248568074367 22.963045096984125
  endloop
endfacet
facet normal -1.0302996280578058e-14 5.438402267997984e-16 1.0
  outer loop
    vertex 262.5631334089334 21.420248568074367 22.963045096984125
    vertex 279.5631334089334 31.82024856807436 22.963045096984295
    vertex 272.5631334089334 31.82024856807437 22.963045096984224
  endloop
endfacet
facet normal -1.0302996280578058e-14 5.438402267997984e-16 1.0
  outer loop
    vertex 272.5631334089334 31.82024856807437 22.963045096984224
    vertex 279.5631334089334 31.82024856807436 22.963045096984295
    vertex 278.5631334089334 33.820248568074355 22.96304509698428
  endloop
endfacet
facet normal -1.0302996280578058e-14 5.438402267997984e-16 1.0
  outer loop
    vertex 272.5631334089334 31.82024856807437 22.963045096984224
    vertex 278.5631334089334 33.820248568074355 22.96304509698428
    vertex 272.5631334089334 33.82024856807437 22.96304509698422
  endloop
endfacet
facet normal 0.8944271909999164 0.447213595499957 9.004135809107356e-15
  outer loop
    vertex 278.5631334089334 33.820248568074355 22.96304509698428
    vertex 279.56313340893365 31.820248568074348 0.878784067461056
    vertex 278.56313340893365 33.82024856807434 0.8787840674610446
  endloop
endfacet
facet normal 0.8944271909999164 0.447213595499957 9.004135809107356e-15
  outer loop
    vertex 279.56313340893365 31.820248568074348 0.878784067461056
    vertex 278.5631334089334 33.820248568074355 22.96304509698428
    vertex 279.5631334089334 31.82024856807436 22.963045096984295
  endloop
endfacet
facet normal 1.0705763910021517e-14 -6.880311996612563e-16 -1.0
  outer loop
    vertex 262.56313340893365 7.420248568074355 0.8787840674608899
    vertex 272.56313340893365 8.920248568074337 0.8787840674609964
    vertex 279.56313340893365 7.420248568074339 0.8787840674610707
  endloop
endfacet
facet normal 1.0705763910021517e-14 -6.880311996612563e-16 -1.0
  outer loop
    vertex 272.56313340893365 8.920248568074337 0.8787840674609964
    vertex 262.56313340893365 7.420248568074355 0.8787840674608899
    vertex 269.56313340893365 8.920248568074348 0.8787840674609668
  endloop
endfacet
facet normal 1.0705763910021517e-14 -6.880311996612563e-16 -1.0
  outer loop
    vertex 269.56313340893365 8.920248568074348 0.8787840674609668
    vertex 262.56313340893365 7.420248568074355 0.8787840674608899
    vertex 269.56313340893365 20.42024856807434 0.8787840674609578
  endloop
endfacet
facet normal 1.0705763910021517e-14 -6.880311996612563e-16 -1.0
  outer loop
    vertex 269.56313340893365 20.42024856807434 0.8787840674609578
    vertex 262.56313340893365 7.420248568074355 0.8787840674608899
    vertex 262.56313340893365 21.420248568074356 0.878784067460881
  endloop
endfacet
facet normal 1.0705763910021517e-14 -6.880311996612563e-16 -1.0
  outer loop
    vertex 272.56313340893365 8.920248568074337 0.8787840674609964
    vertex 279.56313340893365 31.820248568074348 0.878784067461056
    vertex 279.56313340893365 7.420248568074339 0.8787840674610707
  endloop
endfacet
facet normal 1.0705763910021517e-14 -6.880311996612563e-16 -1.0
  outer loop
    vertex 279.56313340893365 31.820248568074348 0.878784067461056
    vertex 272.56313340893365 8.920248568074337 0.8787840674609964
    vertex 272.56313340893365 20.42024856807434 0.8787840674609886
  endloop
endfacet
facet normal 1.0705763910021517e-14 -6.880311996612563e-16 -1.0
  outer loop
    vertex 279.56313340893365 31.820248568074348 0.878784067461056
    vertex 272.56313340893365 20.42024856807434 0.8787840674609886
    vertex 269.56313340893365 20.42024856807434 0.8787840674609578
  endloop
endfacet
facet normal 1.0705763910021517e-14 -6.880311996612563e-16 -1.0
  outer loop
    vertex 279.56313340893365 31.820248568074348 0.878784067461056
    vertex 269.56313340893365 20.42024856807434 0.8787840674609578
    vertex 262.56313340893365 21.420248568074356 0.878784067460881
  endloop
endfacet
facet normal 1.0705763910021517e-14 -6.880311996612563e-16 -1.0
  outer loop
    vertex 279.56313340893365 31.820248568074348 0.878784067461056
    vertex 262.56313340893365 21.420248568074356 0.878784067460881
    vertex 272.56313340893365 31.82024856807436 0.8787840674609783
  endloop
endfacet
facet normal 1.0705763910021517e-14 -6.880311996612563e-16 -1.0
  outer loop
    vertex 279.56313340893365 31.820248568074348 0.878784067461056
    vertex 272.56313340893365 31.82024856807436 0.8787840674609783
    vertex 278.56313340893365 33.82024856807434 0.8787840674610446
  endloop
endfacet
facet normal 1.0705763910021517e-14 -6.880311996612563e-16 -1.0
  outer loop
    vertex 278.56313340893365 33.82024856807434 0.8787840674610446
    vertex 272.56313340893365 31.82024856807436 0.8787840674609783
    vertex 272.56313340893365 33.820248568074355 0.8787840674609771
  endloop
endfacet
facet normal 0.720833064901856 -0.6931087162517846 7.992917960779394e-15
  outer loop
    vertex 263.5631334089334 21.420248568074367 21.96304509698414
    vertex 273.56313340893365 31.82024856807434 1.878784067460995
    vertex 273.5631334089334 31.82024856807436 21.963045096984235
  endloop
endfacet
facet normal 0.720833064901856 -0.6931087162517846 7.992917960779394e-15
  outer loop
    vertex 273.56313340893365 31.82024856807434 1.878784067460995
    vertex 263.5631334089334 21.420248568074367 21.96304509698414
    vertex 263.56313340893365 21.42024856807435 1.8787840674608949
  endloop
endfacet
facet normal -1.0 7.216449660063516e-16 -1.0321807222657157e-14
  outer loop
    vertex 278.5631334089334 21.420248568074353 21.9630450969843
    vertex 278.56313340893365 31.82024856807434 1.8787840674610439
    vertex 278.56313340893365 21.42024856807433 1.8787840674610496
  endloop
endfacet
facet normal -1.0 7.216449660063516e-16 -1.0321807222657157e-14
  outer loop
    vertex 278.56313340893365 31.82024856807434 1.8787840674610439
    vertex 278.5631334089334 21.420248568074353 21.9630450969843
    vertex 278.5631334089334 31.82024856807436 21.963045096984292
  endloop
endfacet
facet normal 1.0 -8.326672684688672e-16 8.470001771555915e-15
  outer loop
    vertex 269.56313340893365 20.42024856807434 1.8787840674609575
    vertex 269.56313340893365 8.920248568074348 0.8787840674609668
    vertex 269.56313340893365 20.42024856807434 0.8787840674609578
  endloop
endfacet
facet normal 1.0 -8.326672684688672e-16 8.470001771555915e-15
  outer loop
    vertex 269.56313340893365 8.920248568074348 0.8787840674609668
    vertex 269.56313340893365 20.42024856807434 1.8787840674609575
    vertex 269.56313340893365 8.92024856807435 1.8787840674609184
  endloop
endfacet
facet normal -1.0 -1.1102230246251563e-16 -7.698256021125106e-15
  outer loop
    vertex 272.56313340893365 8.920248568074337 0.8787840674609964
    vertex 272.56313340893365 20.42024856807434 1.8787840674609881
    vertex 272.56313340893365 20.42024856807434 0.8787840674609886
  endloop
endfacet
facet normal -1.0 -1.1102230246251563e-16 -7.698256021125106e-15
  outer loop
    vertex 272.56313340893365 20.42024856807434 1.8787840674609881
    vertex 272.56313340893365 8.920248568074337 0.8787840674609964
    vertex 272.56313340893365 8.920248568074339 1.8787840674609495
  endloop
endfacet
facet normal 3.885780586188047e-15 1.0 -2.068984203124635e-15
  outer loop
    vertex 272.56313340893365 8.920248568074337 0.8787840674609964
    vertex 269.56313340893365 8.92024856807435 1.8787840674609184
    vertex 272.56313340893365 8.920248568074339 1.8787840674609495
  endloop
endfacet
facet normal 3.885780586188047e-15 1.0 -2.068984203124635e-15
  outer loop
    vertex 269.56313340893365 8.92024856807435 1.8787840674609184
    vertex 272.56313340893365 8.920248568074337 0.8787840674609964
    vertex 269.56313340893365 8.920248568074348 0.8787840674609668
  endloop
endfacet
facet normal -6.106226635438361e-16 -1.0 8.400633965234796e-16
  outer loop
    vertex 262.5631334089334 20.420248568074364 22.96304509698413
    vertex 279.5631334089334 20.420248568074353 21.96304509698431
    vertex 279.5631334089334 20.420248568074353 22.963045096984303
  endloop
endfacet
facet normal -6.106226635438361e-16 -1.0 8.400633965234796e-16
  outer loop
    vertex 279.5631334089334 20.420248568074353 21.96304509698431
    vertex 262.5631334089334 20.420248568074364 22.96304509698413
    vertex 278.5631334089334 20.420248568074353 21.9630450969843
  endloop
endfacet
facet normal -6.106226635438361e-16 -1.0 8.400633965234796e-16
  outer loop
    vertex 278.5631334089334 20.420248568074353 21.9630450969843
    vertex 262.5631334089334 20.420248568074364 22.96304509698413
    vertex 277.16313340893345 20.420248568074353 20.720914582222665
  endloop
endfacet
facet normal -6.106226635438361e-16 -1.0 8.400633965234796e-16
  outer loop
    vertex 278.5631334089334 20.420248568074353 21.9630450969843
    vertex 277.16313340893345 20.420248568074353 20.720914582222665
    vertex 278.56313340893365 20.420248568074335 1.8787840674610499
  endloop
endfacet
facet normal -6.106226635438361e-16 -1.0 8.400633965234796e-16
  outer loop
    vertex 277.16313340893345 20.420248568074353 20.720914582222665
    vertex 262.5631334089334 20.420248568074364 22.96304509698413
    vertex 264.96313340893346 20.420248568074364 20.720914582222537
  endloop
endfacet
facet normal -6.106226635438361e-16 -1.0 8.400633965234796e-16
  outer loop
    vertex 264.96313340893346 20.420248568074364 20.720914582222537
    vertex 262.5631334089334 20.420248568074364 22.96304509698413
    vertex 263.5631334089334 20.420248568074364 21.96304509698414
  endloop
endfacet
facet normal -6.106226635438361e-16 -1.0 8.400633965234796e-16
  outer loop
    vertex 264.96313340893346 20.420248568074364 20.720914582222537
    vertex 263.5631334089334 20.420248568074364 21.96304509698414
    vertex 264.96313340893363 20.420248568074346 3.1209145822225364
  endloop
endfacet
facet normal -6.106226635438361e-16 -1.0 8.400633965234796e-16
  outer loop
    vertex 263.5631334089334 20.420248568074364 21.96304509698414
    vertex 262.5631334089334 20.420248568074364 22.96304509698413
    vertex 262.5631334089334 20.420248568074364 21.96304509698413
  endloop
endfacet
facet normal -6.106226635438361e-16 -1.0 8.400633965234796e-16
  outer loop
    vertex 278.56313340893365 20.420248568074335 1.8787840674610499
    vertex 277.1631334089336 20.420248568074335 3.120914582222662
    vertex 272.56313340893365 20.42024856807434 1.8787840674609881
  endloop
endfacet
facet normal -6.106226635438361e-16 -1.0 8.400633965234796e-16
  outer loop
    vertex 277.1631334089336 20.420248568074335 3.120914582222662
    vertex 278.56313340893365 20.420248568074335 1.8787840674610499
    vertex 277.16313340893345 20.420248568074353 20.720914582222665
  endloop
endfacet
facet normal -6.106226635438361e-16 -1.0 8.400633965234796e-16
  outer loop
    vertex 272.56313340893365 20.42024856807434 1.8787840674609881
    vertex 277.1631334089336 20.420248568074335 3.120914582222662
    vertex 264.96313340893363 20.420248568074346 3.1209145822225364
  endloop
endfacet
facet normal -6.106226635438361e-16 -1.0 8.400633965234796e-16
  outer loop
    vertex 272.56313340893365 20.42024856807434 1.8787840674609881
    vertex 264.96313340893363 20.420248568074346 3.1209145822225364
    vertex 269.56313340893365 20.42024856807434 1.8787840674609575
  endloop
endfacet
facet normal -6.106226635438361e-16 -1.0 8.400633965234796e-16
  outer loop
    vertex 272.56313340893365 20.42024856807434 1.8787840674609881
    vertex 269.56313340893365 20.42024856807434 1.8787840674609575
    vertex 272.56313340893365 20.42024856807434 0.8787840674609886
  endloop
endfacet
facet normal -6.106226635438361e-16 -1.0 8.400633965234796e-16
  outer loop
    vertex 269.56313340893365 20.42024856807434 1.8787840674609575
    vertex 264.96313340893363 20.420248568074346 3.1209145822225364
    vertex 263.56313340893365 20.420248568074346 1.8787840674608955
  endloop
endfacet
facet normal -6.106226635438361e-16 -1.0 8.400633965234796e-16
  outer loop
    vertex 263.56313340893365 20.420248568074346 1.8787840674608955
    vertex 264.96313340893363 20.420248568074346 3.1209145822225364
    vertex 263.5631334089334 20.420248568074364 21.96304509698414
  endloop
endfacet
facet normal -6.106226635438361e-16 -1.0 8.400633965234796e-16
  outer loop
    vertex 269.56313340893365 20.42024856807434 0.8787840674609578
    vertex 272.56313340893365 20.42024856807434 0.8787840674609886
    vertex 269.56313340893365 20.42024856807434 1.8787840674609575
  endloop
endfacet
facet normal 1.0 -7.216449660063516e-16 1.0215115580109281e-14
  outer loop
    vertex 263.5631334089334 20.420248568074364 21.96304509698414
    vertex 263.56313340893365 7.420248568074344 1.8787840674609053
    vertex 263.56313340893365 20.420248568074346 1.8787840674608955
  endloop
endfacet
facet normal 1.0 -7.216449660063516e-16 1.0215115580109281e-14
  outer loop
    vertex 263.56313340893365 7.420248568074344 1.8787840674609053
    vertex 263.5631334089334 20.420248568074364 21.96304509698414
    vertex 263.5631334089334 7.420248568074363 21.963045096984146
  endloop
endfacet
endsolid Radial Fan Mount:Duct
