solid OpenSCAD_Model
  facet normal 0.0504672 -0.998726 0
    outer loop
      vertex 11.5698 0.0197325 0
      vertex 14.6845 0.177127 3.5
      vertex 11.5698 0.0197325 3.5
    endloop
  endfacet
  facet normal 0.0504672 -0.998726 0
    outer loop
      vertex 14.6845 0.177127 3.5
      vertex 11.5698 0.0197325 0
      vertex 14.6845 0.177127 0
    endloop
  endfacet
  facet normal 0.435302 -0.900284 0
    outer loop
      vertex 28.2242 3.15453 0
      vertex 30.2254 4.12215 3.5
      vertex 28.2242 3.15453 3.5
    endloop
  endfacet
  facet normal 0.435302 -0.900284 0
    outer loop
      vertex 30.2254 4.12215 3.5
      vertex 28.2242 3.15453 0
      vertex 30.2254 4.12215 0
    endloop
  endfacet
  facet normal 0 0 -1
    outer loop
      vertex 10 10 0
      vertex 7.7362 5.78067 0
      vertex 7.75 6 0
    endloop
  endfacet
  facet normal 0 0 -1
    outer loop
      vertex 10 0.0197325 0
      vertex 7.69502 5.56479 0
      vertex 7.7362 5.78067 0
    endloop
  endfacet
  facet normal 0 0 -1
    outer loop
      vertex 10 0.0197325 0
      vertex 7.62711 5.35578 0
      vertex 7.69502 5.56479 0
    endloop
  endfacet
  facet normal 0 0 -1
    outer loop
      vertex 10 0.0197325 0
      vertex 7.53354 5.15693 0
      vertex 7.62711 5.35578 0
    endloop
  endfacet
  facet normal 0 0 -1
    outer loop
      vertex 6.74511 4.41655 0
      vertex 8 0.0157862 0
      vertex 7.49767 0.0157862 0
    endloop
  endfacet
  facet normal 0 0 -1
    outer loop
      vertex 10 0.0197325 0
      vertex 7.41578 4.97138 0
      vertex 7.53354 5.15693 0
    endloop
  endfacet
  facet normal 0 0 -1
    outer loop
      vertex 10 0.0197325 0
      vertex 7.27569 4.80204 0
      vertex 7.41578 4.97138 0
    endloop
  endfacet
  facet normal 0 0 -1
    outer loop
      vertex 10 0.0197325 0
      vertex 7.11549 4.6516 0
      vertex 7.27569 4.80204 0
    endloop
  endfacet
  facet normal 0 0 -1
    outer loop
      vertex 8 0.0157862 0
      vertex 6.9377 4.52243 0
      vertex 7.11549 4.6516 0
    endloop
  endfacet
  facet normal 0 0 -1
    outer loop
      vertex 8 0.0157862 0
      vertex 6.74511 4.41655 0
      vertex 6.9377 4.52243 0
    endloop
  endfacet
  facet normal 0 0 -1
    outer loop
      vertex 7.49767 0.0157862 0
      vertex 6.54078 4.33565 0
      vertex 6.74511 4.41655 0
    endloop
  endfacet
  facet normal 0 0 -1
    outer loop
      vertex 6.50095 0.141702 0
      vertex 6.54078 4.33565 0
      vertex 7.49767 0.0157862 0
    endloop
  endfacet
  facet normal 0 0 -1
    outer loop
      vertex 6.50095 0.141702 0
      vertex 6.32792 4.281 0
      vertex 6.54078 4.33565 0
    endloop
  endfacet
  facet normal 0 0 -1
    outer loop
      vertex 5.52786 0.391547 0
      vertex 6.32792 4.281 0
      vertex 6.50095 0.141702 0
    endloop
  endfacet
  facet normal 0 0 -1
    outer loop
      vertex 6.32792 4.281 0
      vertex 5.52786 0.391547 0
      vertex 6.10988 4.25345 0
    endloop
  endfacet
  facet normal -0 0 -1
    outer loop
      vertex 6.10988 4.25345 0
      vertex 5.52786 0.391547 0
      vertex 5.89012 4.25345 0
    endloop
  endfacet
  facet normal 0 0 -1
    outer loop
      vertex 4.59377 0.761383 0
      vertex 5.89012 4.25345 0
      vertex 5.52786 0.391547 0
    endloop
  endfacet
  facet normal -0 0 -1
    outer loop
      vertex 5.89012 4.25345 0
      vertex 4.59377 0.761383 0
      vertex 5.67208 4.281 0
    endloop
  endfacet
  facet normal -0 0 -1
    outer loop
      vertex 5.67208 4.281 0
      vertex 4.59377 0.761383 0
      vertex 5.45922 4.33565 0
    endloop
  endfacet
  facet normal 0 0 -1
    outer loop
      vertex 3.71339 1.24538 0
      vertex 5.45922 4.33565 0
      vertex 4.59377 0.761383 0
    endloop
  endfacet
  facet normal -0 0 -1
    outer loop
      vertex 5.45922 4.33565 0
      vertex 3.71339 1.24538 0
      vertex 5.25489 4.41655 0
    endloop
  endfacet
  facet normal -0 0 -1
    outer loop
      vertex 5.25489 4.41655 0
      vertex 3.71339 1.24538 0
      vertex 5.0623 4.52243 0
    endloop
  endfacet
  facet normal 0 0 -1
    outer loop
      vertex 2.90061 1.83589 0
      vertex 5.0623 4.52243 0
      vertex 3.71339 1.24538 0
    endloop
  endfacet
  facet normal -0 0 -1
    outer loop
      vertex 5.0623 4.52243 0
      vertex 2.90061 1.83589 0
      vertex 4.88451 4.6516 0
    endloop
  endfacet
  facet normal 0 0 -1
    outer loop
      vertex 2.16825 2.52362 0
      vertex 4.88451 4.6516 0
      vertex 2.90061 1.83589 0
    endloop
  endfacet
  facet normal -0 0 -1
    outer loop
      vertex 4.88451 4.6516 0
      vertex 2.16825 2.52362 0
      vertex 4.72431 4.80204 0
    endloop
  endfacet
  facet normal -0 0 -1
    outer loop
      vertex 4.72431 4.80204 0
      vertex 2.16825 2.52362 0
      vertex 4.58422 4.97138 0
    endloop
  endfacet
  facet normal 0 0 -1
    outer loop
      vertex 1.52786 3.29772 0
      vertex 4.58422 4.97138 0
      vertex 2.16825 2.52362 0
    endloop
  endfacet
  facet normal -0 0 -1
    outer loop
      vertex 4.46646 5.15693 0
      vertex 1.52786 3.29772 0
      vertex 4.37289 5.35578 0
    endloop
  endfacet
  facet normal -0 0 -1
    outer loop
      vertex 4.58422 4.97138 0
      vertex 1.52786 3.29772 0
      vertex 4.46646 5.15693 0
    endloop
  endfacet
  facet normal 0 0 -1
    outer loop
      vertex 8 0.0157862 0
      vertex 10 0.0197325 0
      vertex 10 0 0
    endloop
  endfacet
  facet normal 0 0 -1
    outer loop
      vertex 14.6845 0.177127 0
      vertex 7.7362 5.78067 0
      vertex 10 10 0
    endloop
  endfacet
  facet normal 0 0 -1
    outer loop
      vertex 7.62711 6.64422 0
      vertex 10 10 0
      vertex 7.69502 6.43521 0
    endloop
  endfacet
  facet normal 0 0 -1
    outer loop
      vertex 7.53354 6.84307 0
      vertex 10 10 0
      vertex 7.62711 6.64422 0
    endloop
  endfacet
  facet normal 0 0 -1
    outer loop
      vertex 8 0.0157862 0
      vertex 10 0 0
      vertex 8 0 0
    endloop
  endfacet
  facet normal 0 0 -1
    outer loop
      vertex 7.11549 4.6516 0
      vertex 10 0.0197325 0
      vertex 8 0.0157862 0
    endloop
  endfacet
  facet normal 0 0 -1
    outer loop
      vertex 10 10 0
      vertex 7.75 6 0
      vertex 7.7362 6.21933 0
    endloop
  endfacet
  facet normal 0 0 -1
    outer loop
      vertex 10 10 0
      vertex 7.7362 6.21933 0
      vertex 7.69502 6.43521 0
    endloop
  endfacet
  facet normal 0 0 -1
    outer loop
      vertex 7.41578 7.02862 0
      vertex 10 10 0
      vertex 7.53354 6.84307 0
    endloop
  endfacet
  facet normal 0 0 -1
    outer loop
      vertex 7.27569 7.19796 0
      vertex 10 10 0
      vertex 7.41578 7.02862 0
    endloop
  endfacet
  facet normal 0 0 -1
    outer loop
      vertex 7.11549 7.3484 0
      vertex 10 10 0
      vertex 7.27569 7.19796 0
    endloop
  endfacet
  facet normal 0 0 -1
    outer loop
      vertex 6.9377 7.47757 0
      vertex 10 10 0
      vertex 7.11549 7.3484 0
    endloop
  endfacet
  facet normal 0 -0 -1
    outer loop
      vertex 2.71031 27.1137 0
      vertex 10 10 0
      vertex 1.90983 24.6946 0
    endloop
  endfacet
  facet normal 0 0 -1
    outer loop
      vertex 10 10 0
      vertex 2.71031 27.1137 0
      vertex 10 34.9507 0
    endloop
  endfacet
  facet normal 0 0 -1
    outer loop
      vertex 6.74511 7.58345 0
      vertex 10 10 0
      vertex 6.9377 7.47757 0
    endloop
  endfacet
  facet normal 0 -0 -1
    outer loop
      vertex 4.64173 31.1082 0
      vertex 10 34.9507 0
      vertex 3.62576 29.2628 0
    endloop
  endfacet
  facet normal 0 0 -1
    outer loop
      vertex 6.54078 7.66435 0
      vertex 10 10 0
      vertex 6.74511 7.58345 0
    endloop
  endfacet
  facet normal 0 0 -1
    outer loop
      vertex 6.32792 7.719 0
      vertex 10 10 0
      vertex 6.54078 7.66435 0
    endloop
  endfacet
  facet normal 0 0 -1
    outer loop
      vertex 6.10988 7.74655 0
      vertex 10 10 0
      vertex 6.32792 7.719 0
    endloop
  endfacet
  facet normal 0 0 -1
    outer loop
      vertex 5.89012 7.74655 0
      vertex 10 10 0
      vertex 6.10988 7.74655 0
    endloop
  endfacet
  facet normal -0 0 -1
    outer loop
      vertex 10 10 0
      vertex 5.89012 7.74655 0
      vertex 0.0788527 13.1333 0
    endloop
  endfacet
  facet normal 0 -0 -1
    outer loop
      vertex 5.74221 32.6207 0
      vertex 10 34.9507 0
      vertex 4.64173 31.1082 0
    endloop
  endfacet
  facet normal 0 0 -1
    outer loop
      vertex 0.0788527 13.1333 0
      vertex 5.89012 7.74655 0
      vertex 5.67208 7.719 0
    endloop
  endfacet
  facet normal 0 0 -1
    outer loop
      vertex 0.0788527 13.1333 0
      vertex 5.67208 7.719 0
      vertex 5.45922 7.66435 0
    endloop
  endfacet
  facet normal 0 0 -1
    outer loop
      vertex 0.0788527 13.1333 0
      vertex 5.45922 7.66435 0
      vertex 5.25489 7.58345 0
    endloop
  endfacet
  facet normal 0 0 -1
    outer loop
      vertex 0 10 0
      vertex 5.25489 7.58345 0
      vertex 5.0623 7.47757 0
    endloop
  endfacet
  facet normal 0 0 -1
    outer loop
      vertex 0 10 0
      vertex 5.0623 7.47757 0
      vertex 4.88451 7.3484 0
    endloop
  endfacet
  facet normal 0 0 -1
    outer loop
      vertex 0 10 0
      vertex 4.88451 7.3484 0
      vertex 4.72431 7.19796 0
    endloop
  endfacet
  facet normal 0 -0 -1
    outer loop
      vertex 6.90983 33.7764 0
      vertex 10 34.9507 0
      vertex 5.74221 32.6207 0
    endloop
  endfacet
  facet normal 0 0 -1
    outer loop
      vertex 0 8 0
      vertex 4.72431 7.19796 0
      vertex 4.58422 7.02862 0
    endloop
  endfacet
  facet normal 0 0 -1
    outer loop
      vertex 0 8 0
      vertex 4.58422 7.02862 0
      vertex 4.46646 6.84307 0
    endloop
  endfacet
  facet normal 0 0 -1
    outer loop
      vertex 0 8 0
      vertex 4.46646 6.84307 0
      vertex 4.37289 6.64422 0
    endloop
  endfacet
  facet normal 0 0 -1
    outer loop
      vertex 0.0630817 6.99733 0
      vertex 4.37289 6.64422 0
      vertex 4.30498 6.43521 0
    endloop
  endfacet
  facet normal 0 0 -1
    outer loop
      vertex 0.251334 6.01048 0
      vertex 4.30498 6.43521 0
      vertex 4.2638 6.21933 0
    endloop
  endfacet
  facet normal 0 0 -1
    outer loop
      vertex 0.251334 6.01048 0
      vertex 4.2638 6.21933 0
      vertex 4.25 6 0
    endloop
  endfacet
  facet normal 0 0 -1
    outer loop
      vertex 0.989546 4.14597 0
      vertex 4.37289 5.35578 0
      vertex 1.52786 3.29772 0
    endloop
  endfacet
  facet normal 0 -0 -1
    outer loop
      vertex 3.62576 29.2628 0
      vertex 10 34.9507 0
      vertex 2.71031 27.1137 0
    endloop
  endfacet
  facet normal -0 0 -1
    outer loop
      vertex 4.37289 5.35578 0
      vertex 0.989546 4.14597 0
      vertex 4.30498 5.56479 0
    endloop
  endfacet
  facet normal 0 -0 -1
    outer loop
      vertex 8.12619 34.5572 0
      vertex 10 34.9507 0
      vertex 6.90983 33.7764 0
    endloop
  endfacet
  facet normal -0 0 -1
    outer loop
      vertex 4.30498 5.56479 0
      vertex 0.989546 4.14597 0
      vertex 4.2638 5.78067 0
    endloop
  endfacet
  facet normal -0 0 -1
    outer loop
      vertex 10 34.9507 0
      vertex 8.12619 34.5572 0
      vertex 9.37209 34.9507 0
    endloop
  endfacet
  facet normal 0 0 -1
    outer loop
      vertex 0.561788 5.055 0
      vertex 4.2638 5.78067 0
      vertex 0.989546 4.14597 0
    endloop
  endfacet
  facet normal 0 0 -1
    outer loop
      vertex 10 10 0
      vertex 1.23693 22.0438 0
      vertex 1.90983 24.6946 0
    endloop
  endfacet
  facet normal -0 0 -1
    outer loop
      vertex 4.2638 5.78067 0
      vertex 0.561788 5.055 0
      vertex 4.25 6 0
    endloop
  endfacet
  facet normal 0 0 -1
    outer loop
      vertex 10 10 0
      vertex 0.702234 19.2031 0
      vertex 1.23693 22.0438 0
    endloop
  endfacet
  facet normal 0 0 -1
    outer loop
      vertex 0.251334 6.01048 0
      vertex 4.25 6 0
      vertex 0.561788 5.055 0
    endloop
  endfacet
  facet normal 0 0 -1
    outer loop
      vertex 10 10 0
      vertex 0.314168 16.2172 0
      vertex 0.702234 19.2031 0
    endloop
  endfacet
  facet normal -0 0 -1
    outer loop
      vertex 4.30498 6.43521 0
      vertex 0.251334 6.01048 0
      vertex 0.0630817 6.99733 0
    endloop
  endfacet
  facet normal 0 0 -1
    outer loop
      vertex 10 10 0
      vertex 0.0788527 13.1333 0
      vertex 0.314168 16.2172 0
    endloop
  endfacet
  facet normal 0 0 -1
    outer loop
      vertex 4.37289 6.64422 0
      vertex 0.0630817 6.99733 0
      vertex 0 8 0
    endloop
  endfacet
  facet normal 0 0 -1
    outer loop
      vertex 4.72431 7.19796 0
      vertex 0 8 0
      vertex 0 10 0
    endloop
  endfacet
  facet normal 0 0 -1
    outer loop
      vertex 5.25489 7.58345 0
      vertex 0 10 0
      vertex 0.0788527 13.1333 0
    endloop
  endfacet
  facet normal 0 0 -1
    outer loop
      vertex 34.2146 7.5131 0
      vertex 35 10 0
      vertex 34.8029 8.74667 0
    endloop
  endfacet
  facet normal 0 0 -1
    outer loop
      vertex 33.2444 6.31875 0
      vertex 35 10 0
      vertex 34.2146 7.5131 0
    endloop
  endfacet
  facet normal 0 0 -1
    outer loop
      vertex 31.9077 5.18246 0
      vertex 35 10 0
      vertex 33.2444 6.31875 0
    endloop
  endfacet
  facet normal 0 0 -1
    outer loop
      vertex 30.2254 4.12215 0
      vertex 35 10 0
      vertex 31.9077 5.18246 0
    endloop
  endfacet
  facet normal 0 0 -1
    outer loop
      vertex 28.2242 3.15453 0
      vertex 35 10 0
      vertex 30.2254 4.12215 0
    endloop
  endfacet
  facet normal 0 0 -1
    outer loop
      vertex 10 10 0
      vertex 28.2242 3.15453 0
      vertex 25.9356 2.29487 0
    endloop
  endfacet
  facet normal 0 0 -1
    outer loop
      vertex 10 10 0
      vertex 25.9356 2.29487 0
      vertex 23.3957 1.55672 0
    endloop
  endfacet
  facet normal 0 0 -1
    outer loop
      vertex 10 10 0
      vertex 23.3957 1.55672 0
      vertex 20.6445 0.951729 0
    endloop
  endfacet
  facet normal 0 0 -1
    outer loop
      vertex 10 10 0
      vertex 20.6445 0.951729 0
      vertex 17.7254 0.489434 0
    endloop
  endfacet
  facet normal 0 0 -1
    outer loop
      vertex 10 10 0
      vertex 17.7254 0.489434 0
      vertex 14.6845 0.177127 0
    endloop
  endfacet
  facet normal 0 0 -1
    outer loop
      vertex 7.7362 5.78067 0
      vertex 14.6845 0.177127 0
      vertex 11.5698 0.0197325 0
    endloop
  endfacet
  facet normal 0 0 -1
    outer loop
      vertex 7.7362 5.78067 0
      vertex 11.5698 0.0197325 0
      vertex 10 0.0197325 0
    endloop
  endfacet
  facet normal 0 0 -1
    outer loop
      vertex 28.2242 3.15453 0
      vertex 10 10 0
      vertex 35 10 0
    endloop
  endfacet
  facet normal 0.102165 -0.994767 0
    outer loop
      vertex 14.6845 0.177127 0
      vertex 17.7254 0.489434 3.5
      vertex 14.6845 0.177127 3.5
    endloop
  endfacet
  facet normal 0.102165 -0.994767 0
    outer loop
      vertex 17.7254 0.489434 3.5
      vertex 14.6845 0.177127 0
      vertex 17.7254 0.489434 0
    endloop
  endfacet
  facet normal 0.987855 -0.155376 0
    outer loop
      vertex 34.8029 8.74667 3.5
      vertex 35 10 0
      vertex 35 10 3.5
    endloop
  endfacet
  facet normal 0.987855 -0.155376 0
    outer loop
      vertex 35 10 0
      vertex 34.8029 8.74667 3.5
      vertex 34.8029 8.74667 0
    endloop
  endfacet
  facet normal 0.776191 -0.630498 0
    outer loop
      vertex 33.2444 6.31875 3.5
      vertex 34.2146 7.5131 0
      vertex 34.2146 7.5131 3.5
    endloop
  endfacet
  facet normal 0.776191 -0.630498 0
    outer loop
      vertex 34.2146 7.5131 0
      vertex 33.2444 6.31875 3.5
      vertex 33.2444 6.31875 0
    endloop
  endfacet
  facet normal 0.902611 -0.430458 0
    outer loop
      vertex 34.2146 7.5131 3.5
      vertex 34.8029 8.74667 0
      vertex 34.8029 8.74667 3.5
    endloop
  endfacet
  facet normal 0.902611 -0.430458 0
    outer loop
      vertex 34.8029 8.74667 0
      vertex 34.2146 7.5131 3.5
      vertex 34.2146 7.5131 0
    endloop
  endfacet
  facet normal 0.279071 -0.960271 0
    outer loop
      vertex 23.3957 1.55672 0
      vertex 25.9356 2.29487 3.5
      vertex 23.3957 1.55672 3.5
    endloop
  endfacet
  facet normal 0.279071 -0.960271 0
    outer loop
      vertex 25.9356 2.29487 3.5
      vertex 23.3957 1.55672 0
      vertex 25.9356 2.29487 0
    endloop
  endfacet
  facet normal 0.214771 -0.976665 0
    outer loop
      vertex 20.6445 0.951729 0
      vertex 23.3957 1.55672 3.5
      vertex 20.6445 0.951729 3.5
    endloop
  endfacet
  facet normal 0.214771 -0.976665 0
    outer loop
      vertex 23.3957 1.55672 3.5
      vertex 20.6445 0.951729 0
      vertex 23.3957 1.55672 0
    endloop
  endfacet
  facet normal 0 0 1
    outer loop
      vertex 10 0.0197325 3.5
      vertex 7.8486 3.08707 3.5
      vertex 8 0.0157862 3.5
    endloop
  endfacet
  facet normal -0 0 1
    outer loop
      vertex 7.46894 2.87835 3.5
      vertex 8 0.0157862 3.5
      vertex 7.8486 3.08707 3.5
    endloop
  endfacet
  facet normal -0 0 1
    outer loop
      vertex 7.06611 2.71886 3.5
      vertex 8 0.0157862 3.5
      vertex 7.46894 2.87835 3.5
    endloop
  endfacet
  facet normal 0 0 1
    outer loop
      vertex 8 0.0157862 3.5
      vertex 7.06611 2.71886 3.5
      vertex 7.49767 0.0157862 3.5
    endloop
  endfacet
  facet normal -0 0 1
    outer loop
      vertex 6.64647 2.61111 3.5
      vertex 7.49767 0.0157862 3.5
      vertex 7.06611 2.71886 3.5
    endloop
  endfacet
  facet normal 0 0 1
    outer loop
      vertex 6.64647 2.61111 3.5
      vertex 6.50095 0.141702 3.5
      vertex 7.49767 0.0157862 3.5
    endloop
  endfacet
  facet normal -0 0 1
    outer loop
      vertex 6.21663 2.55681 3.5
      vertex 6.50095 0.141702 3.5
      vertex 6.64647 2.61111 3.5
    endloop
  endfacet
  facet normal 0 0 1
    outer loop
      vertex 5.52786 0.391547 3.5
      vertex 6.21663 2.55681 3.5
      vertex 5.78337 2.55681 3.5
    endloop
  endfacet
  facet normal 0 0 1
    outer loop
      vertex 6.21663 2.55681 3.5
      vertex 5.52786 0.391547 3.5
      vertex 6.50095 0.141702 3.5
    endloop
  endfacet
  facet normal 0 0 1
    outer loop
      vertex 5.35353 2.61111 3.5
      vertex 5.52786 0.391547 3.5
      vertex 5.78337 2.55681 3.5
    endloop
  endfacet
  facet normal 0 0 1
    outer loop
      vertex 4.59377 0.761383 3.5
      vertex 5.35353 2.61111 3.5
      vertex 4.93389 2.71886 3.5
    endloop
  endfacet
  facet normal 0 0 1
    outer loop
      vertex 5.35353 2.61111 3.5
      vertex 4.59377 0.761383 3.5
      vertex 5.52786 0.391547 3.5
    endloop
  endfacet
  facet normal 0 0 1
    outer loop
      vertex 3.71339 1.24538 3.5
      vertex 4.93389 2.71886 3.5
      vertex 4.53106 2.87835 3.5
    endloop
  endfacet
  facet normal 0 0 1
    outer loop
      vertex 3.71339 1.24538 3.5
      vertex 4.53106 2.87835 3.5
      vertex 4.1514 3.08707 3.5
    endloop
  endfacet
  facet normal 0 0 1
    outer loop
      vertex 2.90061 1.83589 3.5
      vertex 4.1514 3.08707 3.5
      vertex 3.80089 3.34173 3.5
    endloop
  endfacet
  facet normal 0 0 1
    outer loop
      vertex 4.93389 2.71886 3.5
      vertex 3.71339 1.24538 3.5
      vertex 4.59377 0.761383 3.5
    endloop
  endfacet
  facet normal 0 0 1
    outer loop
      vertex 2.16825 2.52362 3.5
      vertex 3.80089 3.34173 3.5
      vertex 3.48506 3.63831 3.5
    endloop
  endfacet
  facet normal 0 0 1
    outer loop
      vertex 2.16825 2.52362 3.5
      vertex 3.48506 3.63831 3.5
      vertex 3.20889 3.97214 3.5
    endloop
  endfacet
  facet normal 0 0 1
    outer loop
      vertex 1.52786 3.29772 3.5
      vertex 3.20889 3.97214 3.5
      vertex 2.97674 4.33795 3.5
    endloop
  endfacet
  facet normal 0 0 1
    outer loop
      vertex 4.1514 3.08707 3.5
      vertex 2.90061 1.83589 3.5
      vertex 3.71339 1.24538 3.5
    endloop
  endfacet
  facet normal 0 0 1
    outer loop
      vertex 1.52786 3.29772 3.5
      vertex 2.97674 4.33795 3.5
      vertex 2.79227 4.72997 3.5
    endloop
  endfacet
  facet normal 0 0 1
    outer loop
      vertex 0.989546 4.14597 3.5
      vertex 2.79227 4.72997 3.5
      vertex 2.65839 5.14202 3.5
    endloop
  endfacet
  facet normal 0 0 1
    outer loop
      vertex 0.561788 5.055 3.5
      vertex 2.65839 5.14202 3.5
      vertex 2.5772 5.5676 3.5
    endloop
  endfacet
  facet normal 0 0 1
    outer loop
      vertex 3.80089 3.34173 3.5
      vertex 2.16825 2.52362 3.5
      vertex 2.90061 1.83589 3.5
    endloop
  endfacet
  facet normal 0 0 1
    outer loop
      vertex 0.561788 5.055 3.5
      vertex 2.5772 5.5676 3.5
      vertex 2.55 6 3.5
    endloop
  endfacet
  facet normal -0 0 1
    outer loop
      vertex 2.71031 27.1137 3.5
      vertex 10 10 3.5
      vertex 10 34.9507 3.5
    endloop
  endfacet
  facet normal 0 0 1
    outer loop
      vertex 10 10 3.5
      vertex 9.45 6 3.5
      vertex 10 0.0197325 3.5
    endloop
  endfacet
  facet normal -0 0 1
    outer loop
      vertex 9.4228 5.5676 3.5
      vertex 10 0.0197325 3.5
      vertex 9.45 6 3.5
    endloop
  endfacet
  facet normal 0 0 1
    outer loop
      vertex 10 10 3.5
      vertex 9.4228 6.4324 3.5
      vertex 9.45 6 3.5
    endloop
  endfacet
  facet normal 0 0 1
    outer loop
      vertex 8.12619 34.5572 3.5
      vertex 10 34.9507 3.5
      vertex 9.37209 34.9507 3.5
    endloop
  endfacet
  facet normal 0 0 1
    outer loop
      vertex 10 10 3.5
      vertex 9.34161 6.85798 3.5
      vertex 9.4228 6.4324 3.5
    endloop
  endfacet
  facet normal 0 0 1
    outer loop
      vertex 10 10 3.5
      vertex 9.20773 7.27003 3.5
      vertex 9.34161 6.85798 3.5
    endloop
  endfacet
  facet normal 0 0 1
    outer loop
      vertex 10 10 3.5
      vertex 9.02326 7.66205 3.5
      vertex 9.20773 7.27003 3.5
    endloop
  endfacet
  facet normal 0 0 1
    outer loop
      vertex 10 10 3.5
      vertex 8.79111 8.02786 3.5
      vertex 9.02326 7.66205 3.5
    endloop
  endfacet
  facet normal 0 0 1
    outer loop
      vertex 10 10 3.5
      vertex 8.51494 8.36169 3.5
      vertex 8.79111 8.02786 3.5
    endloop
  endfacet
  facet normal 0 0 1
    outer loop
      vertex 10 10 3.5
      vertex 8.19911 8.65827 3.5
      vertex 8.51494 8.36169 3.5
    endloop
  endfacet
  facet normal 0 0 1
    outer loop
      vertex 10 34.9507 3.5
      vertex 8.12619 34.5572 3.5
      vertex 6.90983 33.7764 3.5
    endloop
  endfacet
  facet normal -0 0 1
    outer loop
      vertex 1.90983 24.6946 3.5
      vertex 10 10 3.5
      vertex 2.71031 27.1137 3.5
    endloop
  endfacet
  facet normal 0 0 1
    outer loop
      vertex 10 10 3.5
      vertex 7.8486 8.91293 3.5
      vertex 8.19911 8.65827 3.5
    endloop
  endfacet
  facet normal -0 0 1
    outer loop
      vertex 1.23693 22.0438 3.5
      vertex 10 10 3.5
      vertex 1.90983 24.6946 3.5
    endloop
  endfacet
  facet normal 0 0 1
    outer loop
      vertex 10 34.9507 3.5
      vertex 6.90983 33.7764 3.5
      vertex 5.74221 32.6207 3.5
    endloop
  endfacet
  facet normal 0 0 1
    outer loop
      vertex 10 34.9507 3.5
      vertex 3.62576 29.2628 3.5
      vertex 2.71031 27.1137 3.5
    endloop
  endfacet
  facet normal -0 0 1
    outer loop
      vertex 0.702234 19.2031 3.5
      vertex 10 10 3.5
      vertex 1.23693 22.0438 3.5
    endloop
  endfacet
  facet normal 0 0 1
    outer loop
      vertex 10 10 3.5
      vertex 7.46894 9.12165 3.5
      vertex 7.8486 8.91293 3.5
    endloop
  endfacet
  facet normal 0 0 1
    outer loop
      vertex 10 34.9507 3.5
      vertex 5.74221 32.6207 3.5
      vertex 4.64173 31.1082 3.5
    endloop
  endfacet
  facet normal 0 0 1
    outer loop
      vertex 10 10 3.5
      vertex 7.06611 9.28114 3.5
      vertex 7.46894 9.12165 3.5
    endloop
  endfacet
  facet normal -0 0 1
    outer loop
      vertex 0.314168 16.2172 3.5
      vertex 10 10 3.5
      vertex 0.702234 19.2031 3.5
    endloop
  endfacet
  facet normal 0 0 1
    outer loop
      vertex 10 34.9507 3.5
      vertex 4.64173 31.1082 3.5
      vertex 3.62576 29.2628 3.5
    endloop
  endfacet
  facet normal 0 0 1
    outer loop
      vertex 10 10 3.5
      vertex 6.64647 9.38889 3.5
      vertex 7.06611 9.28114 3.5
    endloop
  endfacet
  facet normal 0 -0 1
    outer loop
      vertex 6.21663 9.44319 3.5
      vertex 10 10 3.5
      vertex 0.314168 16.2172 3.5
    endloop
  endfacet
  facet normal 0 0 1
    outer loop
      vertex 10 10 3.5
      vertex 6.21663 9.44319 3.5
      vertex 6.64647 9.38889 3.5
    endloop
  endfacet
  facet normal 0 0 1
    outer loop
      vertex 6.21663 9.44319 3.5
      vertex 0.314168 16.2172 3.5
      vertex 5.78337 9.44319 3.5
    endloop
  endfacet
  facet normal 0 0 1
    outer loop
      vertex 5.78337 9.44319 3.5
      vertex 0.314168 16.2172 3.5
      vertex 5.35353 9.38889 3.5
    endloop
  endfacet
  facet normal -0 0 1
    outer loop
      vertex 0.0788527 13.1333 3.5
      vertex 5.35353 9.38889 3.5
      vertex 0.314168 16.2172 3.5
    endloop
  endfacet
  facet normal 0 0 1
    outer loop
      vertex 5.35353 9.38889 3.5
      vertex 0.0788527 13.1333 3.5
      vertex 4.93389 9.28114 3.5
    endloop
  endfacet
  facet normal 0 0 1
    outer loop
      vertex 4.93389 9.28114 3.5
      vertex 0.0788527 13.1333 3.5
      vertex 4.53106 9.12165 3.5
    endloop
  endfacet
  facet normal 0 0 1
    outer loop
      vertex 4.53106 9.12165 3.5
      vertex 0.0788527 13.1333 3.5
      vertex 4.1514 8.91293 3.5
    endloop
  endfacet
  facet normal -0 0 1
    outer loop
      vertex 0 10 3.5
      vertex 4.1514 8.91293 3.5
      vertex 0.0788527 13.1333 3.5
    endloop
  endfacet
  facet normal 0 0 1
    outer loop
      vertex 4.1514 8.91293 3.5
      vertex 0 10 3.5
      vertex 3.80089 8.65827 3.5
    endloop
  endfacet
  facet normal 0 0 1
    outer loop
      vertex 3.80089 8.65827 3.5
      vertex 0 10 3.5
      vertex 3.48506 8.36169 3.5
    endloop
  endfacet
  facet normal 0 0 1
    outer loop
      vertex 3.48506 8.36169 3.5
      vertex 0 10 3.5
      vertex 3.20889 8.02786 3.5
    endloop
  endfacet
  facet normal 0 0 1
    outer loop
      vertex 0 8 3.5
      vertex 3.20889 8.02786 3.5
      vertex 0 10 3.5
    endloop
  endfacet
  facet normal 0 0 1
    outer loop
      vertex 3.20889 8.02786 3.5
      vertex 0 8 3.5
      vertex 2.97674 7.66205 3.5
    endloop
  endfacet
  facet normal 0 0 1
    outer loop
      vertex 2.97674 7.66205 3.5
      vertex 0 8 3.5
      vertex 2.79227 7.27003 3.5
    endloop
  endfacet
  facet normal 0 -0 1
    outer loop
      vertex 0.0630817 6.99733 3.5
      vertex 2.79227 7.27003 3.5
      vertex 0 8 3.5
    endloop
  endfacet
  facet normal 0 0 1
    outer loop
      vertex 2.79227 7.27003 3.5
      vertex 0.0630817 6.99733 3.5
      vertex 2.65839 6.85798 3.5
    endloop
  endfacet
  facet normal 0 0 1
    outer loop
      vertex 2.65839 6.85798 3.5
      vertex 0.0630817 6.99733 3.5
      vertex 2.5772 6.4324 3.5
    endloop
  endfacet
  facet normal 0 -0 1
    outer loop
      vertex 0.251334 6.01048 3.5
      vertex 2.5772 6.4324 3.5
      vertex 0.0630817 6.99733 3.5
    endloop
  endfacet
  facet normal 0 0 1
    outer loop
      vertex 3.20889 3.97214 3.5
      vertex 1.52786 3.29772 3.5
      vertex 2.16825 2.52362 3.5
    endloop
  endfacet
  facet normal 0 0 1
    outer loop
      vertex 2.79227 4.72997 3.5
      vertex 0.989546 4.14597 3.5
      vertex 1.52786 3.29772 3.5
    endloop
  endfacet
  facet normal 0 0 1
    outer loop
      vertex 2.65839 5.14202 3.5
      vertex 0.561788 5.055 3.5
      vertex 0.989546 4.14597 3.5
    endloop
  endfacet
  facet normal 0 0 1
    outer loop
      vertex 2.55 6 3.5
      vertex 0.251334 6.01048 3.5
      vertex 0.561788 5.055 3.5
    endloop
  endfacet
  facet normal 0 0 1
    outer loop
      vertex 2.5772 6.4324 3.5
      vertex 0.251334 6.01048 3.5
      vertex 2.55 6 3.5
    endloop
  endfacet
  facet normal 0 0 1
    outer loop
      vertex 35 10 3.5
      vertex 34.2146 7.5131 3.5
      vertex 34.8029 8.74667 3.5
    endloop
  endfacet
  facet normal 0 0 1
    outer loop
      vertex 35 10 3.5
      vertex 33.2444 6.31875 3.5
      vertex 34.2146 7.5131 3.5
    endloop
  endfacet
  facet normal 0 0 1
    outer loop
      vertex 35 10 3.5
      vertex 31.9077 5.18246 3.5
      vertex 33.2444 6.31875 3.5
    endloop
  endfacet
  facet normal 0 0 1
    outer loop
      vertex 35 10 3.5
      vertex 30.2254 4.12215 3.5
      vertex 31.9077 5.18246 3.5
    endloop
  endfacet
  facet normal 0 0 1
    outer loop
      vertex 35 10 3.5
      vertex 28.2242 3.15453 3.5
      vertex 30.2254 4.12215 3.5
    endloop
  endfacet
  facet normal -0 0 1
    outer loop
      vertex 10 10 3.5
      vertex 28.2242 3.15453 3.5
      vertex 35 10 3.5
    endloop
  endfacet
  facet normal 0 0 1
    outer loop
      vertex 28.2242 3.15453 3.5
      vertex 10 10 3.5
      vertex 25.9356 2.29487 3.5
    endloop
  endfacet
  facet normal 0 0 1
    outer loop
      vertex 25.9356 2.29487 3.5
      vertex 10 10 3.5
      vertex 23.3957 1.55672 3.5
    endloop
  endfacet
  facet normal 0 0 1
    outer loop
      vertex 23.3957 1.55672 3.5
      vertex 10 10 3.5
      vertex 20.6445 0.951729 3.5
    endloop
  endfacet
  facet normal 0 0 1
    outer loop
      vertex 20.6445 0.951729 3.5
      vertex 10 10 3.5
      vertex 17.7254 0.489434 3.5
    endloop
  endfacet
  facet normal 0 0 1
    outer loop
      vertex 17.7254 0.489434 3.5
      vertex 10 10 3.5
      vertex 14.6845 0.177127 3.5
    endloop
  endfacet
  facet normal 0 0 1
    outer loop
      vertex 14.6845 0.177127 3.5
      vertex 10 10 3.5
      vertex 11.5698 0.0197325 3.5
    endloop
  endfacet
  facet normal 0 0 1
    outer loop
      vertex 11.5698 0.0197325 3.5
      vertex 10 10 3.5
      vertex 10 0.0197325 3.5
    endloop
  endfacet
  facet normal -0 0 1
    outer loop
      vertex 9.34161 5.14202 3.5
      vertex 10 0.0197325 3.5
      vertex 9.4228 5.5676 3.5
    endloop
  endfacet
  facet normal -0 0 1
    outer loop
      vertex 9.20773 4.72997 3.5
      vertex 10 0.0197325 3.5
      vertex 9.34161 5.14202 3.5
    endloop
  endfacet
  facet normal -0 0 1
    outer loop
      vertex 9.02326 4.33795 3.5
      vertex 10 0.0197325 3.5
      vertex 9.20773 4.72997 3.5
    endloop
  endfacet
  facet normal -0 0 1
    outer loop
      vertex 8.79111 3.97214 3.5
      vertex 10 0.0197325 3.5
      vertex 9.02326 4.33795 3.5
    endloop
  endfacet
  facet normal -0 0 1
    outer loop
      vertex 8.51494 3.63831 3.5
      vertex 10 0.0197325 3.5
      vertex 8.79111 3.97214 3.5
    endloop
  endfacet
  facet normal -0 0 1
    outer loop
      vertex 8.19911 3.34173 3.5
      vertex 10 0.0197325 3.5
      vertex 8.51494 3.63831 3.5
    endloop
  endfacet
  facet normal -0 0 1
    outer loop
      vertex 7.8486 3.08707 3.5
      vertex 10 0.0197325 3.5
      vertex 8.19911 3.34173 3.5
    endloop
  endfacet
  facet normal 0 0 1
    outer loop
      vertex 10 0.0197325 3.5
      vertex 8 0.0157862 3.5
      vertex 10 0 3.5
    endloop
  endfacet
  facet normal 0 0 1
    outer loop
      vertex 10 0 3.5
      vertex 8 0.0157862 3.5
      vertex 8 0 3.5
    endloop
  endfacet
  facet normal 0.351636 -0.936137 0
    outer loop
      vertex 25.9356 2.29487 0
      vertex 28.2242 3.15453 3.5
      vertex 25.9356 2.29487 3.5
    endloop
  endfacet
  facet normal 0.351636 -0.936137 0
    outer loop
      vertex 28.2242 3.15453 3.5
      vertex 25.9356 2.29487 0
      vertex 28.2242 3.15453 0
    endloop
  endfacet
  facet normal 0.156422 -0.98769 0
    outer loop
      vertex 17.7254 0.489434 0
      vertex 20.6445 0.951729 3.5
      vertex 17.7254 0.489434 3.5
    endloop
  endfacet
  facet normal 0.156422 -0.98769 0
    outer loop
      vertex 20.6445 0.951729 3.5
      vertex 17.7254 0.489434 0
      vertex 20.6445 0.951729 0
    endloop
  endfacet
  facet normal 0.647667 -0.761923 0
    outer loop
      vertex 31.9077 5.18246 0
      vertex 33.2444 6.31875 3.5
      vertex 31.9077 5.18246 3.5
    endloop
  endfacet
  facet normal 0.647667 -0.761923 0
    outer loop
      vertex 33.2444 6.31875 3.5
      vertex 31.9077 5.18246 0
      vertex 33.2444 6.31875 0
    endloop
  endfacet
  facet normal 0.53322 -0.845977 0
    outer loop
      vertex 30.2254 4.12215 0
      vertex 31.9077 5.18246 3.5
      vertex 30.2254 4.12215 3.5
    endloop
  endfacet
  facet normal 0.53322 -0.845977 0
    outer loop
      vertex 31.9077 5.18246 3.5
      vertex 30.2254 4.12215 0
      vertex 31.9077 5.18246 0
    endloop
  endfacet
  facet normal 0 -1 0
    outer loop
      vertex 10 0.0197325 0
      vertex 11.5698 0.0197325 3.5
      vertex 10 0.0197325 3.5
    endloop
  endfacet
  facet normal 0 -1 -0
    outer loop
      vertex 11.5698 0.0197325 3.5
      vertex 10 0.0197325 0
      vertex 11.5698 0.0197325 0
    endloop
  endfacet
  facet normal 1 -0 0
    outer loop
      vertex 10 0 3.5
      vertex 10 0.0197325 0
      vertex 10 0.0197325 3.5
    endloop
  endfacet
  facet normal 1 0 0
    outer loop
      vertex 10 0.0197325 0
      vertex 10 0 3.5
      vertex 10 0 0
    endloop
  endfacet
  facet normal 0 1 -0
    outer loop
      vertex 35 10 0
      vertex 10 10 3.5
      vertex 35 10 3.5
    endloop
  endfacet
  facet normal 0 1 0
    outer loop
      vertex 10 10 3.5
      vertex 35 10 0
      vertex 10 10 0
    endloop
  endfacet
  facet normal 0 1 -0
    outer loop
      vertex 10 34.9507 0
      vertex 9.37209 34.9507 3.5
      vertex 10 34.9507 3.5
    endloop
  endfacet
  facet normal 0 1 0
    outer loop
      vertex 9.37209 34.9507 3.5
      vertex 10 34.9507 0
      vertex 9.37209 34.9507 0
    endloop
  endfacet
  facet normal -0.949372 0.314155 0
    outer loop
      vertex 1.90983 24.6946 0
      vertex 2.71031 27.1137 3.5
      vertex 2.71031 27.1137 0
    endloop
  endfacet
  facet normal -0.949372 0.314155 0
    outer loop
      vertex 2.71031 27.1137 3.5
      vertex 1.90983 24.6946 0
      vertex 1.90983 24.6946 3.5
    endloop
  endfacet
  facet normal -0.703481 0.710714 0
    outer loop
      vertex 6.90983 33.7764 0
      vertex 5.74221 32.6207 3.5
      vertex 6.90983 33.7764 3.5
    endloop
  endfacet
  facet normal -0.703481 0.710714 0
    outer loop
      vertex 5.74221 32.6207 3.5
      vertex 6.90983 33.7764 0
      vertex 5.74221 32.6207 0
    endloop
  endfacet
  facet normal -0.99166 0.128884 0
    outer loop
      vertex 0.314168 16.2172 0
      vertex 0.702234 19.2031 3.5
      vertex 0.702234 19.2031 0
    endloop
  endfacet
  facet normal -0.99166 0.128884 0
    outer loop
      vertex 0.702234 19.2031 3.5
      vertex 0.314168 16.2172 0
      vertex 0.314168 16.2172 3.5
    endloop
  endfacet
  facet normal -0.997101 0.0760829 0
    outer loop
      vertex 0.0788527 13.1333 0
      vertex 0.314168 16.2172 3.5
      vertex 0.314168 16.2172 0
    endloop
  endfacet
  facet normal -0.997101 0.0760829 0
    outer loop
      vertex 0.314168 16.2172 3.5
      vertex 0.0788527 13.1333 0
      vertex 0.0788527 13.1333 3.5
    endloop
  endfacet
  facet normal -0.540182 0.841548 0
    outer loop
      vertex 8.12619 34.5572 0
      vertex 6.90983 33.7764 3.5
      vertex 8.12619 34.5572 3.5
    endloop
  endfacet
  facet normal -0.540182 0.841548 0
    outer loop
      vertex 6.90983 33.7764 3.5
      vertex 8.12619 34.5572 0
      vertex 6.90983 33.7764 0
    endloop
  endfacet
  facet normal -0.982743 0.184978 0
    outer loop
      vertex 0.702234 19.2031 0
      vertex 1.23693 22.0438 3.5
      vertex 1.23693 22.0438 0
    endloop
  endfacet
  facet normal -0.982743 0.184978 0
    outer loop
      vertex 1.23693 22.0438 3.5
      vertex 0.702234 19.2031 0
      vertex 0.702234 19.2031 3.5
    endloop
  endfacet
  facet normal -0.969259 0.246044 0
    outer loop
      vertex 1.23693 22.0438 0
      vertex 1.90983 24.6946 3.5
      vertex 1.90983 24.6946 0
    endloop
  endfacet
  facet normal -0.969259 0.246044 0
    outer loop
      vertex 1.90983 24.6946 3.5
      vertex 1.23693 22.0438 0
      vertex 1.23693 22.0438 3.5
    endloop
  endfacet
  facet normal -0.999683 0.0251578 0
    outer loop
      vertex 0 10 0
      vertex 0.0788527 13.1333 3.5
      vertex 0.0788527 13.1333 0
    endloop
  endfacet
  facet normal -0.999683 0.0251578 0
    outer loop
      vertex 0.0788527 13.1333 3.5
      vertex 0 10 0
      vertex 0 10 3.5
    endloop
  endfacet
  facet normal -0.876011 0.482291 0
    outer loop
      vertex 3.62576 29.2628 0
      vertex 4.64173 31.1082 3.5
      vertex 4.64173 31.1082 0
    endloop
  endfacet
  facet normal -0.876011 0.482291 0
    outer loop
      vertex 4.64173 31.1082 3.5
      vertex 3.62576 29.2628 0
      vertex 3.62576 29.2628 3.5
    endloop
  endfacet
  facet normal -0.808611 0.588344 0
    outer loop
      vertex 4.64173 31.1082 0
      vertex 5.74221 32.6207 3.5
      vertex 5.74221 32.6207 0
    endloop
  endfacet
  facet normal -0.808611 0.588344 0
    outer loop
      vertex 5.74221 32.6207 3.5
      vertex 4.64173 31.1082 0
      vertex 4.64173 31.1082 3.5
    endloop
  endfacet
  facet normal -0.920014 0.391886 0
    outer loop
      vertex 2.71031 27.1137 0
      vertex 3.62576 29.2628 3.5
      vertex 3.62576 29.2628 0
    endloop
  endfacet
  facet normal -0.920014 0.391886 0
    outer loop
      vertex 3.62576 29.2628 3.5
      vertex 2.71031 27.1137 0
      vertex 2.71031 27.1137 3.5
    endloop
  endfacet
  facet normal -0.30116 0.953574 0
    outer loop
      vertex 9.37209 34.9507 0
      vertex 8.12619 34.5572 3.5
      vertex 9.37209 34.9507 3.5
    endloop
  endfacet
  facet normal -0.30116 0.953574 0
    outer loop
      vertex 8.12619 34.5572 3.5
      vertex 9.37209 34.9507 0
      vertex 8.12619 34.5572 0
    endloop
  endfacet
  facet normal 1 -0 0
    outer loop
      vertex 10 10 3.5
      vertex 10 34.9507 0
      vertex 10 34.9507 3.5
    endloop
  endfacet
  facet normal 1 0 0
    outer loop
      vertex 10 34.9507 0
      vertex 10 10 3.5
      vertex 10 10 0
    endloop
  endfacet
  facet normal -1 0 0
    outer loop
      vertex 0 8 0
      vertex 0 10 3.5
      vertex 0 10 0
    endloop
  endfacet
  facet normal -1 -0 0
    outer loop
      vertex 0 10 3.5
      vertex 0 8 0
      vertex 0 8 3.5
    endloop
  endfacet
  facet normal 0 -1 0
    outer loop
      vertex 8 0 0
      vertex 10 0 3.5
      vertex 8 0 3.5
    endloop
  endfacet
  facet normal 0 -1 -0
    outer loop
      vertex 10 0 3.5
      vertex 8 0 0
      vertex 10 0 0
    endloop
  endfacet
  facet normal -0.998027 -0.0627924 0
    outer loop
      vertex 7.75 6 0
      vertex 7.7362 6.21933 1.5
      vertex 7.7362 6.21933 0
    endloop
  endfacet
  facet normal -0.998027 -0.0627924 0
    outer loop
      vertex 7.7362 6.21933 1.5
      vertex 7.75 6 0
      vertex 7.75 6 1.5
    endloop
  endfacet
  facet normal 0.998027 -0.0627924 0
    outer loop
      vertex 4.25 6 1.5
      vertex 4.2638 6.21933 0
      vertex 4.2638 6.21933 1.5
    endloop
  endfacet
  facet normal 0.998027 -0.0627924 0
    outer loop
      vertex 4.2638 6.21933 0
      vertex 4.25 6 1.5
      vertex 4.25 6 0
    endloop
  endfacet
  facet normal 0 -1 0
    outer loop
      vertex 5.89012 7.74655 0
      vertex 6.10988 7.74655 1.5
      vertex 5.89012 7.74655 1.5
    endloop
  endfacet
  facet normal 0 -1 -0
    outer loop
      vertex 6.10988 7.74655 1.5
      vertex 5.89012 7.74655 0
      vertex 6.10988 7.74655 0
    endloop
  endfacet
  facet normal 0 1 -0
    outer loop
      vertex 6.10988 4.25345 0
      vertex 5.89012 4.25345 1.5
      vertex 6.10988 4.25345 1.5
    endloop
  endfacet
  facet normal 0 1 0
    outer loop
      vertex 5.89012 4.25345 1.5
      vertex 6.10988 4.25345 0
      vertex 5.89012 4.25345 0
    endloop
  endfacet
  facet normal -0.684546 0.72897 0
    outer loop
      vertex 7.27569 4.80204 0
      vertex 7.11549 4.6516 1.5
      vertex 7.27569 4.80204 1.5
    endloop
  endfacet
  facet normal -0.684546 0.72897 0
    outer loop
      vertex 7.11549 4.6516 1.5
      vertex 7.27569 4.80204 0
      vertex 7.11549 4.6516 0
    endloop
  endfacet
  facet normal -0.684546 -0.72897 0
    outer loop
      vertex 7.11549 7.3484 0
      vertex 7.27569 7.19796 1.5
      vertex 7.11549 7.3484 1.5
    endloop
  endfacet
  facet normal -0.684546 -0.72897 -0
    outer loop
      vertex 7.27569 7.19796 1.5
      vertex 7.11549 7.3484 0
      vertex 7.27569 7.19796 0
    endloop
  endfacet
  facet normal 0.684546 -0.72897 0
    outer loop
      vertex 4.72431 7.19796 0
      vertex 4.88451 7.3484 1.5
      vertex 4.72431 7.19796 1.5
    endloop
  endfacet
  facet normal 0.684546 -0.72897 0
    outer loop
      vertex 4.88451 7.3484 1.5
      vertex 4.72431 7.19796 0
      vertex 4.88451 7.3484 0
    endloop
  endfacet
  facet normal 0.368126 -0.929776 0
    outer loop
      vertex 5.25489 7.58345 0
      vertex 5.45922 7.66435 1.5
      vertex 5.25489 7.58345 1.5
    endloop
  endfacet
  facet normal 0.368126 -0.929776 0
    outer loop
      vertex 5.45922 7.66435 1.5
      vertex 5.25489 7.58345 0
      vertex 5.45922 7.66435 0
    endloop
  endfacet
  facet normal -0.904826 0.425782 0
    outer loop
      vertex 7.53354 5.15693 0
      vertex 7.62711 5.35578 1.5
      vertex 7.62711 5.35578 0
    endloop
  endfacet
  facet normal -0.904826 0.425782 0
    outer loop
      vertex 7.62711 5.35578 1.5
      vertex 7.53354 5.15693 0
      vertex 7.53354 5.15693 1.5
    endloop
  endfacet
  facet normal -0.904826 -0.425782 0
    outer loop
      vertex 7.62711 6.64422 0
      vertex 7.53354 6.84307 1.5
      vertex 7.53354 6.84307 0
    endloop
  endfacet
  facet normal -0.904826 -0.425782 0
    outer loop
      vertex 7.53354 6.84307 1.5
      vertex 7.62711 6.64422 0
      vertex 7.62711 6.64422 1.5
    endloop
  endfacet
  facet normal -0.368126 -0.929776 0
    outer loop
      vertex 6.54078 7.66435 0
      vertex 6.74511 7.58345 1.5
      vertex 6.54078 7.66435 1.5
    endloop
  endfacet
  facet normal -0.368126 -0.929776 -0
    outer loop
      vertex 6.74511 7.58345 1.5
      vertex 6.54078 7.66435 0
      vertex 6.74511 7.58345 0
    endloop
  endfacet
  facet normal -0.587786 -0.809017 0
    outer loop
      vertex 6.9377 7.47757 0
      vertex 7.11549 7.3484 1.5
      vertex 6.9377 7.47757 1.5
    endloop
  endfacet
  facet normal -0.587786 -0.809017 -0
    outer loop
      vertex 7.11549 7.3484 1.5
      vertex 6.9377 7.47757 0
      vertex 7.11549 7.3484 0
    endloop
  endfacet
  facet normal 0.904826 -0.425782 0
    outer loop
      vertex 4.37289 6.64422 1.5
      vertex 4.46646 6.84307 0
      vertex 4.46646 6.84307 1.5
    endloop
  endfacet
  facet normal 0.904826 -0.425782 0
    outer loop
      vertex 4.46646 6.84307 0
      vertex 4.37289 6.64422 1.5
      vertex 4.37289 6.64422 0
    endloop
  endfacet
  facet normal 0.770514 -0.637422 0
    outer loop
      vertex 4.58422 7.02862 1.5
      vertex 4.72431 7.19796 0
      vertex 4.72431 7.19796 1.5
    endloop
  endfacet
  facet normal 0.770514 -0.637422 0
    outer loop
      vertex 4.72431 7.19796 0
      vertex 4.58422 7.02862 1.5
      vertex 4.58422 7.02862 0
    endloop
  endfacet
  facet normal 0.481752 -0.876307 0
    outer loop
      vertex 5.0623 7.47757 0
      vertex 5.25489 7.58345 1.5
      vertex 5.0623 7.47757 1.5
    endloop
  endfacet
  facet normal 0.481752 -0.876307 0
    outer loop
      vertex 5.25489 7.58345 1.5
      vertex 5.0623 7.47757 0
      vertex 5.25489 7.58345 0
    endloop
  endfacet
  facet normal 0.248688 -0.968584 0
    outer loop
      vertex 5.45922 7.66435 0
      vertex 5.67208 7.719 1.5
      vertex 5.45922 7.66435 1.5
    endloop
  endfacet
  facet normal 0.248688 -0.968584 0
    outer loop
      vertex 5.67208 7.719 1.5
      vertex 5.45922 7.66435 0
      vertex 5.67208 7.719 0
    endloop
  endfacet
  facet normal -0.368126 0.929776 0
    outer loop
      vertex 6.74511 4.41655 0
      vertex 6.54078 4.33565 1.5
      vertex 6.74511 4.41655 1.5
    endloop
  endfacet
  facet normal -0.368126 0.929776 0
    outer loop
      vertex 6.54078 4.33565 1.5
      vertex 6.74511 4.41655 0
      vertex 6.54078 4.33565 0
    endloop
  endfacet
  facet normal -0.951057 -0.309014 0
    outer loop
      vertex 7.69502 6.43521 0
      vertex 7.62711 6.64422 1.5
      vertex 7.62711 6.64422 0
    endloop
  endfacet
  facet normal -0.951057 -0.309014 0
    outer loop
      vertex 7.62711 6.64422 1.5
      vertex 7.69502 6.43521 0
      vertex 7.69502 6.43521 1.5
    endloop
  endfacet
  facet normal -0.982287 -0.187383 0
    outer loop
      vertex 7.7362 6.21933 0
      vertex 7.69502 6.43521 1.5
      vertex 7.69502 6.43521 0
    endloop
  endfacet
  facet normal -0.982287 -0.187383 0
    outer loop
      vertex 7.69502 6.43521 1.5
      vertex 7.7362 6.21933 0
      vertex 7.7362 6.21933 1.5
    endloop
  endfacet
  facet normal -0.770514 -0.637422 0
    outer loop
      vertex 7.41578 7.02862 0
      vertex 7.27569 7.19796 1.5
      vertex 7.27569 7.19796 0
    endloop
  endfacet
  facet normal -0.770514 -0.637422 0
    outer loop
      vertex 7.27569 7.19796 1.5
      vertex 7.41578 7.02862 0
      vertex 7.41578 7.02862 1.5
    endloop
  endfacet
  facet normal -0.844328 -0.535826 0
    outer loop
      vertex 7.53354 6.84307 0
      vertex 7.41578 7.02862 1.5
      vertex 7.41578 7.02862 0
    endloop
  endfacet
  facet normal -0.844328 -0.535826 0
    outer loop
      vertex 7.41578 7.02862 1.5
      vertex 7.53354 6.84307 0
      vertex 7.53354 6.84307 1.5
    endloop
  endfacet
  facet normal -0.248688 -0.968584 0
    outer loop
      vertex 6.32792 7.719 0
      vertex 6.54078 7.66435 1.5
      vertex 6.32792 7.719 1.5
    endloop
  endfacet
  facet normal -0.248688 -0.968584 -0
    outer loop
      vertex 6.54078 7.66435 1.5
      vertex 6.32792 7.719 0
      vertex 6.54078 7.66435 0
    endloop
  endfacet
  facet normal -0.125337 -0.992114 0
    outer loop
      vertex 6.10988 7.74655 0
      vertex 6.32792 7.719 1.5
      vertex 6.10988 7.74655 1.5
    endloop
  endfacet
  facet normal -0.125337 -0.992114 -0
    outer loop
      vertex 6.32792 7.719 1.5
      vertex 6.10988 7.74655 0
      vertex 6.32792 7.719 0
    endloop
  endfacet
  facet normal -0.481752 -0.876307 0
    outer loop
      vertex 6.74511 7.58345 0
      vertex 6.9377 7.47757 1.5
      vertex 6.74511 7.58345 1.5
    endloop
  endfacet
  facet normal -0.481752 -0.876307 -0
    outer loop
      vertex 6.9377 7.47757 1.5
      vertex 6.74511 7.58345 0
      vertex 6.9377 7.47757 0
    endloop
  endfacet
  facet normal 0.844328 -0.535826 0
    outer loop
      vertex 4.46646 6.84307 1.5
      vertex 4.58422 7.02862 0
      vertex 4.58422 7.02862 1.5
    endloop
  endfacet
  facet normal 0.844328 -0.535826 0
    outer loop
      vertex 4.58422 7.02862 0
      vertex 4.46646 6.84307 1.5
      vertex 4.46646 6.84307 0
    endloop
  endfacet
  facet normal 0.951057 -0.309014 0
    outer loop
      vertex 4.30498 6.43521 1.5
      vertex 4.37289 6.64422 0
      vertex 4.37289 6.64422 1.5
    endloop
  endfacet
  facet normal 0.951057 -0.309014 0
    outer loop
      vertex 4.37289 6.64422 0
      vertex 4.30498 6.43521 1.5
      vertex 4.30498 6.43521 0
    endloop
  endfacet
  facet normal 0.982287 -0.187383 0
    outer loop
      vertex 4.2638 6.21933 1.5
      vertex 4.30498 6.43521 0
      vertex 4.30498 6.43521 1.5
    endloop
  endfacet
  facet normal 0.982287 -0.187383 0
    outer loop
      vertex 4.30498 6.43521 0
      vertex 4.2638 6.21933 1.5
      vertex 4.2638 6.21933 0
    endloop
  endfacet
  facet normal 0.587786 -0.809017 0
    outer loop
      vertex 4.88451 7.3484 0
      vertex 5.0623 7.47757 1.5
      vertex 4.88451 7.3484 1.5
    endloop
  endfacet
  facet normal 0.587786 -0.809017 0
    outer loop
      vertex 5.0623 7.47757 1.5
      vertex 4.88451 7.3484 0
      vertex 5.0623 7.47757 0
    endloop
  endfacet
  facet normal 0.125337 -0.992114 0
    outer loop
      vertex 5.67208 7.719 0
      vertex 5.89012 7.74655 1.5
      vertex 5.67208 7.719 1.5
    endloop
  endfacet
  facet normal 0.125337 -0.992114 0
    outer loop
      vertex 5.89012 7.74655 1.5
      vertex 5.67208 7.719 0
      vertex 5.89012 7.74655 0
    endloop
  endfacet
  facet normal -0.998027 0.0627924 0
    outer loop
      vertex 7.7362 5.78067 0
      vertex 7.75 6 1.5
      vertex 7.75 6 0
    endloop
  endfacet
  facet normal -0.998027 0.0627924 0
    outer loop
      vertex 7.75 6 1.5
      vertex 7.7362 5.78067 0
      vertex 7.7362 5.78067 1.5
    endloop
  endfacet
  facet normal -0.770514 0.637422 0
    outer loop
      vertex 7.27569 4.80204 0
      vertex 7.41578 4.97138 1.5
      vertex 7.41578 4.97138 0
    endloop
  endfacet
  facet normal -0.770514 0.637422 0
    outer loop
      vertex 7.41578 4.97138 1.5
      vertex 7.27569 4.80204 0
      vertex 7.27569 4.80204 1.5
    endloop
  endfacet
  facet normal 0.684546 0.72897 -0
    outer loop
      vertex 4.88451 4.6516 0
      vertex 4.72431 4.80204 1.5
      vertex 4.88451 4.6516 1.5
    endloop
  endfacet
  facet normal 0.684546 0.72897 0
    outer loop
      vertex 4.72431 4.80204 1.5
      vertex 4.88451 4.6516 0
      vertex 4.72431 4.80204 0
    endloop
  endfacet
  facet normal 0.904826 0.425782 0
    outer loop
      vertex 4.46646 5.15693 1.5
      vertex 4.37289 5.35578 0
      vertex 4.37289 5.35578 1.5
    endloop
  endfacet
  facet normal 0.904826 0.425782 0
    outer loop
      vertex 4.37289 5.35578 0
      vertex 4.46646 5.15693 1.5
      vertex 4.46646 5.15693 0
    endloop
  endfacet
  facet normal 0.770514 0.637422 0
    outer loop
      vertex 4.72431 4.80204 1.5
      vertex 4.58422 4.97138 0
      vertex 4.58422 4.97138 1.5
    endloop
  endfacet
  facet normal 0.770514 0.637422 0
    outer loop
      vertex 4.58422 4.97138 0
      vertex 4.72431 4.80204 1.5
      vertex 4.72431 4.80204 0
    endloop
  endfacet
  facet normal -0.481752 0.876307 0
    outer loop
      vertex 6.9377 4.52243 0
      vertex 6.74511 4.41655 1.5
      vertex 6.9377 4.52243 1.5
    endloop
  endfacet
  facet normal -0.481752 0.876307 0
    outer loop
      vertex 6.74511 4.41655 1.5
      vertex 6.9377 4.52243 0
      vertex 6.74511 4.41655 0
    endloop
  endfacet
  facet normal -0.951057 0.309014 0
    outer loop
      vertex 7.62711 5.35578 0
      vertex 7.69502 5.56479 1.5
      vertex 7.69502 5.56479 0
    endloop
  endfacet
  facet normal -0.951057 0.309014 0
    outer loop
      vertex 7.69502 5.56479 1.5
      vertex 7.62711 5.35578 0
      vertex 7.62711 5.35578 1.5
    endloop
  endfacet
  facet normal -0.844328 0.535826 0
    outer loop
      vertex 7.41578 4.97138 0
      vertex 7.53354 5.15693 1.5
      vertex 7.53354 5.15693 0
    endloop
  endfacet
  facet normal -0.844328 0.535826 0
    outer loop
      vertex 7.53354 5.15693 1.5
      vertex 7.41578 4.97138 0
      vertex 7.41578 4.97138 1.5
    endloop
  endfacet
  facet normal 0.982287 0.187383 0
    outer loop
      vertex 4.30498 5.56479 1.5
      vertex 4.2638 5.78067 0
      vertex 4.2638 5.78067 1.5
    endloop
  endfacet
  facet normal 0.982287 0.187383 0
    outer loop
      vertex 4.2638 5.78067 0
      vertex 4.30498 5.56479 1.5
      vertex 4.30498 5.56479 0
    endloop
  endfacet
  facet normal 0.998027 0.0627924 0
    outer loop
      vertex 4.2638 5.78067 1.5
      vertex 4.25 6 0
      vertex 4.25 6 1.5
    endloop
  endfacet
  facet normal 0.998027 0.0627924 0
    outer loop
      vertex 4.25 6 0
      vertex 4.2638 5.78067 1.5
      vertex 4.2638 5.78067 0
    endloop
  endfacet
  facet normal 0.951057 0.309014 0
    outer loop
      vertex 4.37289 5.35578 1.5
      vertex 4.30498 5.56479 0
      vertex 4.30498 5.56479 1.5
    endloop
  endfacet
  facet normal 0.951057 0.309014 0
    outer loop
      vertex 4.30498 5.56479 0
      vertex 4.37289 5.35578 1.5
      vertex 4.37289 5.35578 0
    endloop
  endfacet
  facet normal -0.587786 0.809017 0
    outer loop
      vertex 7.11549 4.6516 0
      vertex 6.9377 4.52243 1.5
      vertex 7.11549 4.6516 1.5
    endloop
  endfacet
  facet normal -0.587786 0.809017 0
    outer loop
      vertex 6.9377 4.52243 1.5
      vertex 7.11549 4.6516 0
      vertex 6.9377 4.52243 0
    endloop
  endfacet
  facet normal -0.248688 0.968584 0
    outer loop
      vertex 6.54078 4.33565 0
      vertex 6.32792 4.281 1.5
      vertex 6.54078 4.33565 1.5
    endloop
  endfacet
  facet normal -0.248688 0.968584 0
    outer loop
      vertex 6.32792 4.281 1.5
      vertex 6.54078 4.33565 0
      vertex 6.32792 4.281 0
    endloop
  endfacet
  facet normal -0.125337 0.992114 0
    outer loop
      vertex 6.32792 4.281 0
      vertex 6.10988 4.25345 1.5
      vertex 6.32792 4.281 1.5
    endloop
  endfacet
  facet normal -0.125337 0.992114 0
    outer loop
      vertex 6.10988 4.25345 1.5
      vertex 6.32792 4.281 0
      vertex 6.10988 4.25345 0
    endloop
  endfacet
  facet normal -0.982287 0.187383 0
    outer loop
      vertex 7.69502 5.56479 0
      vertex 7.7362 5.78067 1.5
      vertex 7.7362 5.78067 0
    endloop
  endfacet
  facet normal -0.982287 0.187383 0
    outer loop
      vertex 7.7362 5.78067 1.5
      vertex 7.69502 5.56479 0
      vertex 7.69502 5.56479 1.5
    endloop
  endfacet
  facet normal 0.125337 0.992114 -0
    outer loop
      vertex 5.89012 4.25345 0
      vertex 5.67208 4.281 1.5
      vertex 5.89012 4.25345 1.5
    endloop
  endfacet
  facet normal 0.125337 0.992114 0
    outer loop
      vertex 5.67208 4.281 1.5
      vertex 5.89012 4.25345 0
      vertex 5.67208 4.281 0
    endloop
  endfacet
  facet normal 0.368126 0.929776 -0
    outer loop
      vertex 5.45922 4.33565 0
      vertex 5.25489 4.41655 1.5
      vertex 5.45922 4.33565 1.5
    endloop
  endfacet
  facet normal 0.368126 0.929776 0
    outer loop
      vertex 5.25489 4.41655 1.5
      vertex 5.45922 4.33565 0
      vertex 5.25489 4.41655 0
    endloop
  endfacet
  facet normal 0.248688 0.968584 -0
    outer loop
      vertex 5.67208 4.281 0
      vertex 5.45922 4.33565 1.5
      vertex 5.67208 4.281 1.5
    endloop
  endfacet
  facet normal 0.248688 0.968584 0
    outer loop
      vertex 5.45922 4.33565 1.5
      vertex 5.67208 4.281 0
      vertex 5.45922 4.33565 0
    endloop
  endfacet
  facet normal 0.844328 0.535826 0
    outer loop
      vertex 4.58422 4.97138 1.5
      vertex 4.46646 5.15693 0
      vertex 4.46646 5.15693 1.5
    endloop
  endfacet
  facet normal 0.844328 0.535826 0
    outer loop
      vertex 4.46646 5.15693 0
      vertex 4.58422 4.97138 1.5
      vertex 4.58422 4.97138 0
    endloop
  endfacet
  facet normal 0.481752 0.876307 -0
    outer loop
      vertex 5.25489 4.41655 0
      vertex 5.0623 4.52243 1.5
      vertex 5.25489 4.41655 1.5
    endloop
  endfacet
  facet normal 0.481752 0.876307 0
    outer loop
      vertex 5.0623 4.52243 1.5
      vertex 5.25489 4.41655 0
      vertex 5.0623 4.52243 0
    endloop
  endfacet
  facet normal 0.587786 0.809017 -0
    outer loop
      vertex 5.0623 4.52243 0
      vertex 4.88451 4.6516 1.5
      vertex 5.0623 4.52243 1.5
    endloop
  endfacet
  facet normal 0.587786 0.809017 0
    outer loop
      vertex 4.88451 4.6516 1.5
      vertex 5.0623 4.52243 0
      vertex 4.88451 4.6516 0
    endloop
  endfacet
  facet normal -0.998027 -0.0627912 0
    outer loop
      vertex 9.45 6 1.5
      vertex 9.4228 6.4324 3.5
      vertex 9.4228 6.4324 1.5
    endloop
  endfacet
  facet normal -0.998027 -0.0627912 0
    outer loop
      vertex 9.4228 6.4324 3.5
      vertex 9.45 6 1.5
      vertex 9.45 6 3.5
    endloop
  endfacet
  facet normal 0.998027 -0.0627912 0
    outer loop
      vertex 2.55 6 3.5
      vertex 2.5772 6.4324 1.5
      vertex 2.5772 6.4324 3.5
    endloop
  endfacet
  facet normal 0.998027 -0.0627912 0
    outer loop
      vertex 2.5772 6.4324 1.5
      vertex 2.55 6 3.5
      vertex 2.55 6 1.5
    endloop
  endfacet
  facet normal 0 -1 0
    outer loop
      vertex 5.78337 9.44319 1.5
      vertex 6.21663 9.44319 3.5
      vertex 5.78337 9.44319 3.5
    endloop
  endfacet
  facet normal 0 -1 -0
    outer loop
      vertex 6.21663 9.44319 3.5
      vertex 5.78337 9.44319 1.5
      vertex 6.21663 9.44319 1.5
    endloop
  endfacet
  facet normal 0 1 -0
    outer loop
      vertex 6.21663 2.55681 1.5
      vertex 5.78337 2.55681 3.5
      vertex 6.21663 2.55681 3.5
    endloop
  endfacet
  facet normal 0 1 0
    outer loop
      vertex 5.78337 2.55681 3.5
      vertex 6.21663 2.55681 1.5
      vertex 5.78337 2.55681 1.5
    endloop
  endfacet
  facet normal -0.684547 -0.728969 0
    outer loop
      vertex 8.19911 8.65827 1.5
      vertex 8.51494 8.36169 3.5
      vertex 8.19911 8.65827 3.5
    endloop
  endfacet
  facet normal -0.684547 -0.728969 -0
    outer loop
      vertex 8.51494 8.36169 3.5
      vertex 8.19911 8.65827 1.5
      vertex 8.51494 8.36169 1.5
    endloop
  endfacet
  facet normal 0.684547 -0.728969 0
    outer loop
      vertex 3.48506 8.36169 1.5
      vertex 3.80089 8.65827 3.5
      vertex 3.48506 8.36169 3.5
    endloop
  endfacet
  facet normal 0.684547 -0.728969 0
    outer loop
      vertex 3.80089 8.65827 3.5
      vertex 3.48506 8.36169 1.5
      vertex 3.80089 8.65827 1.5
    endloop
  endfacet
  facet normal 0.368124 -0.929777 0
    outer loop
      vertex 4.53106 9.12165 1.5
      vertex 4.93389 9.28114 3.5
      vertex 4.53106 9.12165 3.5
    endloop
  endfacet
  facet normal 0.368124 -0.929777 0
    outer loop
      vertex 4.93389 9.28114 3.5
      vertex 4.53106 9.12165 1.5
      vertex 4.93389 9.28114 1.5
    endloop
  endfacet
  facet normal -0.904827 -0.42578 0
    outer loop
      vertex 9.20773 7.27003 1.5
      vertex 9.02326 7.66205 3.5
      vertex 9.02326 7.66205 1.5
    endloop
  endfacet
  facet normal -0.904827 -0.42578 0
    outer loop
      vertex 9.02326 7.66205 3.5
      vertex 9.20773 7.27003 1.5
      vertex 9.20773 7.27003 3.5
    endloop
  endfacet
  facet normal -0.982287 -0.18738 0
    outer loop
      vertex 9.4228 6.4324 1.5
      vertex 9.34161 6.85798 3.5
      vertex 9.34161 6.85798 1.5
    endloop
  endfacet
  facet normal -0.982287 -0.18738 0
    outer loop
      vertex 9.34161 6.85798 3.5
      vertex 9.4228 6.4324 1.5
      vertex 9.4228 6.4324 3.5
    endloop
  endfacet
  facet normal -0.844329 -0.535826 0
    outer loop
      vertex 9.02326 7.66205 1.5
      vertex 8.79111 8.02786 3.5
      vertex 8.79111 8.02786 1.5
    endloop
  endfacet
  facet normal -0.844329 -0.535826 0
    outer loop
      vertex 8.79111 8.02786 3.5
      vertex 9.02326 7.66205 1.5
      vertex 9.02326 7.66205 3.5
    endloop
  endfacet
  facet normal -0.368124 -0.929777 0
    outer loop
      vertex 7.06611 9.28114 1.5
      vertex 7.46894 9.12165 3.5
      vertex 7.06611 9.28114 3.5
    endloop
  endfacet
  facet normal -0.368124 -0.929777 -0
    outer loop
      vertex 7.46894 9.12165 3.5
      vertex 7.06611 9.28114 1.5
      vertex 7.46894 9.12165 1.5
    endloop
  endfacet
  facet normal -0.24869 -0.968583 0
    outer loop
      vertex 6.64647 9.38889 1.5
      vertex 7.06611 9.28114 3.5
      vertex 6.64647 9.38889 3.5
    endloop
  endfacet
  facet normal -0.24869 -0.968583 -0
    outer loop
      vertex 7.06611 9.28114 3.5
      vertex 6.64647 9.38889 1.5
      vertex 7.06611 9.28114 1.5
    endloop
  endfacet
  facet normal -0.587786 -0.809017 0
    outer loop
      vertex 7.8486 8.91293 1.5
      vertex 8.19911 8.65827 3.5
      vertex 7.8486 8.91293 3.5
    endloop
  endfacet
  facet normal -0.587786 -0.809017 -0
    outer loop
      vertex 8.19911 8.65827 3.5
      vertex 7.8486 8.91293 1.5
      vertex 8.19911 8.65827 1.5
    endloop
  endfacet
  facet normal 0.904827 -0.42578 0
    outer loop
      vertex 2.79227 7.27003 3.5
      vertex 2.97674 7.66205 1.5
      vertex 2.97674 7.66205 3.5
    endloop
  endfacet
  facet normal 0.904827 -0.42578 0
    outer loop
      vertex 2.97674 7.66205 1.5
      vertex 2.79227 7.27003 3.5
      vertex 2.79227 7.27003 1.5
    endloop
  endfacet
  facet normal 0.770513 -0.637425 0
    outer loop
      vertex 3.20889 8.02786 3.5
      vertex 3.48506 8.36169 1.5
      vertex 3.48506 8.36169 3.5
    endloop
  endfacet
  facet normal 0.770513 -0.637425 0
    outer loop
      vertex 3.48506 8.36169 1.5
      vertex 3.20889 8.02786 3.5
      vertex 3.20889 8.02786 1.5
    endloop
  endfacet
  facet normal 0.951056 -0.309018 0
    outer loop
      vertex 2.65839 6.85798 3.5
      vertex 2.79227 7.27003 1.5
      vertex 2.79227 7.27003 3.5
    endloop
  endfacet
  facet normal 0.951056 -0.309018 0
    outer loop
      vertex 2.79227 7.27003 1.5
      vertex 2.65839 6.85798 3.5
      vertex 2.65839 6.85798 1.5
    endloop
  endfacet
  facet normal 0.481753 -0.876307 0
    outer loop
      vertex 4.1514 8.91293 1.5
      vertex 4.53106 9.12165 3.5
      vertex 4.1514 8.91293 3.5
    endloop
  endfacet
  facet normal 0.481753 -0.876307 0
    outer loop
      vertex 4.53106 9.12165 3.5
      vertex 4.1514 8.91293 1.5
      vertex 4.53106 9.12165 1.5
    endloop
  endfacet
  facet normal 0.125333 -0.992115 0
    outer loop
      vertex 5.35353 9.38889 1.5
      vertex 5.78337 9.44319 3.5
      vertex 5.35353 9.38889 3.5
    endloop
  endfacet
  facet normal 0.125333 -0.992115 0
    outer loop
      vertex 5.78337 9.44319 3.5
      vertex 5.35353 9.38889 1.5
      vertex 5.78337 9.44319 1.5
    endloop
  endfacet
  facet normal -0.125333 0.992115 0
    outer loop
      vertex 6.64647 2.61111 1.5
      vertex 6.21663 2.55681 3.5
      vertex 6.64647 2.61111 3.5
    endloop
  endfacet
  facet normal -0.125333 0.992115 0
    outer loop
      vertex 6.21663 2.55681 3.5
      vertex 6.64647 2.61111 1.5
      vertex 6.21663 2.55681 1.5
    endloop
  endfacet
  facet normal -0.951056 -0.309018 0
    outer loop
      vertex 9.34161 6.85798 1.5
      vertex 9.20773 7.27003 3.5
      vertex 9.20773 7.27003 1.5
    endloop
  endfacet
  facet normal -0.951056 -0.309018 0
    outer loop
      vertex 9.20773 7.27003 3.5
      vertex 9.34161 6.85798 1.5
      vertex 9.34161 6.85798 3.5
    endloop
  endfacet
  facet normal -0.770513 -0.637425 0
    outer loop
      vertex 8.79111 8.02786 1.5
      vertex 8.51494 8.36169 3.5
      vertex 8.51494 8.36169 1.5
    endloop
  endfacet
  facet normal -0.770513 -0.637425 0
    outer loop
      vertex 8.51494 8.36169 3.5
      vertex 8.79111 8.02786 1.5
      vertex 8.79111 8.02786 3.5
    endloop
  endfacet
  facet normal -0.125333 -0.992115 0
    outer loop
      vertex 6.21663 9.44319 1.5
      vertex 6.64647 9.38889 3.5
      vertex 6.21663 9.44319 3.5
    endloop
  endfacet
  facet normal -0.125333 -0.992115 -0
    outer loop
      vertex 6.64647 9.38889 3.5
      vertex 6.21663 9.44319 1.5
      vertex 6.64647 9.38889 1.5
    endloop
  endfacet
  facet normal -0.481753 -0.876307 0
    outer loop
      vertex 7.46894 9.12165 1.5
      vertex 7.8486 8.91293 3.5
      vertex 7.46894 9.12165 3.5
    endloop
  endfacet
  facet normal -0.481753 -0.876307 -0
    outer loop
      vertex 7.8486 8.91293 3.5
      vertex 7.46894 9.12165 1.5
      vertex 7.8486 8.91293 1.5
    endloop
  endfacet
  facet normal 0.844329 -0.535826 0
    outer loop
      vertex 2.97674 7.66205 3.5
      vertex 3.20889 8.02786 1.5
      vertex 3.20889 8.02786 3.5
    endloop
  endfacet
  facet normal 0.844329 -0.535826 0
    outer loop
      vertex 3.20889 8.02786 1.5
      vertex 2.97674 7.66205 3.5
      vertex 2.97674 7.66205 1.5
    endloop
  endfacet
  facet normal 0.982287 -0.18738 0
    outer loop
      vertex 2.5772 6.4324 3.5
      vertex 2.65839 6.85798 1.5
      vertex 2.65839 6.85798 3.5
    endloop
  endfacet
  facet normal 0.982287 -0.18738 0
    outer loop
      vertex 2.65839 6.85798 1.5
      vertex 2.5772 6.4324 3.5
      vertex 2.5772 6.4324 1.5
    endloop
  endfacet
  facet normal 0.587786 -0.809017 0
    outer loop
      vertex 3.80089 8.65827 1.5
      vertex 4.1514 8.91293 3.5
      vertex 3.80089 8.65827 3.5
    endloop
  endfacet
  facet normal 0.587786 -0.809017 0
    outer loop
      vertex 4.1514 8.91293 3.5
      vertex 3.80089 8.65827 1.5
      vertex 4.1514 8.91293 1.5
    endloop
  endfacet
  facet normal 0.24869 -0.968583 0
    outer loop
      vertex 4.93389 9.28114 1.5
      vertex 5.35353 9.38889 3.5
      vertex 4.93389 9.28114 3.5
    endloop
  endfacet
  facet normal 0.24869 -0.968583 0
    outer loop
      vertex 5.35353 9.38889 3.5
      vertex 4.93389 9.28114 1.5
      vertex 5.35353 9.38889 1.5
    endloop
  endfacet
  facet normal -0.951056 0.309018 0
    outer loop
      vertex 9.20773 4.72997 1.5
      vertex 9.34161 5.14202 3.5
      vertex 9.34161 5.14202 1.5
    endloop
  endfacet
  facet normal -0.951056 0.309018 0
    outer loop
      vertex 9.34161 5.14202 3.5
      vertex 9.20773 4.72997 1.5
      vertex 9.20773 4.72997 3.5
    endloop
  endfacet
  facet normal -0.982287 0.18738 0
    outer loop
      vertex 9.34161 5.14202 1.5
      vertex 9.4228 5.5676 3.5
      vertex 9.4228 5.5676 1.5
    endloop
  endfacet
  facet normal -0.982287 0.18738 0
    outer loop
      vertex 9.4228 5.5676 3.5
      vertex 9.34161 5.14202 1.5
      vertex 9.34161 5.14202 3.5
    endloop
  endfacet
  facet normal 0.684547 0.728969 -0
    outer loop
      vertex 3.80089 3.34173 1.5
      vertex 3.48506 3.63831 3.5
      vertex 3.80089 3.34173 3.5
    endloop
  endfacet
  facet normal 0.684547 0.728969 0
    outer loop
      vertex 3.48506 3.63831 3.5
      vertex 3.80089 3.34173 1.5
      vertex 3.48506 3.63831 1.5
    endloop
  endfacet
  facet normal 0.770513 0.637425 0
    outer loop
      vertex 3.48506 3.63831 3.5
      vertex 3.20889 3.97214 1.5
      vertex 3.20889 3.97214 3.5
    endloop
  endfacet
  facet normal 0.770513 0.637425 0
    outer loop
      vertex 3.20889 3.97214 1.5
      vertex 3.48506 3.63831 3.5
      vertex 3.48506 3.63831 1.5
    endloop
  endfacet
  facet normal 0 0 1
    outer loop
      vertex 7.75 6 1.5
      vertex 9.45 6 1.5
      vertex 9.4228 6.4324 1.5
    endloop
  endfacet
  facet normal 0 0 1
    outer loop
      vertex 7.7362 6.21933 1.5
      vertex 9.4228 6.4324 1.5
      vertex 9.34161 6.85798 1.5
    endloop
  endfacet
  facet normal 0 0 1
    outer loop
      vertex 9.45 6 1.5
      vertex 7.75 6 1.5
      vertex 9.4228 5.5676 1.5
    endloop
  endfacet
  facet normal 0 0 1
    outer loop
      vertex 7.69502 6.43521 1.5
      vertex 9.34161 6.85798 1.5
      vertex 9.20773 7.27003 1.5
    endloop
  endfacet
  facet normal -0 0 1
    outer loop
      vertex 7.7362 5.78067 1.5
      vertex 9.4228 5.5676 1.5
      vertex 7.75 6 1.5
    endloop
  endfacet
  facet normal 0 0 1
    outer loop
      vertex 7.62711 6.64422 1.5
      vertex 9.20773 7.27003 1.5
      vertex 9.02326 7.66205 1.5
    endloop
  endfacet
  facet normal 0 0 1
    outer loop
      vertex 9.4228 5.5676 1.5
      vertex 7.7362 5.78067 1.5
      vertex 9.34161 5.14202 1.5
    endloop
  endfacet
  facet normal 0 0 1
    outer loop
      vertex 7.53354 6.84307 1.5
      vertex 9.02326 7.66205 1.5
      vertex 8.79111 8.02786 1.5
    endloop
  endfacet
  facet normal -0 0 1
    outer loop
      vertex 7.69502 5.56479 1.5
      vertex 9.34161 5.14202 1.5
      vertex 7.7362 5.78067 1.5
    endloop
  endfacet
  facet normal 0 0 1
    outer loop
      vertex 7.41578 7.02862 1.5
      vertex 8.79111 8.02786 1.5
      vertex 8.51494 8.36169 1.5
    endloop
  endfacet
  facet normal 0 0 1
    outer loop
      vertex 9.34161 5.14202 1.5
      vertex 7.69502 5.56479 1.5
      vertex 9.20773 4.72997 1.5
    endloop
  endfacet
  facet normal 0 0 1
    outer loop
      vertex 7.27569 7.19796 1.5
      vertex 8.51494 8.36169 1.5
      vertex 8.19911 8.65827 1.5
    endloop
  endfacet
  facet normal -0 0 1
    outer loop
      vertex 7.62711 5.35578 1.5
      vertex 9.20773 4.72997 1.5
      vertex 7.69502 5.56479 1.5
    endloop
  endfacet
  facet normal 0 0 1
    outer loop
      vertex 7.11549 7.3484 1.5
      vertex 8.19911 8.65827 1.5
      vertex 7.8486 8.91293 1.5
    endloop
  endfacet
  facet normal 0 0 1
    outer loop
      vertex 9.20773 4.72997 1.5
      vertex 7.62711 5.35578 1.5
      vertex 9.02326 4.33795 1.5
    endloop
  endfacet
  facet normal -0 0 1
    outer loop
      vertex 7.53354 5.15693 1.5
      vertex 9.02326 4.33795 1.5
      vertex 7.62711 5.35578 1.5
    endloop
  endfacet
  facet normal 0 0 1
    outer loop
      vertex 9.4228 6.4324 1.5
      vertex 7.7362 6.21933 1.5
      vertex 7.75 6 1.5
    endloop
  endfacet
  facet normal 0 0 1
    outer loop
      vertex 9.34161 6.85798 1.5
      vertex 7.69502 6.43521 1.5
      vertex 7.7362 6.21933 1.5
    endloop
  endfacet
  facet normal 0 0 1
    outer loop
      vertex 9.20773 7.27003 1.5
      vertex 7.62711 6.64422 1.5
      vertex 7.69502 6.43521 1.5
    endloop
  endfacet
  facet normal 0 0 1
    outer loop
      vertex 9.02326 7.66205 1.5
      vertex 7.53354 6.84307 1.5
      vertex 7.62711 6.64422 1.5
    endloop
  endfacet
  facet normal 0 0 1
    outer loop
      vertex 6.9377 7.47757 1.5
      vertex 7.8486 8.91293 1.5
      vertex 7.46894 9.12165 1.5
    endloop
  endfacet
  facet normal 0 0 1
    outer loop
      vertex 8.79111 8.02786 1.5
      vertex 7.41578 7.02862 1.5
      vertex 7.53354 6.84307 1.5
    endloop
  endfacet
  facet normal 0 0 1
    outer loop
      vertex 8.51494 8.36169 1.5
      vertex 7.27569 7.19796 1.5
      vertex 7.41578 7.02862 1.5
    endloop
  endfacet
  facet normal 0 0 1
    outer loop
      vertex 8.19911 8.65827 1.5
      vertex 7.11549 7.3484 1.5
      vertex 7.27569 7.19796 1.5
    endloop
  endfacet
  facet normal 0 0 1
    outer loop
      vertex 6.74511 7.58345 1.5
      vertex 7.46894 9.12165 1.5
      vertex 7.06611 9.28114 1.5
    endloop
  endfacet
  facet normal 0 0 1
    outer loop
      vertex 7.8486 8.91293 1.5
      vertex 6.9377 7.47757 1.5
      vertex 7.11549 7.3484 1.5
    endloop
  endfacet
  facet normal 0 0 1
    outer loop
      vertex 7.46894 9.12165 1.5
      vertex 6.74511 7.58345 1.5
      vertex 6.9377 7.47757 1.5
    endloop
  endfacet
  facet normal 0 0 1
    outer loop
      vertex 6.54078 7.66435 1.5
      vertex 7.06611 9.28114 1.5
      vertex 6.64647 9.38889 1.5
    endloop
  endfacet
  facet normal 0 0 1
    outer loop
      vertex 7.06611 9.28114 1.5
      vertex 6.54078 7.66435 1.5
      vertex 6.74511 7.58345 1.5
    endloop
  endfacet
  facet normal 0 0 1
    outer loop
      vertex 6.64647 9.38889 1.5
      vertex 6.32792 7.719 1.5
      vertex 6.54078 7.66435 1.5
    endloop
  endfacet
  facet normal 0 0 1
    outer loop
      vertex 6.21663 9.44319 1.5
      vertex 6.32792 7.719 1.5
      vertex 6.64647 9.38889 1.5
    endloop
  endfacet
  facet normal 0 0 1
    outer loop
      vertex 6.21663 9.44319 1.5
      vertex 6.10988 7.74655 1.5
      vertex 6.32792 7.719 1.5
    endloop
  endfacet
  facet normal 0 0 1
    outer loop
      vertex 6.21663 9.44319 1.5
      vertex 5.89012 7.74655 1.5
      vertex 6.10988 7.74655 1.5
    endloop
  endfacet
  facet normal -0 0 1
    outer loop
      vertex 5.78337 9.44319 1.5
      vertex 5.89012 7.74655 1.5
      vertex 6.21663 9.44319 1.5
    endloop
  endfacet
  facet normal 0 0 1
    outer loop
      vertex 5.78337 9.44319 1.5
      vertex 5.67208 7.719 1.5
      vertex 5.89012 7.74655 1.5
    endloop
  endfacet
  facet normal -0 0 1
    outer loop
      vertex 5.35353 9.38889 1.5
      vertex 5.67208 7.719 1.5
      vertex 5.78337 9.44319 1.5
    endloop
  endfacet
  facet normal 0 0 1
    outer loop
      vertex 5.67208 7.719 1.5
      vertex 5.35353 9.38889 1.5
      vertex 5.45922 7.66435 1.5
    endloop
  endfacet
  facet normal -0 0 1
    outer loop
      vertex 4.93389 9.28114 1.5
      vertex 5.45922 7.66435 1.5
      vertex 5.35353 9.38889 1.5
    endloop
  endfacet
  facet normal 0 0 1
    outer loop
      vertex 5.45922 7.66435 1.5
      vertex 4.93389 9.28114 1.5
      vertex 5.25489 7.58345 1.5
    endloop
  endfacet
  facet normal -0 0 1
    outer loop
      vertex 4.53106 9.12165 1.5
      vertex 5.25489 7.58345 1.5
      vertex 4.93389 9.28114 1.5
    endloop
  endfacet
  facet normal 0 0 1
    outer loop
      vertex 5.25489 7.58345 1.5
      vertex 4.53106 9.12165 1.5
      vertex 5.0623 7.47757 1.5
    endloop
  endfacet
  facet normal -0 0 1
    outer loop
      vertex 4.1514 8.91293 1.5
      vertex 5.0623 7.47757 1.5
      vertex 4.53106 9.12165 1.5
    endloop
  endfacet
  facet normal 0 0 1
    outer loop
      vertex 5.0623 7.47757 1.5
      vertex 4.1514 8.91293 1.5
      vertex 4.88451 7.3484 1.5
    endloop
  endfacet
  facet normal -0 0 1
    outer loop
      vertex 3.80089 8.65827 1.5
      vertex 4.88451 7.3484 1.5
      vertex 4.1514 8.91293 1.5
    endloop
  endfacet
  facet normal 0 0 1
    outer loop
      vertex 4.88451 7.3484 1.5
      vertex 3.80089 8.65827 1.5
      vertex 4.72431 7.19796 1.5
    endloop
  endfacet
  facet normal -0 0 1
    outer loop
      vertex 3.48506 8.36169 1.5
      vertex 4.72431 7.19796 1.5
      vertex 3.80089 8.65827 1.5
    endloop
  endfacet
  facet normal 0 0 1
    outer loop
      vertex 4.72431 7.19796 1.5
      vertex 3.48506 8.36169 1.5
      vertex 4.58422 7.02862 1.5
    endloop
  endfacet
  facet normal -0 0 1
    outer loop
      vertex 3.20889 8.02786 1.5
      vertex 4.58422 7.02862 1.5
      vertex 3.48506 8.36169 1.5
    endloop
  endfacet
  facet normal -0 0 1
    outer loop
      vertex 2.97674 7.66205 1.5
      vertex 4.46646 6.84307 1.5
      vertex 3.20889 8.02786 1.5
    endloop
  endfacet
  facet normal 0 0 1
    outer loop
      vertex 4.58422 7.02862 1.5
      vertex 3.20889 8.02786 1.5
      vertex 4.46646 6.84307 1.5
    endloop
  endfacet
  facet normal 0 0 1
    outer loop
      vertex 9.02326 4.33795 1.5
      vertex 7.53354 5.15693 1.5
      vertex 8.79111 3.97214 1.5
    endloop
  endfacet
  facet normal -0 0 1
    outer loop
      vertex 7.41578 4.97138 1.5
      vertex 8.79111 3.97214 1.5
      vertex 7.53354 5.15693 1.5
    endloop
  endfacet
  facet normal 0 0 1
    outer loop
      vertex 8.79111 3.97214 1.5
      vertex 7.41578 4.97138 1.5
      vertex 8.51494 3.63831 1.5
    endloop
  endfacet
  facet normal -0 0 1
    outer loop
      vertex 7.27569 4.80204 1.5
      vertex 8.51494 3.63831 1.5
      vertex 7.41578 4.97138 1.5
    endloop
  endfacet
  facet normal 0 0 1
    outer loop
      vertex 8.51494 3.63831 1.5
      vertex 7.27569 4.80204 1.5
      vertex 8.19911 3.34173 1.5
    endloop
  endfacet
  facet normal -0 0 1
    outer loop
      vertex 7.11549 4.6516 1.5
      vertex 8.19911 3.34173 1.5
      vertex 7.27569 4.80204 1.5
    endloop
  endfacet
  facet normal 0 0 1
    outer loop
      vertex 8.19911 3.34173 1.5
      vertex 7.11549 4.6516 1.5
      vertex 7.8486 3.08707 1.5
    endloop
  endfacet
  facet normal -0 0 1
    outer loop
      vertex 6.9377 4.52243 1.5
      vertex 7.8486 3.08707 1.5
      vertex 7.11549 4.6516 1.5
    endloop
  endfacet
  facet normal 0 0 1
    outer loop
      vertex 7.8486 3.08707 1.5
      vertex 6.9377 4.52243 1.5
      vertex 7.46894 2.87835 1.5
    endloop
  endfacet
  facet normal -0 0 1
    outer loop
      vertex 6.74511 4.41655 1.5
      vertex 7.46894 2.87835 1.5
      vertex 6.9377 4.52243 1.5
    endloop
  endfacet
  facet normal 0 0 1
    outer loop
      vertex 7.46894 2.87835 1.5
      vertex 6.74511 4.41655 1.5
      vertex 7.06611 2.71886 1.5
    endloop
  endfacet
  facet normal -0 0 1
    outer loop
      vertex 6.54078 4.33565 1.5
      vertex 7.06611 2.71886 1.5
      vertex 6.74511 4.41655 1.5
    endloop
  endfacet
  facet normal 0 0 1
    outer loop
      vertex 7.06611 2.71886 1.5
      vertex 6.54078 4.33565 1.5
      vertex 6.64647 2.61111 1.5
    endloop
  endfacet
  facet normal -0 0 1
    outer loop
      vertex 6.32792 4.281 1.5
      vertex 6.64647 2.61111 1.5
      vertex 6.54078 4.33565 1.5
    endloop
  endfacet
  facet normal 0 0 1
    outer loop
      vertex 6.32792 4.281 1.5
      vertex 6.21663 2.55681 1.5
      vertex 6.64647 2.61111 1.5
    endloop
  endfacet
  facet normal -0 0 1
    outer loop
      vertex 6.10988 4.25345 1.5
      vertex 6.21663 2.55681 1.5
      vertex 6.32792 4.281 1.5
    endloop
  endfacet
  facet normal -0 0 1
    outer loop
      vertex 5.89012 4.25345 1.5
      vertex 6.21663 2.55681 1.5
      vertex 6.10988 4.25345 1.5
    endloop
  endfacet
  facet normal 0 0 1
    outer loop
      vertex 5.89012 4.25345 1.5
      vertex 5.78337 2.55681 1.5
      vertex 6.21663 2.55681 1.5
    endloop
  endfacet
  facet normal 0 0 1
    outer loop
      vertex 5.67208 4.281 1.5
      vertex 5.78337 2.55681 1.5
      vertex 5.89012 4.25345 1.5
    endloop
  endfacet
  facet normal 0 0 1
    outer loop
      vertex 5.35353 2.61111 1.5
      vertex 5.67208 4.281 1.5
      vertex 5.45922 4.33565 1.5
    endloop
  endfacet
  facet normal 0 0 1
    outer loop
      vertex 5.67208 4.281 1.5
      vertex 5.35353 2.61111 1.5
      vertex 5.78337 2.55681 1.5
    endloop
  endfacet
  facet normal 0 0 1
    outer loop
      vertex 4.93389 2.71886 1.5
      vertex 5.45922 4.33565 1.5
      vertex 5.25489 4.41655 1.5
    endloop
  endfacet
  facet normal 0 0 1
    outer loop
      vertex 4.53106 2.87835 1.5
      vertex 5.25489 4.41655 1.5
      vertex 5.0623 4.52243 1.5
    endloop
  endfacet
  facet normal 0 0 1
    outer loop
      vertex 5.45922 4.33565 1.5
      vertex 4.93389 2.71886 1.5
      vertex 5.35353 2.61111 1.5
    endloop
  endfacet
  facet normal 0 0 1
    outer loop
      vertex 4.1514 3.08707 1.5
      vertex 5.0623 4.52243 1.5
      vertex 4.88451 4.6516 1.5
    endloop
  endfacet
  facet normal 0 0 1
    outer loop
      vertex 3.80089 3.34173 1.5
      vertex 4.88451 4.6516 1.5
      vertex 4.72431 4.80204 1.5
    endloop
  endfacet
  facet normal 0 0 1
    outer loop
      vertex 3.48506 3.63831 1.5
      vertex 4.72431 4.80204 1.5
      vertex 4.58422 4.97138 1.5
    endloop
  endfacet
  facet normal 0 0 1
    outer loop
      vertex 5.25489 4.41655 1.5
      vertex 4.53106 2.87835 1.5
      vertex 4.93389 2.71886 1.5
    endloop
  endfacet
  facet normal 0 0 1
    outer loop
      vertex 3.20889 3.97214 1.5
      vertex 4.58422 4.97138 1.5
      vertex 4.46646 5.15693 1.5
    endloop
  endfacet
  facet normal 0 0 1
    outer loop
      vertex 2.97674 4.33795 1.5
      vertex 4.46646 5.15693 1.5
      vertex 4.37289 5.35578 1.5
    endloop
  endfacet
  facet normal 0 0 1
    outer loop
      vertex 2.79227 4.72997 1.5
      vertex 4.37289 5.35578 1.5
      vertex 4.30498 5.56479 1.5
    endloop
  endfacet
  facet normal 0 0 1
    outer loop
      vertex 2.65839 5.14202 1.5
      vertex 4.30498 5.56479 1.5
      vertex 4.2638 5.78067 1.5
    endloop
  endfacet
  facet normal 0 0 1
    outer loop
      vertex 5.0623 4.52243 1.5
      vertex 4.1514 3.08707 1.5
      vertex 4.53106 2.87835 1.5
    endloop
  endfacet
  facet normal 0 0 1
    outer loop
      vertex 2.5772 5.5676 1.5
      vertex 4.2638 5.78067 1.5
      vertex 4.25 6 1.5
    endloop
  endfacet
  facet normal 0 0 1
    outer loop
      vertex 4.46646 6.84307 1.5
      vertex 2.97674 7.66205 1.5
      vertex 4.37289 6.64422 1.5
    endloop
  endfacet
  facet normal -0 0 1
    outer loop
      vertex 2.79227 7.27003 1.5
      vertex 4.37289 6.64422 1.5
      vertex 2.97674 7.66205 1.5
    endloop
  endfacet
  facet normal 0 0 1
    outer loop
      vertex 4.88451 4.6516 1.5
      vertex 3.80089 3.34173 1.5
      vertex 4.1514 3.08707 1.5
    endloop
  endfacet
  facet normal 0 0 1
    outer loop
      vertex 4.37289 6.64422 1.5
      vertex 2.79227 7.27003 1.5
      vertex 4.30498 6.43521 1.5
    endloop
  endfacet
  facet normal 0 0 1
    outer loop
      vertex 4.72431 4.80204 1.5
      vertex 3.48506 3.63831 1.5
      vertex 3.80089 3.34173 1.5
    endloop
  endfacet
  facet normal -0 0 1
    outer loop
      vertex 2.65839 6.85798 1.5
      vertex 4.30498 6.43521 1.5
      vertex 2.79227 7.27003 1.5
    endloop
  endfacet
  facet normal 0 0 1
    outer loop
      vertex 4.58422 4.97138 1.5
      vertex 3.20889 3.97214 1.5
      vertex 3.48506 3.63831 1.5
    endloop
  endfacet
  facet normal 0 0 1
    outer loop
      vertex 4.30498 6.43521 1.5
      vertex 2.65839 6.85798 1.5
      vertex 4.2638 6.21933 1.5
    endloop
  endfacet
  facet normal 0 0 1
    outer loop
      vertex 4.46646 5.15693 1.5
      vertex 2.97674 4.33795 1.5
      vertex 3.20889 3.97214 1.5
    endloop
  endfacet
  facet normal -0 0 1
    outer loop
      vertex 2.5772 6.4324 1.5
      vertex 4.2638 6.21933 1.5
      vertex 2.65839 6.85798 1.5
    endloop
  endfacet
  facet normal 0 0 1
    outer loop
      vertex 4.37289 5.35578 1.5
      vertex 2.79227 4.72997 1.5
      vertex 2.97674 4.33795 1.5
    endloop
  endfacet
  facet normal 0 0 1
    outer loop
      vertex 4.2638 6.21933 1.5
      vertex 2.5772 6.4324 1.5
      vertex 4.25 6 1.5
    endloop
  endfacet
  facet normal 0 0 1
    outer loop
      vertex 4.30498 5.56479 1.5
      vertex 2.65839 5.14202 1.5
      vertex 2.79227 4.72997 1.5
    endloop
  endfacet
  facet normal 0 0 1
    outer loop
      vertex 2.55 6 1.5
      vertex 4.25 6 1.5
      vertex 2.5772 6.4324 1.5
    endloop
  endfacet
  facet normal 0 0 1
    outer loop
      vertex 4.2638 5.78067 1.5
      vertex 2.5772 5.5676 1.5
      vertex 2.65839 5.14202 1.5
    endloop
  endfacet
  facet normal 0 0 1
    outer loop
      vertex 4.25 6 1.5
      vertex 2.55 6 1.5
      vertex 2.5772 5.5676 1.5
    endloop
  endfacet
  facet normal -0.587786 0.809017 0
    outer loop
      vertex 8.19911 3.34173 1.5
      vertex 7.8486 3.08707 3.5
      vertex 8.19911 3.34173 3.5
    endloop
  endfacet
  facet normal -0.587786 0.809017 0
    outer loop
      vertex 7.8486 3.08707 3.5
      vertex 8.19911 3.34173 1.5
      vertex 7.8486 3.08707 1.5
    endloop
  endfacet
  facet normal -0.998027 0.0627912 0
    outer loop
      vertex 9.4228 5.5676 1.5
      vertex 9.45 6 3.5
      vertex 9.45 6 1.5
    endloop
  endfacet
  facet normal -0.998027 0.0627912 0
    outer loop
      vertex 9.45 6 3.5
      vertex 9.4228 5.5676 1.5
      vertex 9.4228 5.5676 3.5
    endloop
  endfacet
  facet normal 0.951056 0.309018 0
    outer loop
      vertex 2.79227 4.72997 3.5
      vertex 2.65839 5.14202 1.5
      vertex 2.65839 5.14202 3.5
    endloop
  endfacet
  facet normal 0.951056 0.309018 0
    outer loop
      vertex 2.65839 5.14202 1.5
      vertex 2.79227 4.72997 3.5
      vertex 2.79227 4.72997 1.5
    endloop
  endfacet
  facet normal 0.998027 0.0627912 0
    outer loop
      vertex 2.5772 5.5676 3.5
      vertex 2.55 6 1.5
      vertex 2.55 6 3.5
    endloop
  endfacet
  facet normal 0.998027 0.0627912 0
    outer loop
      vertex 2.55 6 1.5
      vertex 2.5772 5.5676 3.5
      vertex 2.5772 5.5676 1.5
    endloop
  endfacet
  facet normal -0.770513 0.637425 0
    outer loop
      vertex 8.51494 3.63831 1.5
      vertex 8.79111 3.97214 3.5
      vertex 8.79111 3.97214 1.5
    endloop
  endfacet
  facet normal -0.770513 0.637425 0
    outer loop
      vertex 8.79111 3.97214 3.5
      vertex 8.51494 3.63831 1.5
      vertex 8.51494 3.63831 3.5
    endloop
  endfacet
  facet normal -0.24869 0.968583 0
    outer loop
      vertex 7.06611 2.71886 1.5
      vertex 6.64647 2.61111 3.5
      vertex 7.06611 2.71886 3.5
    endloop
  endfacet
  facet normal -0.24869 0.968583 0
    outer loop
      vertex 6.64647 2.61111 3.5
      vertex 7.06611 2.71886 1.5
      vertex 6.64647 2.61111 1.5
    endloop
  endfacet
  facet normal -0.481753 0.876307 0
    outer loop
      vertex 7.8486 3.08707 1.5
      vertex 7.46894 2.87835 3.5
      vertex 7.8486 3.08707 3.5
    endloop
  endfacet
  facet normal -0.481753 0.876307 0
    outer loop
      vertex 7.46894 2.87835 3.5
      vertex 7.8486 3.08707 1.5
      vertex 7.46894 2.87835 1.5
    endloop
  endfacet
  facet normal -0.368124 0.929777 0
    outer loop
      vertex 7.46894 2.87835 1.5
      vertex 7.06611 2.71886 3.5
      vertex 7.46894 2.87835 3.5
    endloop
  endfacet
  facet normal -0.368124 0.929777 0
    outer loop
      vertex 7.06611 2.71886 3.5
      vertex 7.46894 2.87835 1.5
      vertex 7.06611 2.71886 1.5
    endloop
  endfacet
  facet normal -0.904827 0.42578 0
    outer loop
      vertex 9.02326 4.33795 1.5
      vertex 9.20773 4.72997 3.5
      vertex 9.20773 4.72997 1.5
    endloop
  endfacet
  facet normal -0.904827 0.42578 0
    outer loop
      vertex 9.20773 4.72997 3.5
      vertex 9.02326 4.33795 1.5
      vertex 9.02326 4.33795 3.5
    endloop
  endfacet
  facet normal -0.844329 0.535826 0
    outer loop
      vertex 8.79111 3.97214 1.5
      vertex 9.02326 4.33795 3.5
      vertex 9.02326 4.33795 1.5
    endloop
  endfacet
  facet normal -0.844329 0.535826 0
    outer loop
      vertex 9.02326 4.33795 3.5
      vertex 8.79111 3.97214 1.5
      vertex 8.79111 3.97214 3.5
    endloop
  endfacet
  facet normal 0.481753 0.876307 -0
    outer loop
      vertex 4.53106 2.87835 1.5
      vertex 4.1514 3.08707 3.5
      vertex 4.53106 2.87835 3.5
    endloop
  endfacet
  facet normal 0.481753 0.876307 0
    outer loop
      vertex 4.1514 3.08707 3.5
      vertex 4.53106 2.87835 1.5
      vertex 4.1514 3.08707 1.5
    endloop
  endfacet
  facet normal 0.844329 0.535826 0
    outer loop
      vertex 3.20889 3.97214 3.5
      vertex 2.97674 4.33795 1.5
      vertex 2.97674 4.33795 3.5
    endloop
  endfacet
  facet normal 0.844329 0.535826 0
    outer loop
      vertex 2.97674 4.33795 1.5
      vertex 3.20889 3.97214 3.5
      vertex 3.20889 3.97214 1.5
    endloop
  endfacet
  facet normal 0.904827 0.42578 0
    outer loop
      vertex 2.97674 4.33795 3.5
      vertex 2.79227 4.72997 1.5
      vertex 2.79227 4.72997 3.5
    endloop
  endfacet
  facet normal 0.904827 0.42578 0
    outer loop
      vertex 2.79227 4.72997 1.5
      vertex 2.97674 4.33795 3.5
      vertex 2.97674 4.33795 1.5
    endloop
  endfacet
  facet normal 0.982287 0.18738 0
    outer loop
      vertex 2.65839 5.14202 3.5
      vertex 2.5772 5.5676 1.5
      vertex 2.5772 5.5676 3.5
    endloop
  endfacet
  facet normal 0.982287 0.18738 0
    outer loop
      vertex 2.5772 5.5676 1.5
      vertex 2.65839 5.14202 3.5
      vertex 2.65839 5.14202 1.5
    endloop
  endfacet
  facet normal -0.684547 0.728969 0
    outer loop
      vertex 8.51494 3.63831 1.5
      vertex 8.19911 3.34173 3.5
      vertex 8.51494 3.63831 3.5
    endloop
  endfacet
  facet normal -0.684547 0.728969 0
    outer loop
      vertex 8.19911 3.34173 3.5
      vertex 8.51494 3.63831 1.5
      vertex 8.19911 3.34173 1.5
    endloop
  endfacet
  facet normal 0.24869 0.968583 -0
    outer loop
      vertex 5.35353 2.61111 1.5
      vertex 4.93389 2.71886 3.5
      vertex 5.35353 2.61111 3.5
    endloop
  endfacet
  facet normal 0.24869 0.968583 0
    outer loop
      vertex 4.93389 2.71886 3.5
      vertex 5.35353 2.61111 1.5
      vertex 4.93389 2.71886 1.5
    endloop
  endfacet
  facet normal 0.368124 0.929777 -0
    outer loop
      vertex 4.93389 2.71886 1.5
      vertex 4.53106 2.87835 3.5
      vertex 4.93389 2.71886 3.5
    endloop
  endfacet
  facet normal 0.368124 0.929777 0
    outer loop
      vertex 4.53106 2.87835 3.5
      vertex 4.93389 2.71886 1.5
      vertex 4.53106 2.87835 1.5
    endloop
  endfacet
  facet normal 0.125333 0.992115 -0
    outer loop
      vertex 5.78337 2.55681 1.5
      vertex 5.35353 2.61111 3.5
      vertex 5.78337 2.55681 3.5
    endloop
  endfacet
  facet normal 0.125333 0.992115 0
    outer loop
      vertex 5.35353 2.61111 3.5
      vertex 5.78337 2.55681 1.5
      vertex 5.35353 2.61111 1.5
    endloop
  endfacet
  facet normal 0.587786 0.809017 -0
    outer loop
      vertex 4.1514 3.08707 1.5
      vertex 3.80089 3.34173 3.5
      vertex 4.1514 3.08707 3.5
    endloop
  endfacet
  facet normal 0.587786 0.809017 0
    outer loop
      vertex 3.80089 3.34173 3.5
      vertex 4.1514 3.08707 1.5
      vertex 3.80089 3.34173 1.5
    endloop
  endfacet
  facet normal -1 0 0
    outer loop
      vertex 8 0 0
      vertex 8 0.0157862 3.5
      vertex 8 0.0157862 0
    endloop
  endfacet
  facet normal -1 -0 0
    outer loop
      vertex 8 0.0157862 3.5
      vertex 8 0 0
      vertex 8 0 3.5
    endloop
  endfacet
  facet normal -0.998027 -0.0627898 0
    outer loop
      vertex 0.0630817 6.99733 0
      vertex 0 8 3.5
      vertex 0 8 0
    endloop
  endfacet
  facet normal -0.998027 -0.0627898 0
    outer loop
      vertex 0 8 3.5
      vertex 0.0630817 6.99733 0
      vertex 0.0630817 6.99733 3.5
    endloop
  endfacet
  facet normal -0.24869 -0.968583 0
    outer loop
      vertex 5.52786 0.391547 0
      vertex 6.50095 0.141702 3.5
      vertex 5.52786 0.391547 3.5
    endloop
  endfacet
  facet normal -0.24869 -0.968583 -0
    outer loop
      vertex 6.50095 0.141702 3.5
      vertex 5.52786 0.391547 0
      vertex 6.50095 0.141702 0
    endloop
  endfacet
  facet normal -0.684547 -0.728969 0
    outer loop
      vertex 2.16825 2.52362 0
      vertex 2.90061 1.83589 3.5
      vertex 2.16825 2.52362 3.5
    endloop
  endfacet
  facet normal -0.684547 -0.728969 -0
    outer loop
      vertex 2.90061 1.83589 3.5
      vertex 2.16825 2.52362 0
      vertex 2.90061 1.83589 0
    endloop
  endfacet
  facet normal -0.844328 -0.535827 0
    outer loop
      vertex 1.52786 3.29772 0
      vertex 0.989546 4.14597 3.5
      vertex 0.989546 4.14597 0
    endloop
  endfacet
  facet normal -0.844328 -0.535827 0
    outer loop
      vertex 0.989546 4.14597 3.5
      vertex 1.52786 3.29772 0
      vertex 1.52786 3.29772 3.5
    endloop
  endfacet
  facet normal -0.904827 -0.425779 0
    outer loop
      vertex 0.989546 4.14597 0
      vertex 0.561788 5.055 3.5
      vertex 0.561788 5.055 0
    endloop
  endfacet
  facet normal -0.904827 -0.425779 0
    outer loop
      vertex 0.561788 5.055 3.5
      vertex 0.989546 4.14597 0
      vertex 0.989546 4.14597 3.5
    endloop
  endfacet
  facet normal -0.982287 -0.187382 0
    outer loop
      vertex 0.251334 6.01048 0
      vertex 0.0630817 6.99733 3.5
      vertex 0.0630817 6.99733 0
    endloop
  endfacet
  facet normal -0.982287 -0.187382 0
    outer loop
      vertex 0.0630817 6.99733 3.5
      vertex 0.251334 6.01048 0
      vertex 0.251334 6.01048 3.5
    endloop
  endfacet
  facet normal -0.368125 -0.929776 0
    outer loop
      vertex 4.59377 0.761383 0
      vertex 5.52786 0.391547 3.5
      vertex 4.59377 0.761383 3.5
    endloop
  endfacet
  facet normal -0.368125 -0.929776 -0
    outer loop
      vertex 5.52786 0.391547 3.5
      vertex 4.59377 0.761383 0
      vertex 5.52786 0.391547 0
    endloop
  endfacet
  facet normal -0.587785 -0.809017 0
    outer loop
      vertex 2.90061 1.83589 0
      vertex 3.71339 1.24538 3.5
      vertex 2.90061 1.83589 3.5
    endloop
  endfacet
  facet normal -0.587785 -0.809017 -0
    outer loop
      vertex 3.71339 1.24538 3.5
      vertex 2.90061 1.83589 0
      vertex 3.71339 1.24538 0
    endloop
  endfacet
  facet normal -0.770513 -0.637424 0
    outer loop
      vertex 2.16825 2.52362 0
      vertex 1.52786 3.29772 3.5
      vertex 1.52786 3.29772 0
    endloop
  endfacet
  facet normal -0.770513 -0.637424 0
    outer loop
      vertex 1.52786 3.29772 3.5
      vertex 2.16825 2.52362 0
      vertex 2.16825 2.52362 3.5
    endloop
  endfacet
  facet normal -0.951057 -0.309017 0
    outer loop
      vertex 0.561788 5.055 0
      vertex 0.251334 6.01048 3.5
      vertex 0.251334 6.01048 0
    endloop
  endfacet
  facet normal -0.951057 -0.309017 0
    outer loop
      vertex 0.251334 6.01048 3.5
      vertex 0.561788 5.055 0
      vertex 0.561788 5.055 3.5
    endloop
  endfacet
  facet normal -0.125333 -0.992115 0
    outer loop
      vertex 6.50095 0.141702 0
      vertex 7.49767 0.0157862 3.5
      vertex 6.50095 0.141702 3.5
    endloop
  endfacet
  facet normal -0.125333 -0.992115 -0
    outer loop
      vertex 7.49767 0.0157862 3.5
      vertex 6.50095 0.141702 0
      vertex 7.49767 0.0157862 0
    endloop
  endfacet
  facet normal -0.481754 -0.876306 0
    outer loop
      vertex 3.71339 1.24538 0
      vertex 4.59377 0.761383 3.5
      vertex 3.71339 1.24538 3.5
    endloop
  endfacet
  facet normal -0.481754 -0.876306 -0
    outer loop
      vertex 4.59377 0.761383 3.5
      vertex 3.71339 1.24538 0
      vertex 4.59377 0.761383 0
    endloop
  endfacet
  facet normal 0 -1 0
    outer loop
      vertex 7.49767 0.0157862 0
      vertex 8 0.0157862 3.5
      vertex 7.49767 0.0157862 3.5
    endloop
  endfacet
  facet normal 0 -1 -0
    outer loop
      vertex 8 0.0157862 3.5
      vertex 7.49767 0.0157862 0
      vertex 8 0.0157862 0
    endloop
  endfacet
endsolid OpenSCAD_Model
