solid Radial Fan
facet normal 1.0964514862472897e-15 1.0 -8.316644136823107e-16
  outer loop
    vertex 272.56313340893365 31.820248568074355 0.8787840674609771
    vertex 273.56313340893365 31.82024856807434 1.8787840674609941
    vertex 278.56313340893365 31.82024856807434 0.8787840674610446
  endloop
endfacet
facet normal 1.0964514862472897e-15 1.0 -8.316644136823107e-16
  outer loop
    vertex 273.56313340893365 31.82024856807434 1.8787840674609941
    vertex 272.56313340893365 31.820248568074355 0.8787840674609771
    vertex 272.5631334089334 31.820248568074366 22.96304509698422
  endloop
endfacet
facet normal 1.0964514862472897e-15 1.0 -8.316644136823107e-16
  outer loop
    vertex 273.56313340893365 31.82024856807434 1.8787840674609941
    vertex 272.5631334089334 31.820248568074366 22.96304509698422
    vertex 273.5631334089334 31.820248568074366 21.963045096984235
  endloop
endfacet
facet normal 1.0964514862472897e-15 1.0 -8.316644136823107e-16
  outer loop
    vertex 273.5631334089334 31.820248568074366 21.963045096984235
    vertex 272.5631334089334 31.820248568074366 22.96304509698422
    vertex 277.5631334089334 31.820248568074366 21.963045096984278
  endloop
endfacet
facet normal 1.0964514862472897e-15 1.0 -8.316644136823107e-16
  outer loop
    vertex 278.56313340893365 31.82024856807434 0.8787840674610446
    vertex 277.56313340893365 31.82024856807434 1.8787840674610323
    vertex 278.5631334089334 31.820248568074355 22.96304509698428
  endloop
endfacet
facet normal 1.0964514862472897e-15 1.0 -8.316644136823107e-16
  outer loop
    vertex 277.56313340893365 31.82024856807434 1.8787840674610323
    vertex 278.56313340893365 31.82024856807434 0.8787840674610446
    vertex 273.56313340893365 31.82024856807434 1.8787840674609941
  endloop
endfacet
facet normal 1.0964514862472897e-15 1.0 -8.316644136823107e-16
  outer loop
    vertex 278.5631334089334 31.820248568074355 22.96304509698428
    vertex 277.56313340893365 31.82024856807434 1.8787840674610323
    vertex 277.5631334089334 31.820248568074366 21.963045096984278
  endloop
endfacet
facet normal 1.0964514862472897e-15 1.0 -8.316644136823107e-16
  outer loop
    vertex 278.5631334089334 31.820248568074355 22.96304509698428
    vertex 277.5631334089334 31.820248568074366 21.963045096984278
    vertex 272.5631334089334 31.820248568074366 22.96304509698422
  endloop
endfacet
facet normal -1.0 4.996003610813203e-16 -1.0245592966191598e-14
  outer loop
    vertex 262.5631334089334 21.420248568074367 22.963045096984125
    vertex 262.5631334089334 20.420248568074364 21.96304509698413
    vertex 262.5631334089334 20.420248568074364 22.96304509698413
  endloop
endfacet
facet normal -1.0 4.996003610813203e-16 -1.0245592966191598e-14
  outer loop
    vertex 262.5631334089334 20.420248568074364 21.96304509698413
    vertex 262.5631334089334 21.420248568074367 22.963045096984125
    vertex 262.56313340893365 21.420248568074356 0.878784067460881
  endloop
endfacet
facet normal -1.0 4.996003610813203e-16 -1.0245592966191598e-14
  outer loop
    vertex 262.5631334089334 7.420248568074365 21.963045096984136
    vertex 262.56313340893365 21.420248568074356 0.878784067460881
    vertex 262.56313340893365 7.420248568074355 0.8787840674608899
  endloop
endfacet
facet normal -1.0 4.996003610813203e-16 -1.0245592966191598e-14
  outer loop
    vertex 262.56313340893365 21.420248568074356 0.878784067460881
    vertex 262.5631334089334 7.420248568074365 21.963045096984136
    vertex 262.5631334089334 20.420248568074364 21.96304509698413
  endloop
endfacet
facet normal 6.10622663543836e-16 1.0 -8.899493680541414e-16
  outer loop
    vertex 263.56313340893365 21.42024856807435 1.8787840674608949
    vertex 264.9631334089337 21.420248568074346 3.1209145822225426
    vertex 278.56313340893365 21.42024856807433 1.8787840674610496
  endloop
endfacet
facet normal 6.10622663543836e-16 1.0 -8.899493680541414e-16
  outer loop
    vertex 264.9631334089337 21.420248568074346 3.1209145822225426
    vertex 263.56313340893365 21.42024856807435 1.8787840674608949
    vertex 263.5631334089334 21.420248568074367 21.96304509698414
  endloop
endfacet
facet normal 6.10622663543836e-16 1.0 -8.899493680541414e-16
  outer loop
    vertex 264.9631334089337 21.420248568074346 3.1209145822225426
    vertex 263.5631334089334 21.420248568074367 21.96304509698414
    vertex 264.96313340893346 21.420248568074356 20.72091458222256
  endloop
endfacet
facet normal 6.10622663543836e-16 1.0 -8.899493680541414e-16
  outer loop
    vertex 264.96313340893346 21.420248568074356 20.72091458222256
    vertex 263.5631334089334 21.420248568074367 21.96304509698414
    vertex 277.16313340893345 21.42024856807435 20.72091458222266
  endloop
endfacet
facet normal 6.10622663543836e-16 1.0 -8.899493680541414e-16
  outer loop
    vertex 278.56313340893365 21.42024856807433 1.8787840674610496
    vertex 277.1631334089336 21.42024856807433 3.1209145822226607
    vertex 278.5631334089334 21.420248568074353 21.9630450969843
  endloop
endfacet
facet normal 6.10622663543836e-16 1.0 -8.899493680541414e-16
  outer loop
    vertex 277.1631334089336 21.42024856807433 3.1209145822226607
    vertex 278.56313340893365 21.42024856807433 1.8787840674610496
    vertex 264.9631334089337 21.420248568074346 3.1209145822225426
  endloop
endfacet
facet normal 6.10622663543836e-16 1.0 -8.899493680541414e-16
  outer loop
    vertex 278.5631334089334 21.420248568074353 21.9630450969843
    vertex 277.1631334089336 21.42024856807433 3.1209145822226607
    vertex 277.16313340893345 21.42024856807435 20.72091458222266
  endloop
endfacet
facet normal 6.10622663543836e-16 1.0 -8.899493680541414e-16
  outer loop
    vertex 278.5631334089334 21.420248568074353 21.9630450969843
    vertex 277.16313340893345 21.42024856807435 20.72091458222266
    vertex 263.5631334089334 21.420248568074367 21.96304509698414
  endloop
endfacet
facet normal 9.592508936535889e-15 7.049916206369524e-15 -1.0
  outer loop
    vertex 264.96313340893346 21.420248568074356 20.72091458222256
    vertex 277.16313340893345 20.420248568074353 20.720914582222665
    vertex 264.96313340893346 20.420248568074364 20.720914582222537
  endloop
endfacet
facet normal 9.592508936535889e-15 7.049916206369524e-15 -1.0
  outer loop
    vertex 277.16313340893345 20.420248568074353 20.720914582222665
    vertex 264.96313340893346 21.420248568074356 20.72091458222256
    vertex 277.16313340893345 21.42024856807435 20.72091458222266
  endloop
endfacet
facet normal -9.953672676616318e-15 -2.9962143877071393e-15 1.0
  outer loop
    vertex 277.1631334089336 20.42024856807433 3.1209145822226607
    vertex 264.9631334089337 21.420248568074346 3.1209145822225426
    vertex 264.96313340893363 20.420248568074346 3.1209145822225364
  endloop
endfacet
facet normal -9.953672676616318e-15 -2.9962143877071393e-15 1.0
  outer loop
    vertex 264.9631334089337 21.420248568074346 3.1209145822225426
    vertex 277.1631334089336 20.42024856807433 3.1209145822226607
    vertex 277.1631334089336 21.42024856807433 3.1209145822226607
  endloop
endfacet
facet normal 1.0 -4.5119463720766706e-14 1.0254423572901477e-14
  outer loop
    vertex 264.9631334089337 21.420248568074346 3.1209145822225426
    vertex 264.96313340893346 20.420248568074364 20.720914582222537
    vertex 264.96313340893363 20.420248568074346 3.1209145822225364
  endloop
endfacet
facet normal 1.0 -4.5119463720766706e-14 1.0254423572901477e-14
  outer loop
    vertex 264.96313340893346 20.420248568074364 20.720914582222537
    vertex 264.9631334089337 21.420248568074346 3.1209145822225426
    vertex 264.96313340893346 21.420248568074356 20.72091458222256
  endloop
endfacet
facet normal -7.216449660063516e-16 -1.0 6.531025310140654e-16
  outer loop
    vertex 279.56313340893365 7.420248568074339 0.8787840674610707
    vertex 278.56313340893365 7.420248568074333 1.8787840674610599
    vertex 263.56313340893365 7.420248568074344 1.8787840674609053
  endloop
endfacet
facet normal -7.216449660063516e-16 -1.0 6.531025310140654e-16
  outer loop
    vertex 278.56313340893365 7.420248568074333 1.8787840674610599
    vertex 279.56313340893365 7.420248568074339 0.8787840674610707
    vertex 279.5631334089334 7.42024856807435 21.963045096984317
  endloop
endfacet
facet normal -7.216449660063516e-16 -1.0 6.531025310140654e-16
  outer loop
    vertex 278.56313340893365 7.420248568074333 1.8787840674610599
    vertex 279.5631334089334 7.42024856807435 21.963045096984317
    vertex 278.5631334089334 7.42024856807435 21.963045096984306
  endloop
endfacet
facet normal -7.216449660063516e-16 -1.0 6.531025310140654e-16
  outer loop
    vertex 262.56313340893365 7.420248568074355 0.8787840674608899
    vertex 263.56313340893365 7.420248568074344 1.8787840674609053
    vertex 262.5631334089334 7.420248568074365 21.963045096984136
  endloop
endfacet
facet normal -7.216449660063516e-16 -1.0 6.531025310140654e-16
  outer loop
    vertex 263.56313340893365 7.420248568074344 1.8787840674609053
    vertex 262.56313340893365 7.420248568074355 0.8787840674608899
    vertex 279.56313340893365 7.420248568074339 0.8787840674610707
  endloop
endfacet
facet normal -7.216449660063516e-16 -1.0 6.531025310140654e-16
  outer loop
    vertex 262.5631334089334 7.420248568074365 21.963045096984136
    vertex 263.56313340893365 7.420248568074344 1.8787840674609053
    vertex 263.5631334089334 7.420248568074363 21.963045096984146
  endloop
endfacet
facet normal -1.0302996280578058e-14 5.438402267997984e-16 1.0
  outer loop
    vertex 279.5631334089334 7.42024856807435 21.963045096984317
    vertex 278.5631334089334 20.420248568074353 21.9630450969843
    vertex 278.5631334089334 7.42024856807435 21.963045096984306
  endloop
endfacet
facet normal -1.0302996280578058e-14 5.438402267997984e-16 1.0
  outer loop
    vertex 278.5631334089334 20.420248568074353 21.9630450969843
    vertex 279.5631334089334 7.42024856807435 21.963045096984317
    vertex 279.5631334089334 20.420248568074353 21.96304509698431
  endloop
endfacet
facet normal -1.0 -2.255973186038324e-14 -8.97262062628874e-15
  outer loop
    vertex 277.16313340893345 20.420248568074353 20.720914582222665
    vertex 277.1631334089336 21.42024856807433 3.1209145822226607
    vertex 277.1631334089336 20.42024856807433 3.1209145822226607
  endloop
endfacet
facet normal -1.0 -2.255973186038324e-14 -8.97262062628874e-15
  outer loop
    vertex 277.1631334089336 21.42024856807433 3.1209145822226607
    vertex 277.16313340893345 20.420248568074353 20.720914582222665
    vertex 277.16313340893345 21.42024856807435 20.72091458222266
  endloop
endfacet
facet normal -1.0 8.326672684688672e-16 -1.0328962855746116e-14
  outer loop
    vertex 278.5631334089334 7.42024856807435 21.963045096984306
    vertex 278.56313340893365 20.420248568074335 1.8787840674610499
    vertex 278.56313340893365 7.420248568074333 1.8787840674610599
  endloop
endfacet
facet normal -1.0 8.326672684688672e-16 -1.0328962855746116e-14
  outer loop
    vertex 278.56313340893365 20.420248568074335 1.8787840674610499
    vertex 278.5631334089334 7.42024856807435 21.963045096984306
    vertex 278.5631334089334 20.420248568074353 21.9630450969843
  endloop
endfacet
facet normal -1.020010219707144e-14 -5.670511871807256e-16 1.0
  outer loop
    vertex 269.56313340893365 20.42024856807434 1.8787840674609575
    vertex 263.56313340893365 20.420248568074346 1.8787840674608955
    vertex 269.56313340893365 8.92024856807435 1.8787840674609184
  endloop
endfacet
facet normal -1.020010219707144e-14 -5.670511871807256e-16 1.0
  outer loop
    vertex 263.56313340893365 7.420248568074344 1.8787840674609053
    vertex 269.56313340893365 8.92024856807435 1.8787840674609184
    vertex 263.56313340893365 20.420248568074346 1.8787840674608955
  endloop
endfacet
facet normal -1.020010219707144e-14 -5.670511871807256e-16 1.0
  outer loop
    vertex 269.56313340893365 8.92024856807435 1.8787840674609184
    vertex 263.56313340893365 7.420248568074344 1.8787840674609053
    vertex 278.56313340893365 7.420248568074333 1.8787840674610599
  endloop
endfacet
facet normal -1.020010219707144e-14 -5.670511871807256e-16 1.0
  outer loop
    vertex 269.56313340893365 8.92024856807435 1.8787840674609184
    vertex 278.56313340893365 7.420248568074333 1.8787840674610599
    vertex 272.56313340893365 8.920248568074339 1.8787840674609495
  endloop
endfacet
facet normal -1.020010219707144e-14 -5.670511871807256e-16 1.0
  outer loop
    vertex 272.56313340893365 8.920248568074339 1.8787840674609495
    vertex 278.56313340893365 7.420248568074333 1.8787840674610599
    vertex 272.56313340893365 20.42024856807434 1.8787840674609881
  endloop
endfacet
facet normal -1.020010219707144e-14 -5.670511871807256e-16 1.0
  outer loop
    vertex 272.56313340893365 20.42024856807434 1.8787840674609881
    vertex 278.56313340893365 7.420248568074333 1.8787840674610599
    vertex 278.56313340893365 20.420248568074335 1.8787840674610499
  endloop
endfacet
facet normal -1.0302996280578058e-14 5.438402267997984e-16 1.0
  outer loop
    vertex 263.5631334089334 7.420248568074363 21.963045096984146
    vertex 262.5631334089334 20.420248568074364 21.96304509698413
    vertex 262.5631334089334 7.420248568074365 21.963045096984136
  endloop
endfacet
facet normal -1.0302996280578058e-14 5.438402267997984e-16 1.0
  outer loop
    vertex 262.5631334089334 20.420248568074364 21.96304509698413
    vertex 263.5631334089334 7.420248568074363 21.963045096984146
    vertex 263.5631334089334 20.420248568074364 21.96304509698414
  endloop
endfacet
facet normal 1.0 -8.326672684688672e-16 8.470001771555915e-15
  outer loop
    vertex 269.56313340893365 20.42024856807434 0.8787840674609578
    vertex 269.56313340893365 8.92024856807435 1.8787840674609184
    vertex 269.56313340893365 8.920248568074348 0.8787840674609668
  endloop
endfacet
facet normal 1.0 -8.326672684688672e-16 8.470001771555915e-15
  outer loop
    vertex 269.56313340893365 8.92024856807435 1.8787840674609184
    vertex 269.56313340893365 20.42024856807434 0.8787840674609578
    vertex 269.56313340893365 20.42024856807434 1.8787840674609575
  endloop
endfacet
facet normal -1.0 -1.1102230246251563e-16 -7.698256021125106e-15
  outer loop
    vertex 272.56313340893365 8.920248568074339 1.8787840674609495
    vertex 272.56313340893365 20.42024856807434 0.8787840674609886
    vertex 272.56313340893365 8.920248568074337 0.8787840674609964
  endloop
endfacet
facet normal -1.0 -1.1102230246251563e-16 -7.698256021125106e-15
  outer loop
    vertex 272.56313340893365 20.42024856807434 0.8787840674609886
    vertex 272.56313340893365 8.920248568074339 1.8787840674609495
    vertex 272.56313340893365 20.42024856807434 1.8787840674609881
  endloop
endfacet
facet normal 3.885780586188047e-15 1.0 -2.068984203124635e-15
  outer loop
    vertex 269.56313340893365 8.92024856807435 1.8787840674609184
    vertex 272.56313340893365 8.920248568074337 0.8787840674609964
    vertex 269.56313340893365 8.920248568074348 0.8787840674609668
  endloop
endfacet
facet normal 3.885780586188047e-15 1.0 -2.068984203124635e-15
  outer loop
    vertex 272.56313340893365 8.920248568074337 0.8787840674609964
    vertex 269.56313340893365 8.92024856807435 1.8787840674609184
    vertex 272.56313340893365 8.920248568074339 1.8787840674609495
  endloop
endfacet
facet normal -6.739881650449184e-16 -1.0 8.596273114358388e-16
  outer loop
    vertex 272.56313340893365 20.42024856807434 0.8787840674609886
    vertex 269.56313340893365 20.42024856807434 1.8787840674609575
    vertex 269.56313340893365 20.42024856807434 0.8787840674609578
  endloop
endfacet
facet normal -6.739881650449184e-16 -1.0 8.596273114358388e-16
  outer loop
    vertex 269.56313340893365 20.42024856807434 1.8787840674609575
    vertex 272.56313340893365 20.42024856807434 0.8787840674609886
    vertex 272.56313340893365 20.42024856807434 1.8787840674609881
  endloop
endfacet
facet normal -6.739881650449184e-16 -1.0 8.596273114358388e-16
  outer loop
    vertex 278.56313340893365 20.420248568074335 1.8787840674610499
    vertex 277.1631334089336 20.42024856807433 3.1209145822226607
    vertex 264.96313340893363 20.420248568074346 3.1209145822225364
  endloop
endfacet
facet normal -6.739881650449184e-16 -1.0 8.596273114358388e-16
  outer loop
    vertex 277.1631334089336 20.42024856807433 3.1209145822226607
    vertex 278.56313340893365 20.420248568074335 1.8787840674610499
    vertex 278.5631334089334 20.420248568074353 21.9630450969843
  endloop
endfacet
facet normal -6.739881650449184e-16 -1.0 8.596273114358388e-16
  outer loop
    vertex 277.1631334089336 20.42024856807433 3.1209145822226607
    vertex 278.5631334089334 20.420248568074353 21.9630450969843
    vertex 277.16313340893345 20.420248568074353 20.720914582222665
  endloop
endfacet
facet normal -6.739881650449184e-16 -1.0 8.596273114358388e-16
  outer loop
    vertex 277.16313340893345 20.420248568074353 20.720914582222665
    vertex 278.5631334089334 20.420248568074353 21.9630450969843
    vertex 263.5631334089334 20.420248568074364 21.96304509698414
  endloop
endfacet
facet normal -6.739881650449184e-16 -1.0 8.596273114358388e-16
  outer loop
    vertex 263.5631334089334 20.420248568074364 21.96304509698414
    vertex 262.5631334089334 20.420248568074364 22.96304509698413
    vertex 262.5631334089334 20.420248568074364 21.96304509698413
  endloop
endfacet
facet normal -6.739881650449184e-16 -1.0 8.596273114358388e-16
  outer loop
    vertex 262.5631334089334 20.420248568074364 22.96304509698413
    vertex 263.5631334089334 20.420248568074364 21.96304509698414
    vertex 278.5631334089334 20.420248568074353 21.9630450969843
  endloop
endfacet
facet normal -6.739881650449184e-16 -1.0 8.596273114358388e-16
  outer loop
    vertex 262.5631334089334 20.420248568074364 22.96304509698413
    vertex 278.5631334089334 20.420248568074353 21.9630450969843
    vertex 279.5631334089334 20.420248568074353 21.96304509698431
  endloop
endfacet
facet normal -6.739881650449184e-16 -1.0 8.596273114358388e-16
  outer loop
    vertex 262.5631334089334 20.420248568074364 22.96304509698413
    vertex 279.5631334089334 20.420248568074353 21.96304509698431
    vertex 279.5631334089334 20.420248568074353 22.963045096984303
  endloop
endfacet
facet normal -6.739881650449184e-16 -1.0 8.596273114358388e-16
  outer loop
    vertex 263.56313340893365 20.420248568074346 1.8787840674608955
    vertex 264.96313340893363 20.420248568074346 3.1209145822225364
    vertex 263.5631334089334 20.420248568074364 21.96304509698414
  endloop
endfacet
facet normal -6.739881650449184e-16 -1.0 8.596273114358388e-16
  outer loop
    vertex 264.96313340893363 20.420248568074346 3.1209145822225364
    vertex 263.56313340893365 20.420248568074346 1.8787840674608955
    vertex 269.56313340893365 20.42024856807434 1.8787840674609575
  endloop
endfacet
facet normal -6.739881650449184e-16 -1.0 8.596273114358388e-16
  outer loop
    vertex 264.96313340893363 20.420248568074346 3.1209145822225364
    vertex 269.56313340893365 20.42024856807434 1.8787840674609575
    vertex 272.56313340893365 20.42024856807434 1.8787840674609881
  endloop
endfacet
facet normal -6.739881650449184e-16 -1.0 8.596273114358388e-16
  outer loop
    vertex 264.96313340893363 20.420248568074346 3.1209145822225364
    vertex 272.56313340893365 20.42024856807434 1.8787840674609881
    vertex 278.56313340893365 20.420248568074335 1.8787840674610499
  endloop
endfacet
facet normal -6.739881650449184e-16 -1.0 8.596273114358388e-16
  outer loop
    vertex 263.5631334089334 20.420248568074364 21.96304509698414
    vertex 264.96313340893363 20.420248568074346 3.1209145822225364
    vertex 264.96313340893346 20.420248568074364 20.720914582222537
  endloop
endfacet
facet normal -6.739881650449184e-16 -1.0 8.596273114358388e-16
  outer loop
    vertex 263.5631334089334 20.420248568074364 21.96304509698414
    vertex 264.96313340893346 20.420248568074364 20.720914582222537
    vertex 277.16313340893345 20.420248568074353 20.720914582222665
  endloop
endfacet
facet normal 1.0 -7.216449660063516e-16 1.0215115580109281e-14
  outer loop
    vertex 263.56313340893365 20.420248568074346 1.8787840674608955
    vertex 263.5631334089334 7.420248568074363 21.963045096984146
    vertex 263.56313340893365 7.420248568074344 1.8787840674609053
  endloop
endfacet
facet normal 1.0 -7.216449660063516e-16 1.0215115580109281e-14
  outer loop
    vertex 263.5631334089334 7.420248568074363 21.963045096984146
    vertex 263.56313340893365 20.420248568074346 1.8787840674608955
    vertex 263.5631334089334 20.420248568074364 21.96304509698414
  endloop
endfacet
facet normal 1.0 7.04640679318433e-30 1.1232542649799796e-14
  outer loop
    vertex 273.56313340893365 31.82024856807434 1.8787840674609941
    vertex 273.5631334089334 29.82024856807436 21.963045096984235
    vertex 273.56313340893365 29.82024856807434 1.878784067460995
  endloop
endfacet
facet normal 1.0 7.04640679318433e-30 1.1232542649799796e-14
  outer loop
    vertex 273.5631334089334 29.82024856807436 21.963045096984235
    vertex 273.56313340893365 31.82024856807434 1.8787840674609941
    vertex 273.5631334089334 31.820248568074366 21.963045096984235
  endloop
endfacet
facet normal -0.8944271909999167 -0.44721359549995654 -9.606255634876254e-15
  outer loop
    vertex 278.5631334089334 29.82024856807436 21.963045096984292
    vertex 277.56313340893365 31.82024856807434 1.8787840674610323
    vertex 278.56313340893365 29.82024856807434 1.8787840674610439
  endloop
endfacet
facet normal -0.8944271909999167 -0.44721359549995654 -9.606255634876254e-15
  outer loop
    vertex 277.56313340893365 31.82024856807434 1.8787840674610323
    vertex 278.5631334089334 29.82024856807436 21.963045096984292
    vertex 277.5631334089334 31.820248568074366 21.963045096984278
  endloop
endfacet
facet normal -0.6431920864232733 0.7657048647896113 -6.303586007459235e-15
  outer loop
    vertex 262.5631334089334 21.420248568074367 22.963045096984125
    vertex 272.56313340893365 29.82024856807436 0.8787840674609783
    vertex 262.56313340893365 21.420248568074356 0.878784067460881
  endloop
endfacet
facet normal -0.6431920864232733 0.7657048647896113 -6.303586007459235e-15
  outer loop
    vertex 272.56313340893365 29.82024856807436 0.8787840674609783
    vertex 262.5631334089334 21.420248568074367 22.963045096984125
    vertex 272.5631334089334 29.82024856807437 22.963045096984224
  endloop
endfacet
facet normal -1.0264677996474338e-14 4.867799285350659e-16 1.0
  outer loop
    vertex 278.56313340893365 21.42024856807433 1.8787840674610496
    vertex 273.56313340893365 29.82024856807434 1.878784067460995
    vertex 263.56313340893365 21.42024856807435 1.8787840674608949
  endloop
endfacet
facet normal -1.0264677996474338e-14 4.867799285350659e-16 1.0
  outer loop
    vertex 273.56313340893365 29.82024856807434 1.878784067460995
    vertex 278.56313340893365 21.42024856807433 1.8787840674610496
    vertex 278.56313340893365 29.82024856807434 1.8787840674610439
  endloop
endfacet
facet normal 1.0772271963332988e-14 -8.728467684076848e-16 -1.0
  outer loop
    vertex 273.5631334089334 29.82024856807436 21.963045096984235
    vertex 278.5631334089334 21.420248568074353 21.9630450969843
    vertex 263.5631334089334 21.420248568074367 21.96304509698414
  endloop
endfacet
facet normal 1.0772271963332988e-14 -8.728467684076848e-16 -1.0
  outer loop
    vertex 278.5631334089334 21.420248568074353 21.9630450969843
    vertex 273.5631334089334 29.82024856807436 21.963045096984235
    vertex 278.5631334089334 29.82024856807436 21.963045096984292
  endloop
endfacet
facet normal -1.0 -7.378459217422275e-30 -1.0215298501599985e-14
  outer loop
    vertex 272.5631334089334 29.82024856807437 22.963045096984224
    vertex 272.56313340893365 31.820248568074355 0.8787840674609771
    vertex 272.56313340893365 29.82024856807436 0.8787840674609783
  endloop
endfacet
facet normal -1.0 -7.378459217422275e-30 -1.0215298501599985e-14
  outer loop
    vertex 272.56313340893365 31.820248568074355 0.8787840674609771
    vertex 272.5631334089334 29.82024856807437 22.963045096984224
    vertex 272.5631334089334 31.820248568074366 22.96304509698422
  endloop
endfacet
facet normal 1.1279865930191607e-14 -1.4099832412739444e-15 -1.0
  outer loop
    vertex 277.5631334089334 31.820248568074366 21.963045096984278
    vertex 273.5631334089334 29.82024856807436 21.963045096984235
    vertex 273.5631334089334 31.820248568074366 21.963045096984235
  endloop
endfacet
facet normal 1.1279865930191607e-14 -1.4099832412739444e-15 -1.0
  outer loop
    vertex 273.5631334089334 29.82024856807436 21.963045096984235
    vertex 277.5631334089334 31.820248568074366 21.963045096984278
    vertex 278.5631334089334 29.82024856807436 21.963045096984292
  endloop
endfacet
facet normal -9.689336054364285e-15 6.620043266956959e-16 1.0
  outer loop
    vertex 278.56313340893365 29.82024856807434 1.8787840674610439
    vertex 273.56313340893365 31.82024856807434 1.8787840674609941
    vertex 273.56313340893365 29.82024856807434 1.878784067460995
  endloop
endfacet
facet normal -9.689336054364285e-15 6.620043266956959e-16 1.0
  outer loop
    vertex 273.56313340893365 31.82024856807434 1.8787840674609941
    vertex 278.56313340893365 29.82024856807434 1.8787840674610439
    vertex 277.56313340893365 31.82024856807434 1.8787840674610323
  endloop
endfacet
facet normal 1.0 -2.3108931686522527e-16 1.0448917296464627e-14
  outer loop
    vertex 279.56313340893365 29.820248568074344 0.878784067461056
    vertex 279.5631334089334 7.42024856807435 21.963045096984317
    vertex 279.56313340893365 7.420248568074339 0.8787840674610707
  endloop
endfacet
facet normal 1.0 -2.3108931686522527e-16 1.0448917296464627e-14
  outer loop
    vertex 279.5631334089334 7.42024856807435 21.963045096984317
    vertex 279.56313340893365 29.820248568074344 0.878784067461056
    vertex 279.5631334089334 20.420248568074353 21.96304509698431
  endloop
endfacet
facet normal 1.0 -2.3108931686522527e-16 1.0448917296464627e-14
  outer loop
    vertex 279.5631334089334 20.420248568074353 21.96304509698431
    vertex 279.56313340893365 29.820248568074344 0.878784067461056
    vertex 279.5631334089334 20.420248568074353 22.963045096984303
  endloop
endfacet
facet normal 1.0 -2.3108931686522527e-16 1.0448917296464627e-14
  outer loop
    vertex 279.5631334089334 20.420248568074353 22.963045096984303
    vertex 279.56313340893365 29.820248568074344 0.878784067461056
    vertex 279.5631334089334 29.82024856807436 22.963045096984295
  endloop
endfacet
facet normal -1.037463454690082e-14 7.897581199893549e-16 1.0
  outer loop
    vertex 279.5631334089334 20.420248568074353 22.963045096984303
    vertex 262.5631334089334 21.420248568074367 22.963045096984125
    vertex 262.5631334089334 20.420248568074364 22.96304509698413
  endloop
endfacet
facet normal -1.037463454690082e-14 7.897581199893549e-16 1.0
  outer loop
    vertex 262.5631334089334 21.420248568074367 22.963045096984125
    vertex 279.5631334089334 20.420248568074353 22.963045096984303
    vertex 272.5631334089334 29.82024856807437 22.963045096984224
  endloop
endfacet
facet normal -1.037463454690082e-14 7.897581199893549e-16 1.0
  outer loop
    vertex 272.5631334089334 29.82024856807437 22.963045096984224
    vertex 279.5631334089334 20.420248568074353 22.963045096984303
    vertex 272.5631334089334 31.820248568074366 22.96304509698422
  endloop
endfacet
facet normal -1.037463454690082e-14 7.897581199893549e-16 1.0
  outer loop
    vertex 272.5631334089334 31.820248568074366 22.96304509698422
    vertex 279.5631334089334 20.420248568074353 22.963045096984303
    vertex 278.5631334089334 31.820248568074355 22.96304509698428
  endloop
endfacet
facet normal -1.037463454690082e-14 7.897581199893549e-16 1.0
  outer loop
    vertex 278.5631334089334 31.820248568074355 22.96304509698428
    vertex 279.5631334089334 20.420248568074353 22.963045096984303
    vertex 279.5631334089334 29.82024856807436 22.963045096984295
  endloop
endfacet
facet normal 0.8944271909999161 0.44721359549995804 8.907722284648169e-15
  outer loop
    vertex 278.56313340893365 31.82024856807434 0.8787840674610446
    vertex 279.5631334089334 29.82024856807436 22.963045096984295
    vertex 279.56313340893365 29.820248568074344 0.878784067461056
  endloop
endfacet
facet normal 0.8944271909999161 0.44721359549995804 8.907722284648169e-15
  outer loop
    vertex 279.5631334089334 29.82024856807436 22.963045096984295
    vertex 278.56313340893365 31.82024856807434 0.8787840674610446
    vertex 278.5631334089334 31.820248568074355 22.96304509698428
  endloop
endfacet
facet normal 1.0651212863219037e-14 -7.866450316114596e-16 -1.0
  outer loop
    vertex 278.56313340893365 31.82024856807434 0.8787840674610446
    vertex 272.56313340893365 29.82024856807436 0.8787840674609783
    vertex 272.56313340893365 31.820248568074355 0.8787840674609771
  endloop
endfacet
facet normal 1.0651212863219037e-14 -7.866450316114596e-16 -1.0
  outer loop
    vertex 272.56313340893365 29.82024856807436 0.8787840674609783
    vertex 278.56313340893365 31.82024856807434 0.8787840674610446
    vertex 272.56313340893365 20.42024856807434 0.8787840674609886
  endloop
endfacet
facet normal 1.0651212863219037e-14 -7.866450316114596e-16 -1.0
  outer loop
    vertex 272.56313340893365 20.42024856807434 0.8787840674609886
    vertex 278.56313340893365 31.82024856807434 0.8787840674610446
    vertex 272.56313340893365 8.920248568074337 0.8787840674609964
  endloop
endfacet
facet normal 1.0651212863219037e-14 -7.866450316114596e-16 -1.0
  outer loop
    vertex 262.56313340893365 7.420248568074355 0.8787840674608899
    vertex 269.56313340893365 8.920248568074348 0.8787840674609668
    vertex 279.56313340893365 7.420248568074339 0.8787840674610707
  endloop
endfacet
facet normal 1.0651212863219037e-14 -7.866450316114596e-16 -1.0
  outer loop
    vertex 269.56313340893365 8.920248568074348 0.8787840674609668
    vertex 262.56313340893365 7.420248568074355 0.8787840674608899
    vertex 269.56313340893365 20.42024856807434 0.8787840674609578
  endloop
endfacet
facet normal 1.0651212863219037e-14 -7.866450316114596e-16 -1.0
  outer loop
    vertex 279.56313340893365 7.420248568074339 0.8787840674610707
    vertex 269.56313340893365 8.920248568074348 0.8787840674609668
    vertex 272.56313340893365 8.920248568074337 0.8787840674609964
  endloop
endfacet
facet normal 1.0651212863219037e-14 -7.866450316114596e-16 -1.0
  outer loop
    vertex 279.56313340893365 7.420248568074339 0.8787840674610707
    vertex 272.56313340893365 8.920248568074337 0.8787840674609964
    vertex 278.56313340893365 31.82024856807434 0.8787840674610446
  endloop
endfacet
facet normal 1.0651212863219037e-14 -7.866450316114596e-16 -1.0
  outer loop
    vertex 279.56313340893365 7.420248568074339 0.8787840674610707
    vertex 278.56313340893365 31.82024856807434 0.8787840674610446
    vertex 279.56313340893365 29.820248568074344 0.878784067461056
  endloop
endfacet
facet normal 1.0651212863219037e-14 -7.866450316114596e-16 -1.0
  outer loop
    vertex 272.56313340893365 29.82024856807436 0.8787840674609783
    vertex 262.56313340893365 7.420248568074355 0.8787840674608899
    vertex 262.56313340893365 21.420248568074356 0.878784067460881
  endloop
endfacet
facet normal 1.0651212863219037e-14 -7.866450316114596e-16 -1.0
  outer loop
    vertex 262.56313340893365 7.420248568074355 0.8787840674608899
    vertex 272.56313340893365 29.82024856807436 0.8787840674609783
    vertex 269.56313340893365 20.42024856807434 0.8787840674609578
  endloop
endfacet
facet normal 1.0651212863219037e-14 -7.866450316114596e-16 -1.0
  outer loop
    vertex 269.56313340893365 20.42024856807434 0.8787840674609578
    vertex 272.56313340893365 29.82024856807436 0.8787840674609783
    vertex 272.56313340893365 20.42024856807434 0.8787840674609886
  endloop
endfacet
facet normal 0.6431920864232727 -0.7657048647896115 7.166039088184445e-15
  outer loop
    vertex 273.56313340893365 29.82024856807434 1.878784067460995
    vertex 263.5631334089334 21.420248568074367 21.96304509698414
    vertex 263.56313340893365 21.42024856807435 1.8787840674608949
  endloop
endfacet
facet normal 0.6431920864232727 -0.7657048647896115 7.166039088184445e-15
  outer loop
    vertex 263.5631334089334 21.420248568074367 21.96304509698414
    vertex 273.56313340893365 29.82024856807434 1.878784067460995
    vertex 273.5631334089334 29.82024856807436 21.963045096984235
  endloop
endfacet
facet normal -1.0 -8.719126503775227e-30 -1.1232542649799793e-14
  outer loop
    vertex 278.5631334089334 21.420248568074353 21.9630450969843
    vertex 278.56313340893365 29.82024856807434 1.8787840674610439
    vertex 278.56313340893365 21.42024856807433 1.8787840674610496
  endloop
endfacet
facet normal -1.0 -8.719126503775227e-30 -1.1232542649799793e-14
  outer loop
    vertex 278.56313340893365 29.82024856807434 1.8787840674610439
    vertex 278.5631334089334 21.420248568074353 21.9630450969843
    vertex 278.5631334089334 29.82024856807436 21.963045096984292
  endloop
endfacet
endsolid Radial Fan
